<mxfile host="app.diagrams.net" agent="Mozilla/5.0 (Windows NT 10.0; Win64; x64) AppleWebKit/537.36 (KHTML, like Gecko) Chrome/132.0.0.0 Safari/537.36" version="26.0.12">
  <diagram name="Page-1" id="e7e014a7-5840-1c2e-5031-d8a46d1fe8dd">
    <mxGraphModel dx="864" dy="2026" grid="1" gridSize="10" guides="1" tooltips="1" connect="1" arrows="1" fold="1" page="1" pageScale="1" pageWidth="1169" pageHeight="826" background="none" math="0" shadow="0">
      <root>
        <mxCell id="0" />
        <mxCell id="1" parent="0" />
        <mxCell id="2" value="Thread 1" style="swimlane;whiteSpace=wrap" parent="1" vertex="1">
          <mxGeometry x="164.5" y="128" width="280" height="570" as="geometry" />
        </mxCell>
        <mxCell id="5" value="" style="ellipse;shape=startState;fillColor=#000000;strokeColor=#ff0000;" parent="2" vertex="1">
          <mxGeometry x="100" y="40" width="30" height="30" as="geometry" />
        </mxCell>
        <mxCell id="6" value="" style="edgeStyle=elbowEdgeStyle;elbow=horizontal;verticalAlign=bottom;endArrow=open;endSize=8;strokeColor=#FF0000;endFill=1;rounded=0" parent="2" source="5" target="7" edge="1">
          <mxGeometry x="100" y="40" as="geometry">
            <mxPoint x="115" y="110" as="targetPoint" />
          </mxGeometry>
        </mxCell>
        <mxCell id="7" value="idle" style="" parent="2" vertex="1">
          <mxGeometry x="60" y="110" width="110" height="50" as="geometry" />
        </mxCell>
        <mxCell id="8" value="user action" style="" parent="2" vertex="1">
          <mxGeometry x="60" y="220" width="110" height="50" as="geometry" />
        </mxCell>
        <mxCell id="9" value="" style="endArrow=open;strokeColor=#FF0000;endFill=1;rounded=0" parent="2" source="7" target="8" edge="1">
          <mxGeometry relative="1" as="geometry" />
        </mxCell>
        <mxCell id="10" value="post command" style="" parent="2" vertex="1">
          <mxGeometry x="60" y="325" width="110" height="50" as="geometry" />
        </mxCell>
        <mxCell id="11" value="" style="endArrow=open;strokeColor=#FF0000;endFill=1;rounded=0" parent="2" source="8" target="10" edge="1">
          <mxGeometry relative="1" as="geometry" />
        </mxCell>
        <mxCell id="12" value="" style="edgeStyle=elbowEdgeStyle;elbow=horizontal;strokeColor=#FF0000;endArrow=open;endFill=1;rounded=0" parent="2" source="10" target="7" edge="1">
          <mxGeometry width="100" height="100" relative="1" as="geometry">
            <mxPoint x="160" y="290" as="sourcePoint" />
            <mxPoint x="260" y="190" as="targetPoint" />
            <Array as="points">
              <mxPoint x="30" y="250" />
            </Array>
          </mxGeometry>
        </mxCell>
        <mxCell id="6MqH-hjUtwvMX_5tPP1P-41" value="Actor" style="shape=umlActor;verticalLabelPosition=bottom;verticalAlign=top;html=1;outlineConnect=0;" vertex="1" parent="2">
          <mxGeometry x="185.5" y="210" width="30" height="60" as="geometry" />
        </mxCell>
        <mxCell id="3" value="Thread 2" style="swimlane;whiteSpace=wrap" parent="1" vertex="1">
          <mxGeometry x="444.5" y="128" width="280" height="570" as="geometry" />
        </mxCell>
        <mxCell id="13" value="" style="ellipse;shape=startState;fillColor=#000000;strokeColor=#ff0000;" parent="3" vertex="1">
          <mxGeometry x="60" y="40" width="30" height="30" as="geometry" />
        </mxCell>
        <mxCell id="14" value="" style="edgeStyle=elbowEdgeStyle;elbow=horizontal;verticalAlign=bottom;endArrow=open;endSize=8;strokeColor=#FF0000;endFill=1;rounded=0" parent="3" source="13" target="15" edge="1">
          <mxGeometry x="40" y="20" as="geometry">
            <mxPoint x="55" y="90" as="targetPoint" />
          </mxGeometry>
        </mxCell>
        <mxCell id="15" value="idle" style="" parent="3" vertex="1">
          <mxGeometry x="20" y="110" width="110" height="50" as="geometry" />
        </mxCell>
        <mxCell id="16" value="check for &#xa;new commands" style="" parent="3" vertex="1">
          <mxGeometry x="20" y="220" width="110" height="50" as="geometry" />
        </mxCell>
        <mxCell id="17" value="" style="endArrow=open;strokeColor=#FF0000;endFill=1;rounded=0" parent="3" source="15" target="16" edge="1">
          <mxGeometry relative="1" as="geometry" />
        </mxCell>
        <mxCell id="18" value="command queue" style="" parent="3" vertex="1">
          <mxGeometry x="20" y="325" width="110" height="50" as="geometry" />
        </mxCell>
        <mxCell id="19" value="" style="endArrow=open;strokeColor=#FF0000;endFill=1;rounded=0" parent="3" source="16" target="18" edge="1">
          <mxGeometry relative="1" as="geometry" />
        </mxCell>
        <mxCell id="21" value="queue empty" style="rhombus;fillColor=#ffffc0;strokeColor=#ff0000;" parent="3" vertex="1">
          <mxGeometry x="150" y="225" width="80" height="40" as="geometry" />
        </mxCell>
        <mxCell id="22" value="yes" style="edgeStyle=elbowEdgeStyle;elbow=horizontal;align=left;verticalAlign=bottom;endArrow=open;endSize=8;strokeColor=#FF0000;exitX=0.5;exitY=0;endFill=1;rounded=0;entryX=0.75;entryY=0.5;entryPerimeter=0" parent="3" source="21" target="25" edge="1">
          <mxGeometry x="-1" relative="1" as="geometry">
            <mxPoint x="160" y="150" as="targetPoint" />
            <Array as="points">
              <mxPoint x="190" y="180" />
            </Array>
          </mxGeometry>
        </mxCell>
        <mxCell id="23" value="no" style="edgeStyle=elbowEdgeStyle;elbow=horizontal;align=left;verticalAlign=top;endArrow=open;endSize=8;strokeColor=#FF0000;endFill=1;rounded=0" parent="3" source="21" target="30" edge="1">
          <mxGeometry x="-1" relative="1" as="geometry">
            <mxPoint x="190" y="305" as="targetPoint" />
          </mxGeometry>
        </mxCell>
        <mxCell id="24" value="" style="endArrow=open;strokeColor=#FF0000;endFill=1;rounded=0" parent="3" source="16" target="21" edge="1">
          <mxGeometry relative="1" as="geometry" />
        </mxCell>
        <mxCell id="25" value="" style="shape=line;strokeWidth=6;strokeColor=#ff0000;rotation=90" parent="3" vertex="1">
          <mxGeometry x="130" y="127.5" width="50" height="15" as="geometry" />
        </mxCell>
        <mxCell id="26" value="" style="edgeStyle=elbowEdgeStyle;elbow=horizontal;verticalAlign=bottom;endArrow=open;endSize=8;strokeColor=#FF0000;endFill=1;rounded=0" parent="3" source="25" target="15" edge="1">
          <mxGeometry x="130" y="90" as="geometry">
            <mxPoint x="230" y="140" as="targetPoint" />
          </mxGeometry>
        </mxCell>
        <mxCell id="30" value="dispatch&#xa;command&#xa;worker thread" style="" parent="3" vertex="1">
          <mxGeometry x="140" y="325" width="110" height="50" as="geometry" />
        </mxCell>
        <mxCell id="31" value="critical&#xa;section" style="shape=note;whiteSpace=wrap;size=17" parent="3" vertex="1">
          <mxGeometry x="105" y="490" width="100" height="50" as="geometry" />
        </mxCell>
        <mxCell id="32" value="" style="endArrow=none;strokeColor=#FF0000;endFill=0;rounded=0;dashed=1" parent="3" source="18" target="31" edge="1">
          <mxGeometry relative="1" as="geometry" />
        </mxCell>
        <mxCell id="34" value="" style="whiteSpace=wrap;strokeColor=#FF0000;fillColor=#FF0000" parent="3" vertex="1">
          <mxGeometry x="245" y="395" width="5" height="45" as="geometry" />
        </mxCell>
        <mxCell id="41" value="" style="edgeStyle=elbowEdgeStyle;elbow=horizontal;entryX=0;entryY=0.5;strokeColor=#FF0000;endArrow=open;endFill=1;rounded=0" parent="3" source="30" target="34" edge="1">
          <mxGeometry width="100" height="100" relative="1" as="geometry">
            <mxPoint x="60" y="480" as="sourcePoint" />
            <mxPoint x="160" y="380" as="targetPoint" />
            <Array as="points">
              <mxPoint x="195" y="400" />
            </Array>
          </mxGeometry>
        </mxCell>
        <mxCell id="4" value="Thread 3" style="swimlane;whiteSpace=wrap" parent="1" vertex="1">
          <mxGeometry x="724.5" y="128" width="280" height="570" as="geometry" />
        </mxCell>
        <mxCell id="33" value="process&#xa;command" style="" parent="4" vertex="1">
          <mxGeometry x="90" y="405" width="110" height="50" as="geometry" />
        </mxCell>
        <mxCell id="35" value="" style="edgeStyle=elbowEdgeStyle;elbow=horizontal;strokeColor=#FF0000;endArrow=open;endFill=1;rounded=0;entryX=0.25;entryY=0.5;entryPerimeter=0" parent="4" target="25" edge="1">
          <mxGeometry width="100" height="100" relative="1" as="geometry">
            <mxPoint x="-30" y="410" as="sourcePoint" />
            <mxPoint x="-120" y="120" as="targetPoint" />
            <Array as="points">
              <mxPoint x="-10" y="135" />
            </Array>
          </mxGeometry>
        </mxCell>
        <mxCell id="37" value="" style="edgeStyle=none;strokeColor=#FF0000;endArrow=open;endFill=1;rounded=0" parent="4" target="33" edge="1">
          <mxGeometry width="100" height="100" relative="1" as="geometry">
            <mxPoint x="-30" y="429.5" as="sourcePoint" />
            <mxPoint x="90" y="429.5" as="targetPoint" />
          </mxGeometry>
        </mxCell>
        <mxCell id="38" value="" style="ellipse;shape=endState;fillColor=#000000;strokeColor=#ff0000" parent="4" vertex="1">
          <mxGeometry x="130" y="500" width="30" height="30" as="geometry" />
        </mxCell>
        <mxCell id="39" value="" style="endArrow=open;strokeColor=#FF0000;endFill=1;rounded=0" parent="4" source="33" target="38" edge="1">
          <mxGeometry relative="1" as="geometry" />
        </mxCell>
        <mxCell id="20" value="" style="endArrow=open;strokeColor=#FF0000;endFill=1;rounded=0" parent="1" source="10" target="18" edge="1">
          <mxGeometry relative="1" as="geometry" />
        </mxCell>
        <mxCell id="6MqH-hjUtwvMX_5tPP1P-44" value="&lt;div&gt;&lt;span style=&quot;font-family: Poppins, &amp;quot;VP Default&amp;quot;; text-wrap-mode: wrap; background-color: rgb(248, 249, 250);&quot;&gt;&lt;br&gt;&lt;/span&gt;&lt;/div&gt;" style="text;html=1;align=center;verticalAlign=middle;resizable=0;points=[];autosize=1;strokeColor=none;fillColor=none;" vertex="1" parent="1">
          <mxGeometry x="485" y="925" width="20" height="30" as="geometry" />
        </mxCell>
        <mxCell id="6MqH-hjUtwvMX_5tPP1P-46" value="&lt;span style=&quot;font-family: Poppins, &amp;quot;VP Default&amp;quot;; background-color: rgb(248, 249, 250);&quot;&gt;Search Inventory of Food Items&lt;/span&gt;&lt;div style=&quot;text-wrap-mode: nowrap;&quot;&gt;&lt;span style=&quot;font-family: Poppins, &amp;quot;VP Default&amp;quot;; text-wrap-mode: wrap; background-color: rgb(248, 249, 250);&quot;&gt;View List of Food Items&amp;nbsp;&lt;/span&gt;&lt;span style=&quot;font-family: Poppins, &amp;quot;VP Default&amp;quot;; text-wrap-mode: wrap; background-color: rgb(248, 249, 250);&quot;&gt;&lt;/span&gt;&lt;/div&gt;&lt;div&gt;&lt;span style=&quot;font-family: Poppins, &amp;quot;VP Default&amp;quot;; text-wrap-mode: wrap; background-color: rgb(248, 249, 250);&quot;&gt;&lt;br&gt;&lt;/span&gt;&lt;/div&gt;&lt;div&gt;&lt;span style=&quot;font-family: Poppins, &amp;quot;VP Default&amp;quot;; text-wrap-mode: wrap; background-color: rgb(248, 249, 250);&quot;&gt;&lt;br&gt;&lt;/span&gt;&lt;/div&gt;&lt;div&gt;&lt;span style=&quot;font-family: Poppins, &amp;quot;VP Default&amp;quot;; text-wrap-mode: wrap; background-color: rgb(248, 249, 250);&quot;&gt;&lt;br&gt;&lt;/span&gt;&lt;/div&gt;&lt;div&gt;&lt;span style=&quot;font-family: Poppins, &amp;quot;VP Default&amp;quot;; text-wrap-mode: wrap; background-color: rgb(248, 249, 250);&quot;&gt;Select Food Item from Inventory List&lt;/span&gt;&lt;/div&gt;&lt;div&gt;&lt;span style=&quot;font-family: Poppins, &amp;quot;VP Default&amp;quot;; text-wrap-mode: wrap; background-color: rgb(248, 249, 250);&quot;&gt;Update Food Item&lt;/span&gt;&lt;/div&gt;&lt;div&gt;&lt;span style=&quot;font-family: Poppins, &amp;quot;VP Default&amp;quot;; text-wrap-mode: wrap; background-color: rgb(248, 249, 250);&quot;&gt;View Food Item&lt;/span&gt;&lt;/div&gt;&lt;div&gt;&lt;span style=&quot;font-family: Poppins, &amp;quot;VP Default&amp;quot;; text-wrap-mode: wrap; background-color: rgb(248, 249, 250);&quot;&gt;&lt;br&gt;&lt;/span&gt;&lt;/div&gt;&lt;div&gt;&lt;span style=&quot;font-family: Poppins, &amp;quot;VP Default&amp;quot;; text-wrap-mode: wrap; background-color: rgb(248, 249, 250);&quot;&gt;&lt;br&gt;&lt;/span&gt;&lt;/div&gt;&lt;div&gt;&lt;span style=&quot;font-family: Poppins, &amp;quot;VP Default&amp;quot;; text-wrap-mode: wrap; background-color: rgb(248, 249, 250);&quot;&gt;Update Food Item&lt;/span&gt;&lt;/div&gt;&lt;div&gt;&lt;span style=&quot;font-family: Poppins, &amp;quot;VP Default&amp;quot;; text-wrap-mode: wrap; background-color: rgb(248, 249, 250);&quot;&gt;Change Item Details&lt;/span&gt;&lt;/div&gt;&lt;div&gt;&lt;span style=&quot;font-family: Poppins, &amp;quot;VP Default&amp;quot;; text-wrap-mode: wrap; background-color: rgb(248, 249, 250);&quot;&gt;Update Item Status&lt;/span&gt;&lt;/div&gt;&lt;div&gt;&lt;span style=&quot;font-family: Poppins, &amp;quot;VP Default&amp;quot;; text-wrap-mode: wrap; background-color: rgb(248, 249, 250);&quot;&gt;Duplicate Food Item&lt;/span&gt;&lt;/div&gt;&lt;div&gt;&lt;span style=&quot;font-family: Poppins, &amp;quot;VP Default&amp;quot;; text-wrap-mode: wrap; background-color: rgb(248, 249, 250);&quot;&gt;&lt;br&gt;&lt;/span&gt;&lt;/div&gt;&lt;div&gt;&lt;span style=&quot;font-family: Poppins, &amp;quot;VP Default&amp;quot;; text-wrap-mode: wrap; background-color: rgb(248, 249, 250);&quot;&gt;Update Item Status&lt;/span&gt;&lt;/div&gt;&lt;div&gt;&lt;span style=&quot;background-color: rgb(248, 249, 250); font-family: Poppins, &amp;quot;VP Default&amp;quot;; color: light-dark(rgb(0, 0, 0), rgb(255, 255, 255));&quot;&gt;Automatic Time Dependent Update of Status&lt;/span&gt;&lt;/div&gt;&lt;div&gt;&lt;span style=&quot;background-color: light-dark(rgb(248, 249, 250), rgb(22, 23, 24)); font-family: Poppins, &amp;quot;VP Default&amp;quot;; color: light-dark(rgb(0, 0, 0), rgb(255, 255, 255));&quot;&gt;Manual Update of Status&lt;/span&gt;&lt;/div&gt;" style="text;html=1;align=center;verticalAlign=middle;whiteSpace=wrap;rounded=0;" vertex="1" parent="1">
          <mxGeometry x="190" y="820" width="220" height="320" as="geometry" />
        </mxCell>
        <mxCell id="6MqH-hjUtwvMX_5tPP1P-47" value="" style="shape=image;verticalLabelPosition=bottom;labelBackgroundColor=default;verticalAlign=top;aspect=fixed;imageAspect=0;image=data:image/png,iVBORw0KGgoAAAANSUhEUgAAAroAAAKICAIAAAAQLc7oAAAgAElEQVR4Aey9f1RTV773f/AHTYlKIAxRIhgBCfIrasSoUaNECG3Eo0QkBDRWfqQECBA1kUxbqKJxbKXMjGKlHRnpVVE6YLnK2KkFtQMtSknv9WGe2zvfcX7UYabzfGmnTxd/zFp3zTzrnPw6gSSEkIQc+HS5Zg7n7P3Zn/06J/vzPnvvszfyL/gPCAABIAAEgAAQAAJOCSBOr8JFIAAEgAAQAAJAAAj8C+QCPARAAAgAASAABIDAJARALkwCCC4DASAABIAAEAACIBfgGQACQAAIAAEgAAQmIQByYRJAcBkIAAEgAASAABAAuQDPABAAAkAACAABIDAJAZALkwCCy0AACAABIAAEgADIBXgGgAAQAAJAAAgAgUkIgFyYBBBcBgJAAAgAASAABEAuwDMABIAAEAACQAAITEIA5MIkgODyNAkg8B8QAAJAAAh4gsA0W+NpZge5ME2AkH0SAgiC6Axj8A8IAAEgAASmQwBBZjhez3Dxk4QauEx+AiAXptNAQF4gAASAgJEAyAXyx0OogVMCIBegsQMCQAAITJ8AyAWnoQYukp8AyIXpNxNgAQgAASAAcoH88RBq4JQAyAVo5oAAEAAC0ycAcsFpqIGL5CcAcmH6zQRYAAJAAAiAXCB/PIQaOCUAcgGaOSAABIDA9AmAXHAaauAi+QmAXJh+MwEWgAAQAAIgF8gfD6EGTgmAXIBmDggAASAwfQIgF5yGGrhIfgIgF6bfTIAFlwh0NbAQhKUdJiaWSRFkY4MSFgoDAuQnAHKB/PEQauCUAMgFYvSCYy8SALlA/ojoxceD/HBALjgNNXCR/ARALkAL6CMCIBfIHxF99KiQExTIBfLHQ6iBUwIgF6AF9BEBF+RC5XlVDIuB7fVDZ8fIOyoHTbuZKLUCZGOD7LwqJiIYQRBqskrWOyLXypl0BEEYLGWP2hJg7nYI0nlUzAQjTKDKvQv7oQABHxEAueA01MBF8hMAueCjYGmJZ3P2wCgXKvrVvSOWf5Js69yFynqUggTHaPs1g2Pq1toYGkJJb6nEcWFyAUEobIW4bVh5Gb9ECw7L1Ms6h+UVIgrC4rfiIaGvmxeLhGW3KPvGdH3DaDYbidXIzZoDbjQQ8CoBkAvkj4dQA6cEQC54tQUB41YCuFyws0uwaapjDz8SQdKajPpAZxirrEMRsw7A5YI8d8D4mjgqQREkVV9i1AGDHVwEidFhMyixZJEEfdBWyzBbsLoxZ+UaVNzLBEAuOA01cJH8BEAuQCDxEQHngxF3GmLGfTeBp7fqAEQhMzf3tt9TdHPNGbHzE/7jXvRRX7SPMJohQHH+RgDkAvnjIdTAKQGQC/7W6Mxaf5zLhYlXpy4X5MUsJBU+ywR5NDMEQC44DTVwkfwEQC7M2vDsb6+hEwWBYYzQTzDpYMTkvQuac3IKwhO2z0y0gAdpjhMAuUD+eAg1cEoA5MIcb+N8V/1J5MIYPtWRnViHTXXUtDVMmOo4uVzQDfYLkrEZkWjXqM4wWtnWIqzv910F/U2fgT++JQBywWmogYvkJwByAcKJjwhMJhew6Y1OPqR0Ye4CVpGH/SKUR6NhUxioLBG3rt/6jaVvg4ePqEKl/IYAyAXyx0OogVMCIBegWQcCQAAITJ8AyAWnoQYukp8AyIXpNxNgAQgAASAAcoH88RBq4JQAyAVo5oAAEAAC0ycAcsFpqIGL5CcAcmH6zQRYAAJAAAiAXCB/PIQaOCUwx+VCZVtHbvOwxuOzpfqGZY0dhfem8EWf+qKeJ28p8bgnYBAITJ/A1J/nOageQC44DTVwkfwESCAX8Bn14xbr89RSfYTv/qcQ2idvCnGf7Ts5MJyrRPG9kRBKBI+j7VHjixnj6xxbvxWcvAh3Y4Bx6UPO2VFiESVVPMS8NiLx/Gw7HsC2q9DY3UVicERWhTLxLaywDa6kTfLeqT8Sfbh9d2/NNGnbWdTStMD21CsyrgoOnme8RPND64TtOGuz9E+QC+SPh1ADpwTIIhdYtlsTqU3bB0y3HfS1XHjYzY1FELqAp+9X9g4X6lUsejC7/qlpvwPCt4LTjBxOspuCCnqN0KcyJEzG9BhLi+28MJv/XVQgiEDUZaeO8mI2grA5df3K3pGS1iZeKsOywZXrQHym+ey6hN9ZuYSwg5e610YU2s3l0klX5IJjti4VQf4HD+SC01ADF8lPgDRywTuRzLdyYVQmZSE0kU246hs1hm2fRRqsyrRgCoKilrfndj0TCabQ5rJc6ObRECSnwxrYBkc1U5ekPruJVj8JURaXC+Z3fcJ5u4mndhLkggs8QS6QPx5CDZwSILVccLSqj5MFf3TGPmc6giDBtLXyxI3WDZStDejAsEyriGGzKAiC0Fgx8o5KU/c1tpsRV98vlorwhYAYLGWPZRUgTWcLl49nobNjxCgDQcYPRvRd4yAI7XCPtSBCG2SMNGLzOkUU9n6U8BLsqKZYhJC2yJW4P+ktmDN3OwTpPCrWWcAIE6hy745/k8aypApYNIRdh/Vq6AxjhRUcZKOARehdULe3CNIFYRglhJosF10dMabEnNzYIDtfy05m4DtKW53U3OkWSUUMvDOfEiHinTcZ1xnG1Jf1xvTWESVpN3b+apOJGI3FRBsKH+KuYpFJIGru4Jlg8ngXR9StDRy8RGpqrdyYDPN8pLBOEWMqkcfRmlZkcuQkTtjqgu3d6RckIEhybeE4iXCviW17y3AjqPjemG5wGDWtBxVMW4sKm0fwaG2xb+zDsO+hbgp1HH/77D48xpMO5YJ16SrsmbfcTSyX40uTP8/GNbzxLjG7bO3fX4PpRyRC8aeUxmLrhjV3TLfb5rHvauGsNf0Gmel6mUXdEn41Tmj4/hLIBaehBi6SnwB55QK+ZnBwjBZbM1jdWktcM9jxpVFZAd7nrB/WGEYrLzckxtqTCw+vcQWq3M4RjWFMfV4RhgRzzhk7dbGWDkEYMcrukt5heYWIYtkfuQtftJhfiw149w3nFvAoE+UCtp8yMm7SgKVRMza4FLZC3Das7mzhxCKIMfwbjKsj268pFiFowVS+RtY5XNj5VNfXzYtFwrJblH2YG2g2G4klbOiMt7NYlo0NImmwebdoLFKytA2WfR0xAXFkP0fbU9k3phsYEvGDkWS9cQ6mEyfV5xQx8o6Sh6O6wZFcKRuhySV9pvAfQwuOqehRD44q6+U0C0yMGHa+cmBMc69HwA82df7jL7IIjcOt61fewc5jfSGx+4UXh5SXsbtMKzbpLaVORKGJBJef4reyNoZGHNbBloKeSFLnuMNcfVERhmDjRFxtN0bPFJNGJdnBhE2xh0UbTfcFm+0RqZDcG9UNjiob9aLLmKLC+Vjf7x15iMsFxJU6mt2w+OPswL5cGOzhxyJIrCL33qhuAH8kEDa/Fbfj5JIrzzNBLmB+jmPr6P7icsH8IxrCHlEkmELnYcNzNo89NkBGy7lWOYD/oKoaCDLRGYQpEfNsYpAL5I+HUAOnBMgiFyxvbdgB9m7qZEcix5d6W8a9LBpjp9LZ+8qwKBWhFGBvwzq8pWNVDZlaGby3wLjDMrYXIoK/dBpN2e28xdrTCV0O5qLxSCPPNb/dYm/8NBW+ZbPj6hjba5pcYn7hxoxEEvQBJlBYpthgLshU5csamtHhVuOBdRvo8W3oeQWCiER3sDbasZO2LThW/WBeM55FJ0IQs3QwYNLECFNm1StYMs1ZOWIcH8HRcRpNg+74eYGw02Q/NwdB+Piek4PdXEIHic4wKkFNgdyZk+NCmpmJscqaO9aOGWtvBwbKrBeNvuGzRLE7HqnINZM3WsCLNssFxx4a5cLkdbR1b/x9mXAVlwvEHwrWw6GuRxGExb9svkGD+OOEK1Enl1x6np3KBYf3d9yPyKihzbcbA0h47Gk5HZbeu0mrP+MJQC44DTVwkfwEyCIXxs/Cu9MQQ+g8x1oKvCnHgreTS80q7KX/vLnpNLZ3dmeP9w3LtBqOgBMWwaDSjALFLBessygsIXZYxEdstk7GnbHt7h7TYYHZee+COdIQ31OdVGeC/xMCBhY8xrlhkgt42GDXPcV0SVpTpbERt1YN358pB2WxWTQ6wzI90CYcEp3EQ5emq1tULI9JYNPoDEvnCh6TbOQC3j2Av6YTQxt2jHfgj0NnG+BNzptv93gD+K105qStNfsBpm9YVrWfQUPMHTP4PFB8ZigezMx1uXeNyw7GxqqkDTJsRyvsobIpGq+IXQ+Nz6r1vth6Za3jBEFgFKxmm+PnbOJ33/oIGV2SFQQjiCKX8DEIJrnwkOz4kmvPszO54Pj+jnvSbG83EWDlOQWDhlAiRLb9PdYfr/3bZweaj7KAXCB/PIQaOCVAVrmAtzI2GgI/g8kFJ5ewdtkmfNpvmrsaYujBzIKWwrujOgPe8OFj7abeBWtMJciFcXMgbBtBU7vmwtwFvDvBNvA4qc4EuYC9FKbiL9+OG01LlbHEaQpuAsKuH7Gt2oisgGPs/8e+QCEEM2JrPi46KnUiKg3rUsaGMIjVv9fCpiHYJA/TYISxJ3wETbedWmhxmJh3Qhe3xXkd3lFEVH6W4OHESWJdLOntHlTW4S/leKc9foyK72FPAiWb+EUJJqoEaRwKEhyDPxU2RTv20IaPkzpamLh2YF8uSBGHcsHhJfyZJ8rocTfF7I9NiYTnRGdwfH9dlgvYfRl4WqivZWOyzHaCsNkBu/dupk6CXHAaauAi+QmQVS64NxiBv6kzKqybGlvDD6EBsg26rsiFMfxFzfzeaX73tb4+mozjA+HjGr67QyV4h7ZNpLF5T51sMILQrGvOySkIT9ju7HXKWmW8H9g8UmCRPmPjIzEhDDh30qreiNFlcFicxqBGYHPWqCzrFEhs7N8yv4EA3+VQir302wZvU60dO2kjfWyDykhJ6xCx3xsfBDGP4/Rd49AQtrKWjQRPuKdYoYVK08iRbdEOPXS5js7uo63/WEqb4G1G6mTEwckl155n2xIJz4nOMObw/k5JLhhrMWgdw5pYa/85A3KB/PEQauCUAGnlgnECIDuxDpvqqGnDZxqmt1Ti7Qs+1dHupadoOvamImgdwWeoqZg0O1MdMblAk6PY1LCncu1+bAbcJL0L2EBDGILPMcQn7oky2eO6MUyNmp11FxAqek1tow+wpp8YeBxXB2+vCXJBN9gvSMZm+aFY9zg+oFBv1UZGH6xywUCMZ+PlAlPZg4Ht6uCtDXZhMALTNBS0xThvkVh9PCYRZnWYw5juIRaDqQK93Dhb8GKDyPgxBVFqOH3zVp+VUxBGTBU2WVKHDR415OLLaBLRjSOpwxRSMEc/ohsYIS7dobmsYSAINVUhujik7h0puahPjEUo/AaluQ9ffpiFDQFY5oUMPkVRAbeuHyt6YFicHozgdwEXGTzB1VFdH7YYlCMPfSkXdPh8RspajQx/nrFZqLZTHe1fcu15thEo49g6ur8uyoW7LZxUhbjtqcYwprnThHVQWXv1pqaifKYnQC44DTVwkfwEyCsXnH0taRhz9OUh4csxBhNtEIjtyAXdwx6B+Ss+trJDlO2CXCCUiH1GqFWxbEc9rG1Wb49YKjJ+o0iJ4LGVpq80nQU5gnFswUHrh50T5ILNp3HY2zy3zvR5ocUBglwgNrsEuWAYU9bL8XUng2l8hbheg33ZiH/V6cRJ9eVa4zeN1GRU0NjAsVS/q4mNfXRp+Q/7ls/0jejdDp6AjX/ziX2LKJiiXLB5AGgsZnqt8atRJ07qDCMyuen7vUR8dSwLFnyeo+nbUeOqjqYPO436Bu+JIX4EW9ms56QanSd8sDo4LEo3fkzLERgHMsxfxiIED30qF2weiSl8SGn5BTl5nm3kwkS2du+vi3Jh8KmsSs5i4Y+O7TNvuWX+dgBygfzxEGrglAAJ5ILlfRQOSEhAruRQNupLzF986Pp6+OaPI/ytuXfijyujPE6yw6W5QADkgtNQAxfJTwDkwlxoyGaujviUt434chSY1hmtxNZOYPOaPbQ4sff1k6ZvVNPbwY1F3FgTeuawE/uN4NhHBEAukD8eQg2cEgC5AG26dwlg6waaO/mxhSYV4lbTGpHeLdczSmJImIotzGVdhsEzZn0UwMhAePagALngNNTARfITALkATSoQAAJAYPoEQC6QPx5CDZwSALkw/WYCLAABIAAEQC44DTVwkfwEQC5AMwcEgAAQmD4BkAvkj4dQA6cEQC5Mv5kAC0AACAABkAtOQw1cJD8BkAvQzAEBIAAEpk8A5AL54yHUwCkBkAvTbybAAhAAAkAA5ILTUAMXyU8A5AI0c0AACACB6RMAuUD+eAg1cEoA5ML0mwmwAASAABAAueA01MBF8hMAuQDNHBAAAkBg+gRALpA/HkINnBIAuTD9ZgIsAAEgAARALjgNNXCR/ARALkAzBwRmH4Gaz78/Pvid9tHftY++1T76+/HB72o+/372VdOvagRygfzxEGrglADIBb9qccAZIEAkUP3gmeLWFwdb7uU03tz1+qWdR85sKalJlSlTdh+IF+6J3rRz+ZpNS+M5dFZccETUojAGZUlIYNCiBYGUeQsWBMybZ9k1PGDevHkLFiwIpAQGLaIsCVkUxgiOiKKz4pbGc5av2RS9aWe8cE/K7gOpMuWWkpqdR87sev1STuPNgy33FLe+UD94RnQJjh0RALngNNTARfITALng6McP54GAbwhU9fzxpaufSN68ln70LO9AZYJoX+Q6fkhUTGDQooXPU2lMVkTS+titmcm7ZKn5ZdtKX0nXvJF1olly7nre27flV3qLbj4q7XpS8eFvq+9/dbTva+2jb2uG7Hck1Ax9r3307dG+r6vvf1Xx4W9Lu54U3Xwkv9Kb9/ZtybnrWSea0zVvbCt9JTW/LHmXLHZrZkTSehqTtfB5amDQopComMh1/ATRPt6ByvSjZyVvXnvp6idVPX/0DSJSlAJygfzxEGrglADIBVK0RODk7CCgGfimsO3TPWeubCt9NUmcx0zZEBQSFkhdFL4qaZVAvD6vNK369J4zVw623FPe/o124Bs/qbV24Bvl7d8cbLm358yVtOrT6/NKVwnE4auSAqmLgkLCmCkbksR520pf3XPmSmHbpxq/cdvH9EAuOA01cJH8BEAu+LhNgeLmFIGqj/8gbepKqzqVJJaGxyUHzJ9PZ8Wx03ZvLjyWdfKdQ633yd7Vr37w7FDr/ayT72wuPMZO201nxQXMnx8el5wklqZVnZI2dVV9/Ic5csdBLpA/HkINnBIAuTBH2jKops8IHL7el6lrTMkqCIuOX0gJilzHT80vyzrZXHTjM5/5MLMFFd34LOtkc2p+WeQ6/kJKUFh0fEpWQaau8fD1vpl1zKulg1xwGmrgIvkJgFzwagsCxucIgeL2xxnHG+LT91Lp4aErYlPQAy++dqHk/cE5Un3n1Sx5f/DF1y6koAdCV8RS6eHx6XszjjcUtz92not0V0EukD8eQg2cEgC5QLpWCRz2HwLSC7dSZWX0lewlS5dz0IPo6cuqj576j3t+6Inqo6fo6csc9OCSpcvpK9mpsjLphVt+6KcbLoFccBpq4CL5CYBccKNdgCxznID0/K21ksPU0HBmyobt5XVFNwfmOBD3ql90c2B7eR0zZQM1NHyt5LD0PLl1A8gF8sdDqIFTAiAX3GvpINccJKDoNGwpOR4SGb0skStU68vvfjkHIXijyuV3vxSq9csSuSGR0VtKjis6Dd4oxds2QS44DTVwkfwEQC54uxEB+7OAQN7bt1dnSAKpi1Pzy4puQF/CmJfuadGNgdT8skDq4tUZkry3b3upFC+ZBblA/ngINXBKAOSCl9oOMDs7CEgv3IrenE5nxYlq3podNSJFLUQ1b9FZcdGb00k0swHkgtNQAxfJTwDkAilaT3DS9wSK2x+vzpCERsXsev2S70uHEnWGsV2vXwqNilmdISHFZxQgF8gfD6EGTgmAXIB2GQhMJJBWfSogIGCH6sTES3DGxwR2qE4EBASkVZ/ycblTLQ7kgtNQAxfJTwDkwlQbBUg/uwlU338Wv3PvSt6O0q4ns7umJKpdadeTlbwd8Tv3Vt/33/2uQC6QPx5CDZwSALlAokYTXPU2AeXt4WWJXN7BSvsFDYxqDJ6f5acZGLVfnDtljap7PWjN85WdTk15ByuXJXKVt4enY8R7eUEuOA01cJH8BEAueK/5AMvkInDkk78sS+RuP6zIbR62lQVPCxt7lANDwlQkRjftWNU3LCPa79SzEJHojv3ArOkdUQ/Yv2SHbVdTDJ0RJm5REnSGpqs7t7HD/K9b2eeyNYIRQlnd/IT9qK23lW0dhfdws30j6ofeFSvby+uWJXKPfPIXgkvTrJHHsoNcIH88hBo4JQBywQ/bHXBpRggk75JtyC/X9V3jIHIJMaxe1tCS9SWGMXVnT8nDaUeXrgbWxgZCRB8paR1S24/Nw6KNCPeiqyUqtQLa4Z5x6LCTfDlPrsL/6WW9rlobZ8f8ZzcXEYi6bIzIpCYnlVoBIu02p7RJ48GTG/LLk3fJPGjQU6ZALjgNNXCR/ARALniqsQA7pCaQe74zLDoer8KoJDuYXWddy1kmNf1ZUq9C201RUN3axMdjsLDR2BUxJDlsCcYjsiMqUavpPVt5TiNqHrHCGS8XhlB5SwkuF8w29Wgnlr6kXh4TiTAzVTxzAquRgWGZVoMpgOIG2R28oPYWDp+FKwOTNWNipVbA0o7vEdHc6RYVYwKCr+1WEnov1O0tQmOl9EPqQXO8HxyR1+FlVbWU9HY4lAu4A0jyfp7cRElzp8NojV/XY7aGVbbwbodQruDmaETNGOTK5gY+KufI9bnGihjGdAPDuVUm9yotbhAUVVh0fO75TisNwqUZPAlygfzxEGrglADIhRlsX6BobxNgpvBWp2dvVej2/qi1uP1RzeffOypxdYZkTfZLpquXNbS0pkpjEOq7xqGhKP5Sbn2N1omoa1Vo27C6s1uYyQ4r6NYYMJHBOYtHbixLMNX0nj0s2mj7Oj5eLnRzEYXMMKZr1YTFytHOEeXl2hgaT9g+VtnWxE1A2BUduY39JmeMLg32CNgMZkFL4Z0heZ2KSefwmkd19/rFORxGTtO4xHbkQmstg87j6fuVnT3iAh6VrZLhXSmV+v3U2P3Ci0PKtg5hJpsqaMK7QIZF/OCwTH1u23DJRX1iKjvMUe8C7gCSVpvbiI1NaJpVYbg19Z1+tIBH5Rs7VLq5SDBVoJF1jmDWYtmcAnkMVpHhwjp5GA1FsUGNp2g6I6aiR9k7hGazKdnXbAeGMBGzJvul1RkSR7dyps6DXHAaauAi+QmAXJipxgXK9QGBopsDe/Q/31J8PF64h76SHRAQ8IOYBLOAeK+4/XHNECYgqu9/FcXdon7wZ5NLgz38SFOM15yTU80RyywXunk0VGwcrTeM6Qa7ubiewFLiEkFzVs44rOHEauSGMV1vCxsfyLBW1oFcUNejiLjF+BZe2dYhx1617Q9GqOtRCnrNMn6hPiunpLeoDWN2lAF+0jIYIbw4ojOMoOnBnLOW3o4RCRrMrh/RGXr4kTxBm6VHoV+QzOK3YiKGllxbaHnFb9czHckFvCzzYMSwiM/iXzZbwyqCWzN0cxErOqzKCbWF5r6B3BzE7AmHb+yb6RuWne+31NTCUP1gJIq7pfr+V5Yz/nAAcoH88RBq4JQAyAV/aGjAB98QOP7470U3PjMKCLYQNQqIkMjotZLDMVsyiD6UVPGYVUOm4HrONKxgkgtdDSyEEZbAYZj/0WgMXvMYNukhEpMIMilP0DYqQTmCtjFMOlT0Ey3rHMgF3eAwivKodHaMtCG33RjO7csFmRSxGV/A/MH6JxzJBVZFv7p3BPuH9SKMn3xgmnBgNmJx1VjKhOkI47PrsPpOnLuA9SLQ2FZEYXQkBhvfMXelGCXCRQVCmMZh8V99uTYmgkFbiwrqeohjJRbfdIaxGL7N/SJemqljkAtOQw1cJD8BkAsz1bhAuXYIDLg+tX5U3Tuisbz1mt9Q7di0d+nw9X5B2WvMlA2UxUuCaGGr07NtehcMY7p2PTOhtvBeEztSIzeXYoqL+FxI9C4egI1h2OQJLhGu9vCTMdGgrkdZ2mFcOlhesvEDR3LB6OeAqZcee7N30LtQWMGxkSBttQz8Hd0SbokQJpzsFyRgOsaSxmRt/ATPUQmKcM6Oas7KEZQwHIAlsx1bsS8X+gUJPEGrDSL8Ew+X5ILRN81dfBQjvcVmIAanpH74Z+hdmBh8kImn4AwQ8CABkAuWdhMOPE1gRHbEMvvPGp+clXJRYe7NnjS9nddcZ5ZtRcOW4uMb8stfeOWnwcui0jVv6AxjNnMXsMRPxWmsRDFKK7Z+a2B+jR6VZDNitEPGMXV1o4IWa5IUmERIR5nGzxN6W9gbUTYuHWwccyAXsE8YcjrwjvfR3GzjF5t478L5CSja9cxIOWqcGDgwJOIHGzsbJigDLOPEkyVVPBraYnxr13Q2xNCM4R+be8FSmuYkqs8rwiIV2JwGbB4Gm3se7+0YHJErBYhzuZDTYaxsSRUvTNphHFvRdOpZpnkJLsgFbHDHrEiwjCpsYoftP5i7YDcEgFywiwVOeowAyIVxLRH8OTUCXdf4FddseoytZ8bP8tM8nLiKgO2yQq7IhT5jp8I4uWBrZ2BYUqFBO7FBhKN9X+85cyXphayViSnGM8YKylt7qfTwF175qfFPwpcRpuBUWYciCDbl0ALELBfGdA/7RWIONYLDYLNoyXLU8mFhbwsbCTZ/+ogFe6LaMNnpamDRWKaBDGyNBHMEHRxGjTZZLFq6vhCffqjU72fQEMQ4F5IQMtXNtSx6MI3NptJYMcpuY1SeqAzsygXd4IhMKaDSWAwWgxIhEli+2hgYEos5FDqbERFMTZaLcXo6w5j6akMiO5jK4oRFcBLrGxx+GWEY03W1JLKDEQQfmxh8misXUOlsRgKbFtO0el8AACAASURBVCESXDYOr5gra6yL48EIFh0b7qFF8LjnrJ+oWG4EfBlhNwCAXLCLBU56jADIBUsbBAdTJYC9m7LlkrvWgGp7xiwXuhpYqQpeOjaSHUZnWFY6UtbvZ7LwkyyBKZyY5YI1MBvGdOaTuoc9glQWNiLO5sQoNYnm11w7drA5hh1ctihFez0gIGDVthcyf/jj8pvNXLZIcBWLW/nv/PK5RUuyTr5LrLJp3QVCVCZetXM8OKohfIVoJ4Hrpiwpp2JT02eaVOFW0aMa4toSkzngblkOSrEU5/jAUYmw7oKj1h/kgiMycN4zBEAuuNXUWgPknM2uvlobk6zKJSz7M+EMQS4gqNioKh52cCPx7xLb9UzLlPuH1zh0fGUkszKwJxeMQwCmJQSwIQCjXGjXMzc2KI3TCx52rI5Mj3/pFdNNedjDT+Wl/vj/s94j/Ay7/N/mLwzMPvtv1vN40DKt6lheN+48/Ok/BGBVRyftPsgFJ3DgkgcIgFzwn6aQXJ7YdiRg+mnCGYJcIEyAz83Bvqmz23Nu6UiwJxewfuxc86xDywx/pVbAyGmSnL0eJxAvClsaFIQwdqqKbg5gMPEOBkGrsRscV3i9HTHMNQHz5u//8ft2aU+yZ4TjV2G71uCkZwnAnhHOW3yQC875wNXpEgC54NkWbW5Z62qISd5vHbnHRq+JZ+zLBaMUcEsuENdm7l6DbNn27v9WagVh2Q25jR3J4nyRBjsw7V9w9xqHLRKZB+Cx+3L32oplKfMpVNnbt53cJtiR0gmcmboEO1K60tCDXHCFEqRxnwDIhZlqAWdJuV3X+IebColD+NYzzuQC9qVicq0pY2/LuMEIbNkD03IFI7k5LPxzCdP3CIrbwxnacytiwxEkYPXLb2F2NupLjA48vMZNVuQ+HNMN9KPFGollBiK2rnD/2m2ZgUvoB1vuuUI+rfpUQEDADtUJVxJDGq8S2KE6ERAQkFZ9yqulTN84rLvgfhyCnKQgAHJh+s0EWHBAwKlcMIwp6+VMFhub/8gyz5w3z13AZzUyqCwOg83jSfebvq582CPgsyghy54PDo0Q5yQgW417HVWeVZjtmKdMThg1EB1vWMxgHr72aweu2pmMUtz+eHWGJDQqZtfrl1zPBSk9SGDX65dCo2JWZ0iK2x970KyXTIFcIEXIAyfdJwBywUttB5j1CAHphVvrpS8nvrB/mtaOfPKXkl987oYR6YVb0ZvT6aw4Uc1bbmSHLO4RENW8RWfFRW9Ol1645Z4F3+cCueB+HIKcpCAAcsH3zQqU6AqBAy33nlu0JHLt5h2qE8Xtj1zJ4r00eW/fXp0hCaQuTs0vK7qBz6Oc0IHhvdLnjuWiGwOp+WWB1MWrMyR5TqeY+CETkAukCHngpPsEQC74YbszN10q7XpiXGDRUn3VrwjfQPpBeFZ0GraUHA+JjF6WyBWq9eV3v7S4CgfTIVB+90uhWr8skRsSGb2l+Lii0zAdazOVF+SC+3EIcpKCAMiFmWpcoFwLgS0lNUtXr10UxuDskcuv9FrO++2B9PyttZLD1NBwZsqG7eV1pu82/UDQ+C0xu44V3RzYXl7HTNlADQ1fKzmce5404w52qwNygRQhD5x0nwDIBbu/fDjpbQLEmQSbDqkLfvYrb5foDfvSC7dSZWX0lewlS5dz0IPo6cuqj+wsWuyNoklqU/XRU/T0ZQ56cMnS5fSV7FRZGYlmJzhnDnLB/TgEOUlBAOSC8yYArnqQQPX9Z7vr300Q7QsMWiSsPu1ByzNuqrj9ccbxhvj0vVR6eOiK2BT0wIuvXSh5f3DGHfMHB0reH3zxtQsp6IHQFbFUenh8+t6M4w2k+NhhSvRALpAi5IGT7hMAuTClFgEST4dAhuZNdtpucW1T5b3Z/Ap++Hpfpq4xJasgLDp+ISUoch0/Nb8s62Rz0Y3PpkOPRHmLbnyWdbI5Nb8sch1/ISUoLDo+JasgU9d4+HofiWoxVVdBLrgfhyAnKQiAXJhqowDpXSQgb+3lF2vjtu+ypD8++J3leI4cVH38B2lTV1rVqSSxNDwuOWD+fDorjp22e3PhsayT7xxqva9+8IzUKNQPnh1qvZ918p3NhcfYabvprLiA+fPD45KTxNK0qlPSpq6qj/9A6gq67jzIBVKEPHDSfQIgF1xvDiCliwQKr/cvWRr5g9jETS8dOXD5IxdzzYVkmoFvCts+3XPmyrbSV5PEecyUDUEhYYHUReGrklYJxOvzStOqT+85c+Vgyz3l7d9oB77xEybagW+Ut39zsOXenjNX0qpPr88rXSUQh69KCqQuCgoJY6ZsSBLnbSt9dc+ZK4Vtn2r8xm0f0wO54H4cgpykIABywcdtyqwsrrr3T1knm4lVI85kJJ6H44kEqnr++NLVTyRvXks/epZ3oDJBtC9yHT8kKiYwaNHC56k0JisiaX3s1szkXbLU/LJtpa+ka97IOtEsOXc97+3b8iu9RTcflXY9qfjwt9X3vzra97X20bc1Q99PLEVnGKsZ+l776NujfV9X3/+q4sPflnY9Kbr5SH6lN+/t25Jz17NONKdr3thW+kpqflnyLlns1syIpPU0Jmvh89TAoEUhUTGR6/gJon28A5XpR89K3rz20tVPqnr+aLeguXkS5AIpQh446T4BkAtzs2nzVK13HjnD2rB9wXOU+J17nG/d5KkS55Sd6gfPFLe+ONhyL6fx5q7XL+08cmZLSU2qTJmy+0C8cE/0pp3L12xaGs+hs+KCI6IWhTEoS0ICgxYtCKTMW7AgYN48xPxfwLx58xYsWBBICQxaRFkSsiiMERwRRWfFLY3nLF+zKXrTznjhnpTdB1Jlyi0lNTuPnNn1+qWcxpsHW+4pbn1RTfLhEp89MCAX3I9DkJMUBEAu+Kw1mTUFvXT1E0td1koO5zTerPn8/1rOwAEQmJsEQC6QIuSBk+4TALngvaat5vPvjw9+p330d+2jb7WP/n588Luaz+33EnvPB09Zrvn8+5zG9rWSwsUM5taXf+gps2AHCMwaAiAX3I9DkJMUBEAuTNpaqaFD2DAmrr3I2rB955Ezis4vJiUGCYDAHCQAcoEUIQ+cdJ8AyAVjuwbTzZy371W9f3KeAK4CgTlOAOSC+3EIcpKCwByUC/Ax2xxv1qH6QMAbBEAukCLkgZPuE5gLcgGWypk7S+V4IwyATSDgCgGQC+7HIchJCgKzVS7YX4j3BCzEO8sX4nWlWYc0QMAbBEAukCLkgZPuE5hNcgG2+XHSCM6RbX6cEIBLQMCrBEAuuB+HICcpCMwCuQCbCE+1EZzFmwhPFQWkBwKeIgBygRQhD5x0nwB55YL0/K21ksPU0HBmyobt5XVFNwc89bOfU3aKbg5sL69jpmyghoav3VOQfe7WnKo+VBYIeIoAyAX34xDkJAUB0skFRadhS8nxkMjoZQlrN+cdyqprzm0d1gyOeeo3P86Osn5/Yv3wuJPEPyvbOgrveat0vKBRde+I9ypoqctBtSCQGv48MykkMnpL8XFFp8FyCQ6AABCYlADIBVKEPHDSfQIkkgt5b99enSEJpC5OzS8rutEp4jMYabXisw3cVAaF36A0eCVmK7UCltaZXJBJEe5FrxRtbp66uYhA1OXVIsZ0hmHRRhb/MlZK0Y2B1PyyQOri1RmSvLdvm93wtgNgHwiQmwDIBffjEOQkBQFSyAXphVvRm9PprDhRzVum6NVWy0ioLTRKhMF+VF6bewdvawZH5HUanlzFk+tz74xaQp3mTocQO6kRXRyuvKjn1Q9hl3q7hUe6lVeb+DlNRlPq1iY+lkwlbBzW4MZxudBfotdzUTm3uEneO75Fs8iFknoVenU4t0rFQeW8qg7lwJjOMCLTqtA2a5bCepWoeQQregBLiflptTmEylsKMT/lHNTiwIjsyH4mworJVvGOdKtxl9TtLXhdVEL9kNrYrUKoyKGrTTxdj9F5rKCua/yKjkpbLTXRQkm9PCYSL8VIBk8vqnmLzoqL3pwuvQAjFNabaHmo4AAIEAmAXCBFyAMn3Sfg53KhuP3x6gxJaFTMrtcvEX+Zuq4GFg0V3x3XiA+L+AxmQUvhnZGSi/rEWDavGVMMmmZVGI3Hq+spudOPFggYsSxE2o1Z62pgRbKZfIXobH+lYUypE1HXqtC2YXVnt0DACCvo1hjGlFoBhcbh1PUrsbw8SqxGbjvwYZELMilCoYv4F4fUnd3CTDYlvaXSMFZZh1Kyr5mC92APPxIV3xvT9XXzYtmJVd0lvcOFehWTLsI7D7q5SDBVoJF1Gp0PZtc/1RlGlc21bITDfbUjtxlTMJX6/dTY/cKLQ8q2DmEmmypowrpViBXpbWEjeCl4yJcfZrHrnhLR2bVQ2dbETcBLabNJrDOM7Xr9UmhUzOoMSXH7Y6IdOAYCQIBIAOSC+3EIcpKCgD/LhbTqUwEBATtUJ4i/Scuxsl7OpDPCBHJhXQ/+Kj+ma1ZR0pqsb9IXFZT0FrVhBE0P5pzF3+mxCDoqyQ62ygWaQmYK/z38SJ6w3aw/7nUI5U2FA5hcoB3uMRfaL0hg8VvNafB4TJQL1sDcd42DoGjvmK7vGocml/RhWTTn5Eb3lDoRwSZeRHGPztDNJYR5zVk5gjk/hp+3DEZgTgos3RWD/YJk3B9MPFkqglXQNIAy2M2lm0o3V8GBBWwwwlKKTQWNGXeoTgQEBKRVnzLbsZMGLgGBuUwA5AIpQh446T4B/5QL1fefxe/cu5K3o7TribMGaHBU3dkjxl76VbI+LO4idDYjgWP6x2ZR6CoZFoZtAiGWzNK7sNE86aGrgYUoZLgCIJZoO3dhWLRx/EwFolwgTGKwFmp+vx+VZDM457DeDqwfIsLsZAKHwWIggqZKzE+CAxcViMk3qymsF4GYBjeFKYOuBpalIoYx3WUNLVlfgguUMKvWwQO8IwuTyQWdYay068lK3o74nXur7z8jIoJjIAAEdIYxkAvuxyHISQoCfigXlLeHlyVyeQcrnbVBAyPqXsvUhGFRKhbFsTdytKWyd0Rt/TeqM/QLEjjWN3LDWGEFx45cwPrwCS/ig6bvEaYvF7DgvbFB2XeNE2kayCis4DAreghOjqgfjuK9CJPJBazTguCkYVSCIpyzo+PlgmFImMziX34qTjPNXrSSdGTBBblgNMI7WLkskau87Wz6p7W4CfILLgGB2UoA5AIpQh446T4Bf5MLRz75y7JE7vbyuknaFKz73TjkP6Z72ME1jiP0XePQRaJOXEYMjuTmsMKwTv6xkioehd9Qgs09HNPcaeFEInbkgmFEgjJitEPGeQZqvZyCv697QC5gwZvHlaI03BmsXu16Zqwi1zhrcmBIuNE4TcGF3gV8JIWl7DHOcFSfV4RFKmR9+NwFYu8CPmeCJt7PxvsYbEniQxUTLbgsF3SGse3ldcsSuUc++YutZRieAAJzmgDIBffjEOQkBQF/kwvJu2Qb8stdiUOVZxXY3IUEDi2CxzEvjaC+2pDIZtDYHEYEi4m2KI3zEgafSqQ8Ko3FYLNoqbVipb3BCMOY7mG/MJ1FY2GjA9RUVS4+j9ITcgGb8IgghIkRhrHK8yoW7nxYBCtG2WOeo2C3d2FUXiGgIohpbGJgSCzmUOhsRkQwNVkuNmqjcYMRBuOcCcQ6l4L4lm/XwlTkgs4wtiG/PHmXzJXbBGmAwBwhAHKBFCEPnHSfgF/JhdzznWHR8R5oXPpGrV8SWiLl4KgG72CYxL6LySxmp3Gg6bOMp0zxtWxSJ+81sc1TLO3Xd1ILk9UrLDo+93ynfeOT5YVcQGD2EQC54H4cgpykIOBXcmF1Rvaa7JdmXzvi+xqVVPGIH194w4E12S+tzpB4wzLYBAJkJABygRQhD5x0n4D/yIXq3q+i1m058tDyxeMUX7jhjdZCAFvgwWbswxuNr/rBn6O4W6p7v/KGcbAJBEhHAOSC+3EIcpKCgP/IhQOXPwqJjCZdGzGXHY7mZ8zl6kPdgQCRAMgFUoQ8cNJ9An4iFyru/veSpcvpLLb6AfQukKNbRf0Q7124D70L5LhfxMAGx94gAHLB/TgEOUlBwE/kQhR3q6CsdnWGBOYueKMh84ZNmLvgDapgk7wEQC6QIuSBk+4T8Ae5kJyVb1QJHvsywjKK79LB08LGjlzLvwmbJky1/ZIVc8bved03LMN3fNDZrC5F7rdS+DJiqg8GpJ/dBEAuuB+HICcpCMy4XNiiqFm5Mc3Sjri+7oIly7QPurkILxHfiBLbIpKwJaN7lmVSZPye15Z1EaxLO5NbK8C6C+49G5BrFhMAuUCKkAdOuk9gZuXCrrq3Q6Niqz7+g6URcXVVR5e6DVwMybbLKRotD46U6PXGjbDRdsJ0ioFhmRbfILu4QUbYINu887UebR/JdSQXeruFmTwkUsSRq4QXcZv2tttWX9QLLw4X1mm4OQpeVUvJwzHdwyG0SsFBFfw603qOOsOYtcROgnuexOKQHqzqaHlc4QAIWAiAXHA/DkFOUhCYQbmQ39w9f+HCQ//20PJ7Mx64tGeEJ+PiRLnwFM1khGXqZZ3DhY36xFhGTB2+RcJgj4Bt3CB7SF6nYtI5xg2ylToRJXa/sLFfiW1dLQiLddC70Dcsq0CRBIW4sUPWNaoz2N9ue9yW2VS+ipuJ7Vit7uzm84ONy1rrWjVhsXK0c0R5uTaG5vVvJok3CPaMINKAYyBgIQBygRQhD5x0n8BMyQXl7f+16AfL9p59z/JjIx64uiOlZ0QDcTCipcQwpmvV0JJrC00bW4/p2mqZkRq5YUxdj1LQa/iCzdibt/qsHN8g23ZLaGyHCAdywTCmIw5G2N9ue9yW2T38SHwTKWNNuxpYZk8QcYtx54jKtg45oZ+DiNGzx7AjpWd5grVZRgDkgvtxCHKSgsCMyIWaz79fzuGlVZ1y3l6kVZ8KCAjYoTrhPNm0r3ZzEbnEvImlxoBvhG3c4dokR0xbSI+flGDcDNrhltCEznx7cxccbLeNlU6Y+jBuy2xzR8jgMIryqHR2jLQhlzhW4hn9RPDcbHCH6kRAQEBa9SS3bNr3wk7RYBMIkIIAyAVShDxw0n0CMyIXEjP3c/eXuNIEFLc/Xp0hCY2K2fX6JVfSu5XGHIPNoRHfCPuaddcJ86bPhRUcRkW/tYi2WkZCbaH5qvk8tqk0Id7j8c+eXHCw3bZrcsHo6sBIyUV9Yiyb3+rFKLvr9UuhUTGrMyTF7Y/NdfRicVAEECApAZAL7schyEkKAr6XC5sPH43dmjmlFkF64Vb05nQ6K05U89aUMrqWeLxc0PVd49AEglbTbMRcKZsm7cbUQ7ueGSlHjT3/A0MifjAuC7AtocOkHaZNpVtrWYhTuZDaoDQGewfbbbvSu6DUCmg5HfiwyGhuNhKjw6dWmOWOa7WePOSLat6is+KiN6dLL9zylE2wAwRmKwGQC6QIeeCk+wR8LBdeeOUnP4hZrXZrY4i8t2+vzpAEUhen5pcV3RjwXKMzQS4YxjSdTYnsYCqLQ6MxmGhTiXkrS3VzLYseTGOzqTRWjLLbKBF0D/tFxk2lWSyGuEWU41gu9PUIUhmIWU/Y3W7bFbmgGxxGxRxqBIfBYtHS9YV9k8d+13EV3RhIzS8LpC5enSHJe/u26xkhJRCYywRALrgfhyAnKQj4Ui5IL3yw8HlqYdun02lTFJ2GLcXHQyKjlyVyhWp9+d0vp2Ntkrx2N8I2jNnfeHpgVGOZHTmlF30HpUzim2FMN+1NqIlFlN/9UqjWL0vkhkRGbyk+rug0EK/CMRAAAs4JgFwgRcgDJ90n4DO5oOg0BIWE7Wu44fwn5/rV3PO31koOU0PDmSkbtpfXFd30YH+DJ1/WXa/RjKQsujmwvbyOmbKBGhq+VnI49zyMO8yhuz8jj9xsLRTkgvtxCHKSgoBv5IJmYHRZwrr0Y2e90VJIL9xKlZXRV7KXLF3OQQ+ipy+rPnrqjYJmjU3VR0/R05c56EFsW6+V7FRZGcxOmDU3FyoyUwRALpAi5IGT7hPwjVyI37lnQ365t3/Gxe2PM443xKfvpdLDQ1fEpqAHXnztQsn7g94ulxT2S94ffPG1CynogdAVsVR6eHz63ozjDfCxAynuHThJCgIgF9yPQ5CTFAR8IBd4ByrjdmT5+Ad/+Hpfpq4xJasgLDp+ISUoch0/Nb8s62Rz0Y3PfOzJTBVXdOOzrJPNqfllkev4CylBYdHxKVkFmbrGw9f7ZsolKNdnBGo+//744HfaR3/XPvpW++jvxwe/q/n8e5+VPjcLArlAipAHTrpPwNtyIUN7jhHPOdb/f2awBan6+A/Spq60qvoksTQ8Ljlg3nw6K46dtntz4bGsk+8car2vfvBsBt2bftHqB88Otd7POvnO5sJj7LTddFZcwPz54XHJSWJpWtUpaVMXcVeO6RcHFnxGoPrBM8WtLw623MtpvLnr9Us7j5zZUlKTKlOm7D4QL9wTvWnn8jWblsZz6Ky44IioRWEMypKQwKBFCwIp8xYsCJg3DzH/FzBv3rwFCxYEUgKDFlGWhCwKYwRHRNFZcUvjOcvXbIretDNeuCdl94FUmXJLSc3OI2d2vX4pp/HmwZZ7iltfVJP81+GzmwVywf04BDlJQcCrciHnx+2UJbSSX3zus1+sKwVpBr4pbPt0z5kr20pfTRLnMVM2BIWEBVIXha9KWiUQr88rTas+vefMlYMt95R3fqMd+MYVmz5Iox34Rnn7Nwdb7u05cyWt+vT6vNJVAnH4qqRA6qKgkDBmyoYkcd620lf3nLlS2Papxm/c9gEZshdR1fPHl65+InnzWvrRs7wDlQmifZHr+CFRMYFBixY+T6UxWRFJ62O3ZibvkqXml20rfSVd80bWiWbJuet5b9+WX+ktuvmotOtJxYe/rb7/1dG+r7WPvq0Zst+RUDP0vfbRt0f7vq6+/1XFh78t7XpSdPOR/Epv3tu3JeeuZ51oTte8sa30ldT8suRdstitmRFJ62lM1sLnqYFBi0KiYiLX8RNE+3gHKtOPnpW8ee2lq59U9fyR7PA96D/IBVKEPHDSfQLekwtFNx89t2hJ7k87PPiD9J4paLK9xxYsWwhMQareBqlKsk9UQC64H4cgJykIeEkuHP31X8PjkjJrGi0NJXkPHHcIF0CHMHlvq288Nw+EnTINhM2HgTCSiQDXnxOQC6QIeeCk+wS8JBdWCcQbD1W7/kuDlEBg1hCAabZzc5otyAX34xDkJAUBb8iF9XmlqzMks6b1h4oAgUkJwEe8ThDNkY94QS6QIuSBk+4T8LhcEKr1EUnrjz/+u5PmAy4BgdlBAJYIm+p9nMVLhIFccD8OQU5SEPCsXJC8eY0aGl76wX9OtRGB9ECARASksAD5lHZFcZB43ALkUpIvQA5ygRQhD5x0n4AH5cLha79e8NzzsIchicIeuDolAtj2ZiW+2t7MQYidksNkSWyzvVkJWbc3A7ngfhyCnKQg4Cm5UN37FX0l+8XXLpClhQI/gYDrBLy2efqs/UzAdbbElKTePB3kAilCHjjpPgFPyYUYfjq/SEv85cMxEJgFBKQXbkVvTqez4kQ1b82C6pClCqKat+isuOjN6STa/AzkgvtxCHKSgoBH5MK6fUVJL0rJ0hKBn0DAFQLF7Y9XZ0hCo2J2vX7JlfSQxuMEdr1+KTQqZnWGhBR7oYFcIEXIAyfdJzB9ubBDdSJy7WaPtxRgEAjMIIG06lMBAQE7VCdm0Aco2khgh+pEQEBAWvUpPwcCcsH9OAQ5SUFgmnJhj/7nSxjMsu7/7ee/ZHAPCLhIoPr+s/ide1fydpR2PXExCyTzNoHSricreTvid+6tvu+/u8GBXCBFyAMn3ScwHbkgv9I7b/78gnc/9HZjAfaBgG8IKG8PL0vk8g5W+qY4KGVKBHgHK5clcpW3h6eUy2eJQS64H4cgJykIuC0XVB/9LmR5dNbJd3z2a4SCgIBXCRz55C/LErnby+umUsqosrmj8J71AwdNV7esa9R1C8r6/YzibqfpR9W9I5pBaxHOEvcNyxo7cs3/puSJXbOyYk5ivU14tlZwYETdO4Wa2rU/1ZPby+uWJXKPfPKXqWb0QXqQC6QIeeCk+wTclgusDdu3lb7igx8hFAEEfEMgeZdsQ375FMsaFm1EuBetsVypFbC0NvHVuUGlVoBIncuFbi4iEHVZi3BmsKuBFSniyFU8/J/w4oizxC4s7SCTIuOqY63gRQWysUHpgpFp+jAu+4b88uRdsnEn/eFPkAvuxyHISQoC7skFzp6DHPSgP/xEwQcg4BECuec7w6Ljp27KoVxQX9QLLz5VtzbxscitR9utkVtzp0OIndSILg6XEOXCwHBuFRbp+dpu5d1uobylxDAiO7KfibBislW8I91qPDabbaqEjcOacdG6q4E1MYQPDMu0GkxAFDfI7lj7AzR3ukXF5uIGrHLEbB/zOdeRXOjtFmbyEFyamESJ2XlecZO812StpF6Ftj3NrVJxcxR8bXfl4JjubreoWM5B7Tk/ri6O/wyLjs893zn1m2WtozfyglwgRcgDJ90n4IZc2Fb66opUgTd+b2ATCMwUgdUZkjXZL029dIdyQakVMPiimJwGeedwYaM+MZaRqH+qM4xpmlVhNB6vrqfkTj9aIGDEsky9C33dvNhgZkETll6vYrHZNEQhM4wqm2vZCIf7akduMyYOlDoRda0KbRtWd3YLM9lhBd02imGiXBjsEbAZzIKWwjtD8joVk87hNeOKobWWQefx9P3Kzh5xAY/KVsn6sGiq1IkosfuFjf1KzL4gLNZB70LfsKwCRRIU4sYObMgDc56dWNVd0os5z6SLjN0hMilCoYv4F4dM3marOALMeWVbEyc2mF2PAXHj35rsl/xwEzuQC+7HIchJCgJTlQtZJ9+hLV+p+uh3bvzIIQsQ8E8C1fe/iuJuUT/889TdcyYXkLSmSks4vKyhRWrkmgAXLAAAIABJREFUhhE0PZhz1tLTMCrJDjbKBXU9SkGvGfsPMFVxTk7B5MKYzkAcjOjm0VCxZarEYDeXhqLmV3nMeeJgBN4bMc6s+qyckt6iHu/GiAQNZteP6Aw9/EieoM0SwoeEyQ7kgmFMRxiMUOpEtMM9FnpKrYBWjP0pkyLsOrMm6G1hIxyr8fMKBPPEUtYUDo48/HMUd0t171eWEv3hAOQCKUIeOOk+gSnJhYKffRgwb578irVd8IdfKfgABKZDoKz7v/a9dSOGn+GWEWdywXbUv5uLoGgvMfZjAdIyd2H8LIGuBtZEuYCdZIQlcBjmfzQag9dMCLRdDazU2sLeETX2D+tFcGDWgRvWQk02x2fHHTbViyAXsF6ECKtXDBYDEWBSSSYlTuywLXRiR8hUpEO0m/eLwGoqxbnybIBccD8OQU5SEHBdLpR1/9eSpcv36H/uyi8H0gABvyVQ2vUk+41/21x4LIafQaUzgkJ/EBi0aPmaTeoHlpf+KQSV3ByEe96aXl7MMkZT7A2b8MKtu9fExsJ/vyCB8IZtGCus4Bh7FworOIyKfiu0tlrGRLnQd42DyNG7RjVg+l+bjyYmxGA7ZhNqC+25gZWO25fgoxK4J6MS1KXehcIKDrOiB9coZt8emsQKYR6ox+SC2ti7cB96F2yCDGLzF/wBBDxNwHW5ELmWv70CFrmzBgZry+7p1xSw7FkCio4hVN+yUV7F4u14Pjg0eFlk3I5dW19+5YVXf6r89yfrpS9vPnzU3bkLY5X1KJXfUGKcKtjbwY3kCduxh0SpFVDoIlEnPlFgcCRXyqZJsXkGJVU8ijm95k4LJxIxzV1o1zNp5vQDwyjKQibKBcOoJJsRox0yzldQNyposRo58RvLCXJB165nRspR4wzHgSERP9ioZkqqeDS0RYm7relsiKEZP77ABkfCpB1q3Ka6tZaFOJULqeYvI9r1zFhFrnFYZGBIuNE0L8FLvQswd8FuHAC5YBcLnPQYARflQpI4b+2+Qs824mANCHibwFrJ4eeoi0Mio+PT926vqMs9f6vy3u+NhUrOXX9+SQi/SBMwb17lvd+7+2XEmM4wIleKaDRGGJtFjRDxzpuG6rEPDqs6xGIOjcWh0YIZ4iaTpBh8misXUGksBptFS60VK60fUlaeVTDpwTQ2hxYhENTVmgcjRuUVAiqCmL5afNgvEnOoERwse7IcHfeB5US5YBhTN9eyMLNsKo0Vo+w2SgHd4IhMibvBYlAiRIJmc88Kbp9CZzNYLIa4RZTjWC709QhSGYhZT1SeV7Ho2EBJWAQrRtljnJTgJbkAX0bYDQAgF+xigZMeI+CKXOAXa6M3p3u7ZQf7QMDjBGSX7thdNnjryz9cwmBKL3ywUV61oaDCWK5b6y447G2yrk8wMGozXmDsixoc1RC+XSRWXNOHd0g477JynJ1oinjswOyoxjr0QKiLXZ+du4RfdVAKwbILRohuTzyGdRcctf4gFxyRgfOeITCpXHjxtSY6K666908Tf7dwBgiQlEDslkzVR7+r7v3T/IWBlh1P3FrV0WEgtMqFaQdIkkL2htuwqqOTdh/kghM4cMkDBJzLBdnbtxcEUl66+mtv/PLBJhCYWQJbio+v219M9MGDe0aAXCCC9cgx7BnhvMUHueCcD1ydLgEncqG06z+pdEb2m1c98lMHI0BgZgmka94gOnC072/PURcrOr8gntQZxjy2I2XfiNpuPz90NkydAOxI6UpDD3LBFUqQxn0CjuTC8cffRSSnCtX6cY0p/AkEyEiAs0fOTOGV/GLQ4rygrNbJQuZp1acCAgJ2qOBTIIejLRaS3j7YoToREBCQVn3K2wVN0z6su+B+HIKcpCDgSC4kZEjWS0un+fuB7EBgxgkU3RhYlsgd913P8cHvgkJ+UHjjMyfuFbc/Xp0hCY2K2fX6JSfJ4JL3COx6/VJoVMzqDElx+2PvleIpyyAXSBHywEn3CdiVC5sOqVcJXvTUrwjsAIEZJFDy/qCo5q1xDgjV+sQX9o87afdP6YVb0ZvT6ay4iUbspoeTHiEgqnmLzoqL3pwuvXDLIwZ9YATkgvtxCHKSgsBEuZCpawxflXTk13/1wQ8MigACM0JgydLlh1rvu1503tu3V2dIAqmLU/PLim4MuJ4RUk6JQNGNgdT8skDq4tUZkry3b08p74wnBrlAipAHTrpPYJxcyP1px3PUxUU3oUGc+SHbGW/+yOtA+d0vMzRvOvJfdLyBnbbb0VUn5xWdhi0lx0Mio5clcoVqffndL50khkuuEyi/+6VQrV+WyA2JjN5SfFzRaXA9r/+kBLngfhyCnKQgQJQLJb/4/PngkJzGdv/5BYInQGCqBPb/5BdUOkNQVusoY8kvPi94966jq66cl56/tVZymBoazkzZsL28DuS1K9Ampim6ObC9vI6ZsoEaGr5Wcjj3PGnGHSbWRWcYA7lAipAHTrpPwCIXjn36f5bGr8nQOnwns/sLgZNAwK8IbC+vo4aG5/zYR5JXeuFWqqyMvpK9ZOlyDnoQPX1Z9ZF5v+apfy7oVyS95Izqo6fo6csc9OCSpcvpK9mpsjISzU5wzgTkgvtxCHKSgoBFLrDTdvMOqJz/HuAqEPBzArvr37Ws0uhLV4vbH2ccb4hP30ulh4euiE1BD7z42oWS963fbfrSGX8rq+T9wRdfu5CCHghdEUulh8en78043kCKjx2mRBLkAilCHjjpPgGjXNhQUB4v3DOl3wYkBgJAwC6Bw9f7MnWNKVkFYdHxCylBkev4qfllWSebi5x+t2nXFElPFt34LOtkc2p+WeQ6/kJKUFh0fEpWQaau8fD1PpLWyBW3QS64H4cgJykIIAiSfuyNpavXaj5zYWMb6F8FAv5HIPOHPz5w+Z4rDbrv01R9/AdpU1da1akksTQ8Ljlg/nw6K46dtntz4bGsk+8car2vfvDM9155sET1g2eHWu9nnXxnc+ExdtpuOisuYP788LjkJLE0reqUtKmr6uM/eLA4fzYFcoEUIQ+cdJ8AgiDP0+gknYrsz20H+OYbAutyipeuXlvY9qlviptmKZqBbwrbPt1z5sq20leTxHnMlA1BIWGB1EXhq5JWCcTr80rTqk/vOXPlYMs95e3faAe+mWZxnsquHfhGefs3B1vu7TlzJa369Pq80lUCcfiqpEDqoqCQMGbKhiRx3rbSV/ecuVLY9qnGb9z2VPVdtANywf04BDn9n8AXX3yBIMismWrk4q8aks0OAoqOoeVrNqWgB2o+/57UNarq+eNLVz+RvHkt/ehZ3oHKBNG+yHX8kKiYwKBFC5+n0pisiKT1sVszk3fJUvPLtpW+kq55I+tEs+Tc9by3b8uv9BbdfFTa9aTiw99W3//qaN/X2kff1gzZB1Iz9L320bdH+76uvv9VxYe/Le16UnTzkfxKb97btyXnrmedaE7XvLGt9JXU/LLkXbLYrZkRSetpTNbC56mBQYtComIi1/ETRPt4ByrTj56VvHntpaufVPX8kdTkPes8yAX/D3ngoZsEvv3226SkJMtUR8/+csAaEPABgfSjZ31QygwWUf3gmeLWFwdb7uU03tz1+qWdR85sKalJlSlTdh+IF+6J3rRz+ZpNS+M5dFZccETUojAGZUlIYNCiBYGUeQsWBMybh5j/C5g3b96CBQsCKYFBiyhLQhaFMYIjouisuKXxnOVrNkVv2hkv3JOy+0CqTLmlpGbnkTO7Xr+U03jzYMs9xa0vqkk+XOKz2wdywc1QBNn8n4BYLD5+/DjIBZ+1JlAQEAACs5gAyAX/j3rgoTsEysrKpFLpv/71L5ALs7j9mn1Vq7z3+9htLxz79P+ffVWDGpGdAMgFd0IR5PFzAm+88camTZv+53/+B+QC2VuoOeV/3sWuJUsjt5TUzKlaQ2XJQgDkgp8HPnBvygRu3ry5bNmy3/3ud8ac0LtAlsZojvsprD5NWUzLfvPqHOcA1fdbAiAXphyNIIM/E3j06NFzzz338ccfW5wEueC3rQ84No7Ayx/857gz8CcQ8B8CIBcsYQUOSE/gb3/7W1xc3M9+9jNiTUAu+E9zA55MJKB99O3Ek3AGCPghAZALxMgCx+QmkJGR8dprr42rA8gFP2x3wCUjAXHtxeRdMqABBEhBAOTCuOACf5KVQHFx8cGDByd6D3KBFC3RHHQyVaYMX5V06L0Hc7DuUGUyEgC5MDG+wBnyETh16tS2bdvs+g1ygYwN06z3ecX6bUkvSjUDsI/J2Ky/17OmgiAX7IYYOEkmAlevXl2xYsWf/vQnu06DXJg1rdVsqoiiY2g2VQfqMhcIgFywG2LgJGkI/PrXvw4ICPjkk08ceQxyYS40ZFBHIAAEvE0A5IKjKAPnSUDg2bNnK1eufO+995z4CnLB240I2HeFgPrBM3YauvPoj1xJDGmAgB8SALngJNDAJX8nsH379pMnTzr3EuSCH7Y7c82l/HfuhkRGbzp8ZK5VHOo7mwiAXHAea+Cq/xI4dOhQUVHRpP6BXJhNDRYZ61L8/uOFlKA9+p+T0XnwGQhYCIBcmDTcQAJ/JFBbW7tz505XPAO5YPm1w8FMESj5xeBMFQ3lAgFPEQC54ErEgTT+RaClpSU2Nvavf/2rK26BXPBUYwF2pkSg6ObAlNJDYiDg5wRALrgScSCNHxHo7e1duHDhZ5995qJPIBf8vA2ale7trn93/sLAgp/9albWDio1NwmAXHAx6EAyvyDw9OlTJpN548YN170BuTA3m7YZrPXGg1V0VtyBlnsz6AMUDQQ8TgDkgutxB1LOMIF//vOffD7/Rz/60ZT8ALng8VYDDDohkHXyndUZ2Ud+/VcnaeASECAjAZALUwo9kHgmCchkstLS0ql6AHKBjA2Tn/us6R3RDLq2enHfiPohrPTsGisDJPNrAiAXphp9IP3MENDpdC+++KIbZYNc8PPQO/Pu9XYLj3SrpxCrhkUbBaIum5b9oIOhB6VWgEi7Z76OU6idTb3AcyBgIQBywY0ABFl8TeDSpUsJCQmjo6NuFAxywfJrn8MHI3KtRnR5hECAcKargbWxQWkJqIOj6t4J/QGDo4ROAhu5cLTv6wTRvpUb0472fU2wb0o/Xi70jagHrPFYfbmBr+1WEzoqJp4h2LRmhJNAwPcEQC64EYAgi08JfPjhh0FBQUNDQ+6VCnLB982Kf5U4OJIr5cRU9Fv7D8adMcsFmRRJlKqYbA6DzaKyVbKHxvA8IlcKwlgcRgInLHk/inUqmOVCV8PSRFVIdDzvgMp60jCmrN/PiGAzEjiMtfv5OebehYc9glR2WAKHwWYzxS1Kk0QYLdGKGNnXKq2KYeIZUAlAwC8IgFxwLwZBLh8R+PLLL3/wgx90dHS4XR7IBf8K3paXeN8cDD6VZPNitEMaS3ETzxDkAk3ebUyp1ApoxT06w5jmnJyKXjNJjbZaZrK+hCAXlizbJjzRjBM2a4h2PTNWYZIaA0PCjQg+GDEqyWZzz5u6N5RaQZiy33JflPX7mYIGs4DAAsPEM5bEcAAEZooAyAW3wxBk9DqBf/zjH6mpqW+99dZ0SgK5MFONi1+UO64jwTCmm3iGIBe4F82vcV0NrPQWtWFMJkW4580nTZrDrAzMGfGamk4qtQKWdthSd/NgRDcXQQWNHbnGf68qGNbhD2N3QovSOkgx8cw4B+BPIDADBEAuTCcSQV7vEti3b19lZeU0ywC5YAldc/VgRFbAYxX3WAcjDLZnzFEfUwZEuYBH9IlyoaSja+eGrdhUR3PGcXKBUUHoOTBNdezmIiL+ObNcaOzIbR7GuzFGCitEDGkHYfrCxDMzEBjm6qMCqJ0RALkwzWAE2b1F4OjRoyiKTt86yAVo+nWGEblWJTj/lICCcMYc9e3KBXwwosUYzjVXa0OjpAuDguJZsZhc6LvGocslxikOXQ0sBP9cAh+MyO3Fm92HPfxkwmBEo2kwovCIKEY7pDOMVV7U87VEHWPnDMFnZ005JAMC3iYAcmH68QgseJ7A+fPn16xZ8/3330/fNMgFbzcipLfvVC5gUkMpwqc6sp8PTw5isPKbL1s+pMRmNdJZ2KzGdBU31fR1pbJezozAT65VCOSWqY79wnR2GDaPkjjVERQAECANAZAL049HYMHDBP793/+dRqM9efLEI3ZBLpA+nFtmKc70QdyOXdW9fwKeQGBuEgC54JGQBEY8RuDJkyc0Gu327duesghyYW42bVBrIAAEPEsA5IKnohLY8QCB77//nsPhnD9/3gO2zCZALni2yZhr1oTVp+dalWe2vtpH31b1/KG060lh26cHLn8kvfCB5Nx19PRlcW2TqKYx/ejZtKpT28vrtilf3fryD7coaraU1GxR1Gx9+YfblK9uL69LqzqVfvSsqKZRXNuEnr4sOXddeuGDA5c/Kmz7tLTrSVXPH7SPvp3ZCpK3dJAL5qgC/+8HBFAUPXbsmGcdAblA3uZpZj3XPvo2SZwXxd3y8gf/ObOezKbS1Q+eFbc/zmvqyjrRnFZZzzugSt6VF8PPWJbIpS1fSVlCQxDkucXBS5ZF/iA2gZmyYSVvR9z2XQmZOSnogXU5Ramyso3yqs2Hj24pPr5Vodv28ivbSl/Z9vIrWxW6LcXHNx8+ulFelSorW5dTlIIeSMjMidu+ayVvBzNlww9iE5Ysi3xucTCCIJQlNNrylcsSuTH8jORdebwDqrTK+qwTzXlNXcXtj9UPns0m4B6sC8gFz8YmsOY+AZVKlZOT435+BzlBLniwvZg7pl76t4fhccnr80rnTpU9W9Pjg98pOob2/+T9dM2bG/LL43ZkMeI5zweHLqQEha5YtSJVkPSidOPBKqFav7v+XWnTB4ev95X/8r+O9f/Ns27YtXas/2/lv/yvw9f7pE0f7K5/V6jWbzxYlfSidEWqIHTFqoWUoOeDQxnxnLgdWRvyy9M1b+7/yfuKjqHjg9/ZtTZ3ToJccBBk4LRvCTQ0NKSmpv7jH//weLEgF+ZOc+bBmpZ0fP7iaxc8aHDWmyr5xed7z763VaFbnZ4dHps4f8FCGpMVvUnI3V+y88iZfW/dKLrx2ZFP/kIKDkc++UvRjc/2vXVj55Ez3P0l0ZuENCZr/oKF4bGJq9Oztyp0e8++V/KLz0lRFw86CXLB4+EJDE6ZQEdHR3h4+JdffjnlnC5kALngwfYCTAEBCwFFp2H3qZ9tKKiI4m59btESWsSKuO27+MXavT9qLX7/cc3Q95aUs+OgZuj74vcf7/1RK79YG7d9F4254rlFS6K4WzcUVOw+9TNFp2F2VNNJLUAuuBBwIIk3CQwNDQUFBf3qV7/yUiEgF5z8/uESkUBp15P0Y2eJZ+B4HIHDV3+dfuyN1RnZixnMxQxm/M49aVX1+e/80nY3TtIsJDCudlP982jf1/nv/DKtqj5+5x4jkNUZ2enH3jh89ddTNUWK9CAXvBSkwKxLBEZHRxMSEpqbm11K7VYikAukaIlm3EnJuevPLwlJq6qfcU/8zYGKD3+bdaI5SZy3ODwidMWqtZLD6OnL5Xe/9Dc/Z9yf8rtfoqcvr5UcDl2xanF4RJI4L+tEc8WHv51xxzzlAMgFt0IQZPIQgRdeeEGn03nImH0zIBc81VjMYjtbX/7hEgZTeuGDWVzHqVbt5Q/+Q6jWr0gVLHjuebYQffG1C+W/BIngasdJ+S+/fPG1C2whuuC551ekCoRq/csf/MdUb4G/pQe5YD/GwFkfECgtLc3Pz/d2QSAX/K3R8UN/0NOXVR/9zg8d871L6gd/fuGHP2Ft2E5ZErJm76Hcn3b43odZVmLuTzvW7D1EWRLC2rD9hR/+RP3gzyStIMgFb0crsG+fwI9+9CM+n//Pf/7T/mXPnQW5QNK2Cdz2MQH5ld61+woXPEeJT9+b89ZNH5c+F4rLeetmfPreBc9R1u4rlF/pJV2VQS54Li6BJZcJtLW1MZnM3//+9y7ncD8hyAXStUq+cThd88aBn/3KN2X5eSm5P+2M3frCkqXLt5fXVfd+5efekt296t6vtpfXLVm6PHbrC7k/7SRRdUAuuB+HIKd7BD777LMFCxb09va6l32quUAukKg98pmrnD1yJoc3Bz+dH0e44N0PY7dmhkXHi+veHncJ/vQ2AXHd22HR8bFbMwve/dDbZXnEPsiFqUYfSD8tAn/9619jY2N//vOfT8vKVDKDXPBISzFrjBTd+GxZwrp1+4pmTY3cq4j64Z+5uQpqaPgLP/yJexYgl0cIvPDDn1BDw7m5CvVDf5/TAHJhKpEH0k6bgFAorKurm7aZKRgAueCRRm02GcmsaZxN1XGjLrk/7QiJiuHmKmBhYzfoeTzL8cHvuLmKkKgYP59YCnJhCoEHkk6TQGFh4aFDh6ZpZKrZQS54vHUDg6QmkKF587lFS/Y1tJG6FrPP+X0Nbc8tWpKhedNvqwZyYarRB9K7SeDkyZM7duxwM/M0soFc8NvWx2eOlf/yy5WbhEf7fLF9kc8q5V5BaVX1dFacd9cAGBzVDLq6PoF7tZituV7+4D/orDi/XSsM5MI0AhFkdZnAe++9t3LlymfPnrmcw2MJQS7M1rbVxXrt/8kvqHSGoKzWxfSzOBl6uiV4WWTF3f/2QB3v9ec2D2sMRFnwtLCxRzkwmpsTTCnonm4RfcOyxo5c8z9Z1+g0DcqKOYn1w0Qjmq5uk9mBEXXvdO0TLU/nuOLufwcvi0RPt0zHiJfyglzwWFgCQ44IPHz4MCAgoK+vz1ECr54HueCltoMUZreX11FDw3N+3E4Kb73qpPrBn6l0RsG7dz1TSt81DiKX9BHkwmUNLVlfYhjT3e0vvEs4byMpXD7f1cCKFHHkKh7+T3hxZJpuy6QIS2sjF5RagenMRQWysUHpnp9eyFXw7l0qneGHqzmBXPBqqALj//rTn/4UFRV19erVmWIBcmGa7SzZs5d1/xfZq+DE/y0lNft/8n7lx39wksZ4aU32S2uyX5o0mcsJRiXZwey6p5b0MqnpT/VFvSW6q1ub+MZ432jsihiSHNbLeo2iYUR2RCVqNb3WK89pRM0ETdDVwJoYwgdHSvR6XEDo0XZrYs2dblExJiz42m7lgFWRmEvHEuc6kgu93cJMHoJLE5PbgyPyOo2xlNw7JvdK6lVo29PcKhU3R8HXdlcOjunudouK5RxUJTRVzVquhYnbB56+WZ7xDeTCTEWxuVLutm3bTp8+PYO1BbngdptF3oyaz/ylb9nbDPnF2uhNQspiWmhUbOKLuenH3pBf6bH7vQN9xaqCdz26LNVlDS2tqdL4et13jUNDUVwHWN7alToRda0KbRtWd3YLM9lhBd0aAyYyOGfxu4NlCaZKjcMWw6KNAlEXIarZkQtP0UxGWKZe1jlc2KhPjGXE1OG9Ba21DDqPp+9Xdvb8P/a+BKypK+3/uhJESNiMgEhkC6tRUgg1YIAYAiJG1oTNWAKJxgAxYIBoC7UoiorWBVqk0GKlWC0IVbQuUG3BBYQ6HTrdPjvOtHQbbJ2WmXmm36f//01ICGQhhGzA8eFpb859z3ve93dyz/vLOeeeNyadYIHNTRXPeXBFVIR7MvloNxdunWTnrmJ2oWsgNYcG+XBijjaL1yYGqES0U3o969Igu7rc1x1LqIGtTWVACFsqsbpvxJf4XBwJdo3bVIVzR2LLRmmTTno8vfaqrYuHTlTpUAmgC0YMZDO/6c2bN7PZbOP6CeiCDseLaaEqSvSq33rGtDBVh0ay3+vd8PLrAUnZDj6r58yd6+Qf9FzKto1ltZwLn0haMUfaFPf9psMWRb0dROeRGC88zLSIb5RsZZDShXYCihZzXcoAetvxYj4BS4opgrCCic4U4tyFzP5hUWc9VrKQIZvbl1+MyG8X9A+LGoQo/xKWbBNlU4mTs5DZP0ijIHEVspmGwQQaEls2KOrvIDoTSE3S1vv7yP4q6EL/sEh+MaImFyHjQOJbCEq9QEwXRqdSOuuxEG5U+QkOJJbRIbbFfb8tQtroUKFOVAG6YNxYNpNbf/HFFyMjI43uIaALOhkppouSgKQsB5/VrKbb08VgfdgpvPs4442rZEG5d2TCYnsHMwtL3CbmIp3Thf5hNp/gxO8TSWL24ZEZnRG60FaJgdB2Pji09A+FQhNqhkVdjTg4zA+nMgikpqEEGhx3YeqQ0z0GirZKTGAJq3NQAP/BmrmFJGhkKkJCAtrxEInaJvmvjBZIxeDWOaky8iGO95rsXYBbscXKbEZjMQjb3FRxdXy1rJWxjSqZCJFJanlR3PebOaALCsEDUigBBTMBgTfeeAOLxf70009GdwbQhTGjsNwAOvPKnVevwdE26/g39DRETD59EY62ef5Cs8DU7bpfjOgfFp0rd/IpYV2vwjoLmdLf/SN0QbwXknZFEu9H/it+wVJMEc50EP1h0iAoo2EKB8TUYWxkVYjBwgomRBuZwIC/uiN7LbtJPnI/9PuHWTk4mHmM34k5lEDTaHZB3Ep93ghNGSUrqQzIkHQBLEYoDRyALiiFZXoX3rhxw8zM7N69e6bgBqALM48WqPJoq3TiXZXADC7PbOxal7/fgxRjttjKh5oo8TSmpHoBwjzpKJxeUj+75x7GRGB8Y2io7A4ZttLFiKGEeLRbYZ9khUJwlINyH6EUMEWg0JwyxVU667HBNKyYOsg0wBcKdAFmACgSqUG87tA7SGdgUYx2oXiGA0Wrl+xwFLZUuqEk6yPwJgk7RrNATGIEDSUYSC1dCJS+GdHViLOlUlvEMyW9g/QkjJ3YNQPTBf101lhCNnkeDBYjTCGizSgbvv76awcHh3PnzpmIV4AujBmFJz9GgOomiwD7fK/MNmbDh/hkdtyB07K3JEjbS6yXub7w9i2JjI5fpJR+kfJKaRBEIJ8bDUVSujAsutVNjcFZOOLQWAzKn0mT7WSE1/6R0h/rA9RgSJ5tjHikSBf6h4UtVb5YpAUAuF1/AAAgAElEQVQGh0KhnWhVbMlLEL2DqVySBQqDxqARjlSS7PUKcesIWywag0HH1FOTVNOFrg5SIBqS8gnBmUpfLBqFxaEdMU60eq6YcBiSLoAXKVXFDjC7oAqZaVn+v//7v8HBwQcPHjQd6wFdkEWUmXeRd/0b97XRZEH5zHNNlUfb2v60/qWTfjEMK7ST9TJXVWJ4Osd59ZqcD76SF9DlMU1SuiCvX/l175BQ7uVG5TKaa4OXIYbGHg8lYSpDQvlDIGQK72p7xKTyVkZZkQ4ckRkpdwGOaVITOwBdUAPO9LvFYDB4PJ5J2Q3ogp7GNaOrTalus1rqHMIuNrol+jaAd/kL+Sb81jPWv3RyW+uf5Atl14X3fsFGbPSmxBffV/IehCEOgZYLfjKrwIUmCIBDoNXHDkAX1OMz5u5nn31WUVERGbNx2QpXM4Q5BEFmCPNlK1wjYzZWVFR89tlnY6QN/qGoqGjDhg0Gb3aCBgFd0GScmnYy7PfuIyxR8Ycap4vlwluDAg1/ZPcOCToHhf3DcRWn8clsO1fvRdZ2WWfvaOLp9kt/cVoZFJi6XY0wSDGlBhwj3gIppiYYyp89A3RhQohggYsXL4ZGUGyWOgancOIPvr219YHw9j9E/cPC2//Y2vog/uDbwSkcm6WOoRGUixcvaqRR10LV1dV+fn6//vqrrhVPVR+gC0YcAfXa9LY25T+v9dqoVPlgar7sdEKNJqjHLn4rr5L/0WDWu3fhXX7ilwA9SDHr8vdnNnZJG1VeS3aX+VYH0mF5eO4rshJVFyCBtSpkjFIOElhrOMoDujABUIODg5sSk52xvhvLaif8Km8sq3XG+tISkwcHByfQq9Pbly9ftrS0/OSTT3SqVTfKAF2Y8GszjQReePsjg1nLrRCSKsZkUZIrGX8KobBzUCEN45B84iI1dIFx8sLzL+Q7rQyat9BsnfCQjC6MeNo7JLg1cqQB/AuhrZGUXT+yy0887S8pidzfOG/BwthXTmmIj+DWd3g6x8JmSfSuYxpWAWL6QCB61zELmyV4Okdw6zt96NehTvBmhG5ikp60XL9+3X6pY+gkV2dD2cX2Sx2vX7+uJ6vGqf3LX/5ia2t74cKFceUm8hHQBR2OF8ZVFVNSBc2Zk3ZKR0mS1C2xD7ELqej4Rjg1wIjYuBIpXajmQDEcwmr4MCKULY4gzYTELUt2wsCFdhgSqQ5+909KF+CKka2/p9Vclhw9hCkcIAvKQxk0jPNS+FAjLME3myM9YmiQySXZSfT4J8veLBCc4KCJJaxbMtuGBSc4ZtYeUZXvS60dvaW+JL32A/fQKDtXr5jS19RLgrs6RyCm9DU7Vy/30Kj02g90rlwfCgFdMJGgpsSMixcvQhAUf/CMFh0ff/AMBEEGWJj417/+hcfjX331VSUOmEYRoAtafH9MsEpgKneJh9+W0zf1b9sgK4fqlD7yyr64OcUSObrgnJsq2ZQAn1ssPtL4XLmT7LjiW404WzhzYyoD8trZEZbDt0PazF1g5kXeJKMLIviIYix+hGoMsfkkSLwYITzMtEtqhs8/lpxD4F7CklIcQZ0Q45+bKscYeFX8cSWaA0U/3uIeGm21dFkYr3RH5981rwgktUBgR+ffw3ilVkuXuYdG04+3aKHBWFUAXTCNmKZgxf379xciEMnHm7X+ZiQfb16IQNy/f19Bty4L4uPjd+zYoUuNutYF6ILWXyHTqbix7A2/9Qzh3ccGMWncRMKwqF+xRI4ujJ5MPEANhNMsjR480D+c2fixxOZUBuRd9FFQOnM11o/8zkiOgxFJ+MBj6TFBEmYgpgupDAib00w/KvmrwvuMJmGSTDAwR1I7wnxCsWSyWDHf6lydyJpvhvCixCUdgU92An+6RSDpyLtelLj5ZojViSz5kzd124r+tAG6oOvopCN9fqvx0buPT7Hjo3cf91uN15FFStQIBIL4+HglN0ypCNCFKX6LZmd1rojqFDVyRI8EgbElKuiCOK0iIzPQhrLbixK3yNrOztVbUl1+MUKWenGULviMzhzI9i6kMiC37EYpXWimH23nio8WyKtgoomV8tsXFEu07jXBze+idx3DBIUhrKxXxW2hT+EXi9Y2zLCK9OPNq+K2IKysMUFh0buOCW6a+h4FVfgDumBKkU1qy8svvxwQQ1fVZ5MqD4ihv/zyy1LFuvz/sWPHAgIChoeHdalUD7oAXZjUF8akhDPqrhnRHm6FkFjaLX8ikFzJeLogPgVBWniu3MJmNam0Fj4vobNethghPscQPhp5JINiL3ygoTjvkXgx4oRkymGQmUkYsxgh2T/RVO5GrGT3Dwub6onZjZKjBiXgKJboBLStrQ/IgnKXQNJ8M3Msmbb+pZPjjn/QSSszVQnv8hfrXzqJJdPmm5m7BJLIgv1bWx9Md2cBXdBDgJqaysePHy9EIHT13dra+mAhAvH48eOpGTW+dmtrq42NjdFPehhvlrLPgC5Mx0Fqx4ffYiM2uoVQ8z/63iTtH2EGG7eEQ66R1s6uVminzMbzVPHsArwpoYzphIETG9phqGO3Og6L2upHzhjG0ghJpJE0iW31OH8MfPAwloDPyZVtdWTxaYpbHQ0MSM4HX8XuqfGLSbFc4mjj4rE6IZO2r453ZczJUQY2yTSb4135gravbnVCpo2Lh+USR7+YlNg9NeMO1jRNyzW0CtAFZRHGqGUVFRWB8UwN+08TscB4ZkVFhQ59evDggaWlZXt7uw516k8VoAuafEm0linq/Wdhz6+F934p7Pm1qPefWuuRr5h26rK1s+uazAL5QhO5zrvxTeY7owcheFPiqUVHss/3mIh5+jYj88zHlJ0HvSPjLdFOlmgnr3WbIvhlaacuF3T9qO+mTVB/QdePaacuR/DLvNZtkgDiHRlP2Xkw88zIhhUTtHkqJgG6oL84paVmv9XPpdW0T6VTx9VNq2n3W/2cltYoVHvy5Im/v39VVZXCHRMtAHRh3PdB/ce869+wmm4zTl6IfeUUWVC+hrUzIJHlQ010XUNZhgte4uFn7ey62N7BHGm90Nxi3oKFc+bOg+bMgSAImjNnztx58xYsXGhuYY60XmzvYO3susTDbxku2HUNxYeaGJDIWsPaSRaUx75yinHyAqvpdt71b5QaE5Ses6n8TaW3jFWYeORsUBpvqRfOzMJqXf5+Y5lhUu1yWvo37n0jKD1nOT7UbLEVytHFM2wDMbsw7kBD9vmemZdGvLjvt+zzPXEHGojZhZ5hG1COLmaLrZbjQ4PSczbufYPT0m9SvaMPYwBdMK0gNzg4uBhlrfOeXoyy1tXBTbGxsYWFhaaFmlprAF1Q+nUqvPs46917CYcbI/h7A5KyXIkUO1evhYssEJZIO1dvDCHcdz09KI0XxiuN3nUsruJ0SnXbloYP2e/d397+Ob/jUUHXj4U9vyrX3PNrQdeP/I5H29s/Z793f0vDhynVbXEVp6N3HQvjlQal8XzX0zGEcDtXb4QlcuEiCztXLzciJSApK4K/N+FwY9a79woN9AaEup3/wjtDjJMXZA5Sdh4My3mZ+eZommbZLXAhQYD93v24itOhHJE3JX6Ju++8+QtQThjX58n4ZPa6/P2JR85mnb1jqktL478J+R99n3X2TuKRs+vy9+OT2a7Pk1FOmHkLFizx8PWmxIdyRHEVp9nv3Z9tXQ/ogtpQY/CbFy9e9Aml6Pxb6BOqm8OheTwenU43OCpTahDQBcnXiXfly+RXz5N4JT7URHt33zlz59m4uHusjQ5Kz4kqPso42br1wieGelNxdHQW3n289cInjJOtUcVHg9JzPNZG27i4z5k7z97d14eaSOKVJL96nnflS50/EaoUpp26HMoRLceHQhDkGbZBlRgonxCBot4nnOa+5GPnKcJDQWk8z/BYtBfOHGmzALHIxsXDJZDkt54RvJlPFpRvLKtlVLVmvtPFu/z5zu6fJtQ8dYGd3T/xLn+e+U4Xo6p1Y1ktWVAevJnvt57hEkiycfFYgFhkjrRBe+E8w2OD0ngU4aHkY+c5zX1FvU+m3vS01gDowpRCkc4rHz9+PDiFo/OvVHAK5/jx41O09tChQ8HBwX/88ccU9Ri4+mymC1tOf0gpqPCJSkItW2FuZb0iOCJ4yw7avnrTX2vPPt9D21cfvGXHiuAIcytr1LIVPlFJlIKKLac/1PnTsVluzoDVdHtNZj7j5AXh3dFzl3Xe4mxWKLj5bfa5npSqttg9NRF5ZYSMXP8NKW7ESAdfPGrZCoQVCs6cZ4m0cnC2d/dxWhm0ghDuGbbBJyppJS0jICkrMHV7MJO/JrMgJLsolCNau3X32m27127dHcoRhWQXrcksCGbyA1O3ByRlraRl+EQleYZtWEEId1oZZO/uY+XgbGaJhCAIYYVCLVvh4It3I0b6b0ghZORG5JXF7qlJqWrLPtcjuPntbO4gNb4DumDg4DVBc3v27AlhF6npMO1uhbCL9uzZM0Hbam+fP39+6dKlX331lVopU7w52+gCu7mPWlSJJdPMkTb2bj4BiVkby2q3vf+pdt8cE6m17f1PN5bVBiRm2bv5mCNtsGQataiS3dyntXmspm6yoNyDtN7MwnKp1yqt9YCKOkeg8N4v/I6/bmv7lNV0O6PuGuNka8Lhd2j76mJKqqjFRykFFRH8vWG80rXcF0O37grhFIewi0M4xaFbd63lvhjGK43g76UUVFCLj8aUVNH21SUcfodxsjWj7hqr6fa2tk/5HX8tvPeLzm2eJQoBXTCtCGeadKGnpweBQBgsCYVuu2SW0IXNb95Yk1mwxNN/sb3DSlrGpvI3+R2PZuQoxu94tKn8zZW0jMX2Dks8/ddkFmx+84YWnuKT2XEVp/k3/qpFXVAFIDALEQB0QbexaaraTHAx4ueff8ZisbW1tVP1zUj1ZzZdYJ/vDeWI7Fy9bVdg17B2GiSlwujOA6OPmFtO31zD2mm7Amvn6h3KEbHP9xrdJGAAQGCmIgDogpGCmIpmTXCrI5VK3b17twp7p0HxTKULcQca3EKoi1C2QWm8F84YLq2zaQ6FL5z5KCiNtwhl6xZCjTvQYJpGAqsAAtMaAUAXTCvgmdqLlBwOJyMjw7QwmqQ1M40u9P1OLaq0W+G+1MM3ePOO1KaH8qcUKw5Gqdk4Ys1k5wOGBJ2DwtHczSPVhW3tivkLFFvUtORSva+PMHVsHqO8pmbWdbg5YeegQJLmcazAhMpp++qX40PsXL2oRZWi/t8nlAcCAAGAgIYIALowyeCjf3HTOaZp3759oaGh+vdYvy3MJLoQvfu4tbOr59rnfZxsMIzKhNISLBZpl96uhjFIMxtNijG046HR5IeyoYRbSEIRmQRmrvivPFUuHaJMZhIXbZXSo45HbZNaCydTEGdYGL01Cc39wxl11zzDY62dXaeep21S7QJhgMAMRgDQBf3GKi20m8gh0I2NjcuXL3/06JEWLphUlZlBF9JqLjuvXoMhhGfUXRNWMCFa4whFuN5MZlaxJD/E7w7Q+eJYnl0lS20sDcBw3BU0VBHFwZ58dEDGMISXmsniQmJphwCeURhMzU92gjBu8bmE/HaB3I97+bzMsjFReKmdmg03Sixs58rNBwjO1UvUksv7xGrFgV9qISzcopIusMuYbs6QU1QugVnPFhugYOSwqL+PxqxnXWkmMzn4JCG15qGofzivppJIY+KY5fRL8GuQGXXXMIRw59Vr0mouywwGFwABgIB2CAC6YFKhDTbGFFJMdXd3z5079+bNmyaHzuQNmgF0gZglNEfZxO6pGXnIqzkIfyHz1thf3l3tBHesL7+d3TnAKs91sqVKsiTL6AJXRLVYnUtrGhC0tJOjsJI5CWFNrp17Mrm6T3CpOyYJZ0Gs5PYPcWtKsBAO/2IzvWaUVcBpkwql+ZBkHKKhBG1LIJR3c1s6YtIJFtjcVEmG5fJkC7FablMzOQprQari9g+LYAuRTulVzBbYQgwWi4I44xYjJNbmNVXhfSBsTjP9aHde/7C8kbR0gtjIYVF/Ox5CWpCEqS2D7OpyX3csLp3pll7PujTAKmXaoWg08aKGqH84dk+NOcqGmCXUbogEtQACAAEJAoAuTD7+6L+GcRNYDw4Ourq6NjQ06N9RQ7QwrelC7tWv3YiRXuRNY4+OGWRyqShbjBMll3p05Lc7V0RFZY4eUQwvHGTDH6V0oZ2AosVII6iotx2PotE6B2kUJO6w9Dyi3m4as4R+SRKJJ1iMIFcPivrF1SskaZfhaYkEGhJbNijq7yA6E0hNUjbT203yxxAbhgVlNAStUTZdITzMRKigC6J++cWIASoRQ6yTaoNvwdrEdGHUI0EZDfIpYUl5DD0JElsyUktw81sv8iY3YmTu1a/B0A8QAAhohwCgC4aIWFq04bcaP/Vl1+jdx/1W4yfbenh4+BTPdJpsi3qVn750gdPSb+/uG8IuVv5s3x2U/HZHwFMCMC1AOOLQPtI/DBoiVeXJ6AK8UQBtJ7vrg0Oh0IQa5XsUxJFYOV3A5HQLOgfhP3gWYXx1biEJYrSLFDYlpDIgTOGA5L+jviiIyZEbeboAzyLAmZ2lxtvZQm6lD8Wty01OVHOgYBgHiX4lEyH9wyHsYnt339mQCmgUZCkgoAQgMHUEAF3Qa6jSXvn9+/cXIhDJx5u17uPk480LEYj79+9P1ojh4eHJVjFl+WlKF3KvPbR391We/LBrUHBLNiXQLNmWyMrBOeV0jMRySUQXy4zMLnQ14iAm7Yo40kvuwu8+dBCdcaPTAP3wCxHi9xHG8wDJl1AhBneTfOSrD7NycOicbpG4rQTxqoS44lACDcJVDI3clQWwphK0RrML3SQfAqlhjOVSIydHF0T9w+vy99u7++Zegzc6gD+AAEBgUggAumC6ke7ixYsQBMUfPDOpHpUIxx88A0HQxYsXTdc9Q1k2TekCnAs4q1B511dzEO6cVMnehbZKDIoJx+Zz5U7uHLrkbYW7feRgJLYMDorSxYihhHi0W2GfZIej4CgH5S5k9g6zcgh2jGbJVkThmRInZ45484GGdGGYzSegaPWSHY7Clko3lGROYighHonhSjZODgtOcOwkas+VO6Go1BYx0bk7QKNhIPV04cRIRGfz5YxsKceM7Etox8tX12B2QQImMQvOPqwcWMAhAAIAAdUIALpgqKilVTvXr1+3X+oYqmo6WkW/hrKL7Zc6TtMzm7XCSV2l6UgXoncfdwlcqzqkDbL4NJQtBu2DRTlSSXUjuwfyTuRibOEVBztHjBu3Q7JLQEoXhkW3uqkxOAtHHBqLQfkzaW3iYNz7MIFBQIkLLbDJ1DMSVUPMHJIFBMlP7yvf6tg7mMolWaAwaAwa4Ugl1Uj3Mdzti4nBIWyxaEekhT8zRkIR+ofFFsIrCyhHEqm0RPWLlMPc8mQ0nGxIPH/Q+5DOJFnYYsf6qyVdEPUPuwSunfpKn+reAfMWAIGZiQCgC+oijSncGxwcpCUmO2N9N5bVTjhCbSyrdcb6bkpMHhwcNAXjTcGG6UgXbDGe6W98MGF3KxUQdknXKZSyyd4hodzrjlINQ8LRtQMtRjoV1ZW3NTyBhUrNhgtVtKJSXqUj6W98YLcCK/VdpRgQAAgABOQRAHTBFCLaxDZcvHgxNIJis9QxOIUTf/Dtra0PhLf/AR9+d/sfW1sfxB98OziFY7PUMTSCAhYgxqE57ehCxhtXl3qDHIn6jeJoLC6j7pr8UAiuAQIAAfUIALowLriY9MfPPvusoqIiMmbjshWuZghzODE8wnzZCtfImI0VFRWfffaZSVtvJOOmHV2g7Kx4jrFV/XML7k4RATydQ9l5cIpKQHWAwKxCANAFIwUxXTRr9M7ThRN61zEt6ML2S58lvXoujFfqG5Vks9z9OTqgC/qdXeA097Ob+2fVWA+cBQhMEQGjRxxI7+Fi5jZg9M6bFtCaIF0Q3Pouo+5qVPHRgKRs59VrzCyRVuhlbsTIYOaOjWW1hM15eDpnig82qK4eATC7oB4fcBcgoIiA0SMOoAvax1yjd572phuwpinQhax379H21a/JLHBfG410XL7QYrETjrA6ITOy8FDaqcv8zr/JP5kZddfQWJx8ych1l5ZJGpWomvz2QJNW0jukmD9TvcFoL7B3Qb/zN+rxB3enIwJGjziALmgfOY3eedqbbsCahqcLvMtf0I83h+e94heTgsaunDN3np2rl3dkwlrui4mVTdva/jThSGHn5j32zYihVCb8DuTkU1FrFBKEbe2pbWrfp5gyvdA6IbVSrMYaPERPQiLS25VKisRnT40jE+DNCBVYafRtAXVnLQJGjziALmgfOY3eedqbbsCa+qYLBR//sPnNjujdx59jbF3+XKg50maxvYPr82RCRu6Gl19/4cxHwruPJzu+KJy70I6HRvMjTFbbhPIKxzXqPGzIH+qsA+XjDb7SzbqiSq2SI6fAuQsTfiWAAEBAEQGjRxxAF7SPnEbvPO1NN2BNndMF9nv34w40ELPhwwGtl61YgDB39HsOt4m5ruBA6msX865/o/iYaVEid6qjJKM0wZeZCyd26mwn57dzz1QRk6okGZWUpYqeOLmzvEmy6CuoLief6GOWCvE0Jn4kC/ZgamEuTZYvqn+YVZZLlRzHJM1GTZDLl80uy6WdgfNo42hMAr9ZcuCjYkJqtTaX0OuaSdmNsgQQoq4OaqY0Sbd4nkNmsMQL2Gw45dWwqHeQWSokMHMJ/Ho2fOqlkmTc4FRH+a4H1wABzREwesQBdEH7yGn0ztPedAPWnCJdyL36NaOqlSzYtzI2fan36nkLFtq4eHiRaaEcUfzBM/rLVySXM0KSUZpGOtoMLxm0VWKcsU5EDrUCTu6cpzRVtMbJnSUjhSz6cgtJCBQOV9rNvdRNSycgxAdF55XSEPGNktOjRXCaCfE8h+p82QhbKrG6T5ImG0Gph40cm5Batc1YNJFGKm3ndnUQnUezUOaV0uSTbSqeLymzn5mNtYuvZ3cOMHOoCP9ytkIybpAzQvPYACQBAuMQMHrEAXRB+8hp9M7T3nQD1pwUXdh5++ctp2/GlFQFpm7HBIVZ2Nhb2CzBBIUFpm5f/1LVloYPd3b/PO4R0t9HuYyUcgcew0kiOKm9krl35amiJ5XcWT76wmmvR7Ngd5N8xKmiuxpxkrQU/cNw1ukIONGlmnzZWDhdpNg8ONcUjQansZBfjFBj82gaTDafgGBItiMMUIMJ5HNj1hpk/EDSkPTjII0C+cIZtIdF/Q9ZRzvEcxujixEgI6X+vqs61Fx47xd+x1+3tX3KarqdUXeNcbI14fA7tH11MSVV1OKjlIKKCP7eMF7pWu6LoVt3hXCKQ9jFIZzi0K271nJfDOOVRvD3UgoqqMVHY0qqaPvqEg6/wzjZmlF3jdV0e1vbp/yOvxbe+0WH1s4qVUaPOIAuaB85jd552ptuwJrq6QKn5ZP4g2dCOSIvMs3GxWPegoVLvVevjE0n79jHONmac/Vr4w4HuVe/diNGepGJq6AtqZIY3FaJkWVqVsgBLU0SLUcv+odFE6VfkobbYdmF2OvRGM/MxIhJAJynCncY3hQ5Qb5siamjGa5HValKbz0+IfX1KqwsdZaYoMh3xFg75cxuq8f5oy0wVHxhM1uSbUtsQ0Tjt17kTW7EyFxjd6i8F7PzWnDz2+xzPSlVbbF7aiLyyggZuf4bUtyIkQ6+eNSyFQgrOFMI/Gqxg7O9u4/TyqAVhHDPsA0+UUkraRkBSVmBqduDmfw1mQUh2UWhHNHarbvXbtu9duvuUI4oJLtoTWZBMJMfmLo9IClrJS3DJyrJM2zDCkK408oge3cfKwdnM0skBEEIKxRq2QoHX7wbMdJ/QwohIzciryx2T01KVVv2uR7BzW9nZ9dM6LXRIw6gC9pHTqN3nvamG7CmPF3Iu/5N6msXKQUVuE1MR7/n5iPMrZe5eoZvIGYXxh1oYL/XO+EDYxQBYhZ9PoR4fk8N3Lo8XVCRKnp86J0yXRDVCVHBldyuRpwznMdS1A/nqlaXL1sNXdDQ5n44rSW29KGUqWgyuzAiI7zVl8pPthOvpIj62zGQ1wIrG2KW0Ch9N2sbLep9wmnuSz52niI8FJTG8wyPRXvhzJE2CxCLbFw8XAJJfusZwZv5ZEH5xrJaRlVr5jtdvMuf7+z+yQCI7ez+iXf588x3uhhVrRvLasmC8uDNfL/1DJdAko2LxwLEInOkDdoL5xkeG5TGowgPJR87z2nuK+p9YgDbTLkJo0ccQBe0j5xG7zztTTdIzf/85z89PT0QBBEyclc8T15sv9QcZbP8udDnGFujdx/b/OaN/I9/MOWHU862dk8o1n71GgwhPGN/zujsgjimKkkVDf+kFudylITtqdOF/j6yPwHPoKGyO0asmiBftiRyyxYCxLMLIwmpVaS3Hmdz/zDMUSKSfd3F6blH+McIIVAxuzBADcbgT4gXI+424yBqUMU1DGHVYggZWHZZDswxzAOU6woBeAtwxelQjsibEr/E3Xfe/AUoJ4zr82R8Mntd/v7EI2ezzt7J/+h7XTWnVz35H32fdfZO4pGz6/L345PZrs+TUU6YefMXLHH39abEh3JEcRWn2e/d16sNJqjc6BEH0AXtI6fRO0970/VT86uvvmppadmzZ09ycrK3t/e8efNWrVoFQVB43iv04828y1+Y4BOomUkj4T9693FrB7tFNv5xsvRIylNF65wuDOeV0iBozB6CCfJlwwFeRhfGJqTWxGa4eh/ZH5LbSzEa5uEtmY44tA/851s2MMoe2up9sWgUFoe0W7rYfS3K2TV6d6XSZNyawT7aIpBXRIDT0r9x7xtB6TnL8aFmi61Qji7w6zziibrs8z3Ffb8pVpnWJcV9v2Wf75G9FYVycjFbbLUcHxqUnrNx7xv62/VsOqAZPeIAuqB95DR652lvui5q/vzzz52dnceOHWOz2c8//7ylpc9zRW0AACAASURBVCUGg9mwYUNxcfGZM2f+9Kc/PX369NmzZ/KLEabz4GlvSd/v1KJKO1ev5fgQ2r76ET0qUkVr38rYX/Nq9GibjXpYNKHN8FsYYwiKGjNkt2j76pevXmPr6kUtqhT1/S4rBxc6QSDzzMeUnQe9I+Mt0U6WaCevdZsi+GVppy4XdP2oE/3TS0lB149ppy5H8Mu81m2SAOIdGU/ZeTDzzMfTyxENrTV6xAF0QfvIafTO0970ydf8448/+vr6GhoahEJhdHS0s7MzCoUKCQnZtm3byZMnb9269fjxY6VaZxpdkAbyuAMNbiHURSjboDTeC2c+0vCBn0ZisrcwNLH5hTMfBaXxFqFs3UKocQcaNKkCZDREIOeDr2L31PjFpFgucbRx8VidkEnbV8e7Mn3n6vQ1acS78gVtX93qhEwbFw/LJY5+MSmxe2pyPvhKQ5xNX8zoEQfQBaUxTqNCo3eeRlZqK/Tw4cO2tra9e/empKT4+flBEOTv75+SkrJ37962traHDx9qqHim0gXJ4MI+3xvKEdm5etuuwK5h7dxy+qbpDzqaWfgwJgIpeQtDjfyW0zfXsHbarsDauXqHckTs8ya6WVWNCyZ7a2vrA7Kg3CWQNN/MHEumrX/p5HReztMXRVDVfbzLX6x/6SSWTJtvZu4SSCILyre2PlAlPF3KjR5xAF3QMOopETN65ymxSduix48f37p16+TJk9u2bQsJCUGhUM7OztHR0Tt37mxoaOjr6/vjjz+00z2z6YJsoNn85o01mQVLPP0X2zuspGVsKn+T3/FIdncmXfA7Hm0qf3MlLWOxvcMST/81mQWb37wxkxw0ri+Cm99F7zqGCQpDWFmvittCP95sXHtmQOv0482r4rYgrKwxQWHRu44Jbn43TZ0yesSZFXTh/fffZ+vhHwRBetDKfv/997ULzJrXevr06YMHD86cOVNcXLxhwwYMBmNpafn888+z2exjx451dHT8/PPPmmtTLzlL6IJsAGI391GLKrFkmjnSxt7NJyAxa2NZ7bb3P5UJTMeLbe9/urGsNiAxy97NxxxpgyXTqEWV7Oa+6eiLydrMfKtzdSJrvhnCixKXdORdk7Vz+hqWdORdL0rcfDPE6kQW863OaecIoAvqY41u7vb29r6uh38QBOlB6+u9vb26cVtOy6NHjy5dunTgwIH09PRVq1bNmzfP29s7OTl5z549LS0tX331lZysji9nG12QH4O2nP6QUlDhE5WEWrbC3Mp6RXBE8JYdtH312ed75MVM8Dr7fA9tX33wlh0rgiPMraxRy1b4RCVRCiq2nP7QBK2d7ibRj7e4h0ZbLV0Wxivd0fn36e6Oidu/o/PvYbxSq6XL3EOj6cdbTNxaefMAXdBxcDKkOqN3nipnnzx50tXV9dprr/F4vLCwMFtbWwcHh8jISIFAUF9f39PT85///EdVXZ2Xz2a6IP+o8658mfzqeRKvxIeaaO/uO2fuPBsXd4+10UHpOVHFRxknW7de+ESL5JnyTWhxLbz7eOuFTxgnW6OKjwal53isXW/j4j5n7jx7d18faiKJV5L86nnelS+10AyqaIJAeu0H7qFRdq5eMaWvaSIPZHSIQEzpa3auXu6hUem1H+hQrf5UGT3izIrFCJ2HQIlCo3eezK+BgYGmpqbdu3fTaDQ3N7dFixYFBQVlZmYeOXLk2rVrP/zwg0zS8BeALigdPgrvPs56917C4cYI/t6ApCxXIsXO1WvhIguEJdLO1RtDCPddTw9K44XxSqN3HYurOJ1S3bal4UP2e/e3t3/O73hU0PVjYc+vyjX3/FrQ9SO/49H29s/Z793f0vBhSnVbXMXp6N3HwnilQek83/V0DCHcztUbYYlcuMjCztXLlUgJSMqK4O9NONyY9e69wsmn/FZqCShUg4Dg1nd4OsfCZkn0rmNqxMAtfSMQveuYhc0SPJ0juGXqexqMHnEAXdA+gBqr87799tsrV64cOnSIyWTi8fiFCxd6enomJCSUlJScO3fu888/194lPdQEdGFS413e9W9YTbcZJy/EvnKKLChfw9oZkMjyoSa6rqEswwUv8fCzdnZdbO9gjrReaG4xb8HCOXPnQXPmQBAEzZkzZ+68eQsWLjS3MEdaL7Z3sHZ2XeLhtwwX7LqG4kNNDEhkrWHtJAvKY185xTh5gdV0W1fJviflIBAW9Q/TjzdbL3fD0zngYGNT+D4U9T7B0znWy91MfGOpsSKOLCwAuiCDYtIXhum833///c6dO6dOncrLyyOTyUvE/8hkcl5eXm1t7Z07d37//fdJm27ACoAumMKACGwwHQQihYfMFlslVjaZjknAElH/cGJlk9liq0jhIZNFwzARR01wAHRBDTgT3NJT533++efnzp0rKSmJj4/39PRcuHAhHo9nMpmHDh26cuXKd999N4FZJnYb0AWTHX2AYYZHIIJfZovxnAFnABgeukm1KLwLJ26d7N/W1ge2GM8IftlkKxpGXk8RR/OIAeiC5liNl9RT5+3bt49Go+3evbupqWlgYGB8q9PtM6ALhhlKQCumjwBtXz3SwTlH/dbR3iFuQzP9aDO9ujvvrizgtRN9hCMp1CcfBaeOTF5TM+u62JiuQcEtbSKxKhuEbe2ws/BfB7tTA813BwUTirWUYyAq9RKcNmWyuOVc+RLp4Dx6vrsx0FaFlZ4ijuYhBdAFzbEaL2n0zhtvkEl+BnRB1cMPymcVAoKb31nYotNrr6jxWthS6WaLxtCE1NJKIo2KsiUQ68QZPhXzhRo2jKUyIHw1TBe4hSSI0a7Ghcne4haSUEQmgZlLYObiiBhUYElqp4wkKbsYm99VRXOD7IY+AQzR2GRvmoGWXnvFwhZtgqc5GT3iALqgfYw1eudpb7oBawK6oGJEUzYUajacAYXTEYFV8S+sin9BneVd7XhnErll9Be28EyJE4pGg3/Ww2GPfqWdms3E0XLJRweEsq/K3QE6H461xMJ27pV2MrOe3T8s6mwn5zezG6qISUxckjCmQcI54K+c8FIzGY7NQmr1QF51OaFMetaWVA8hu4qpELBH6MK5ehwRA/knE5i5tHPy2nKJpR2CXslXuo/GrGddaSYzOfgkIbXmoah/OK+mkkhj4pjl9Euj3kmgGE1nKvYor5yJCq7kSlT1DjJLhWImIa3Y2U6OIkDOVBwzl1wtdkomw69nd3bTmOVitgHbAOMgRxdGHRebpK4j+ocn7iwZ/ga8MHrEAXRB+8hp9M7T3nQD1gR0Qf3ABO7OEgRsXTzSa6+qcVZQRkOo/OHejoeQFiRhassgu7rc1x2JLYPDsKirneCOdEqvYrYMsMpzMVgsCuLAaxZtlRgUEh1fxboElzuhsMQGcXSvybVDEQilHexL3bR0EtodMzJVAOvB+vLb2Z1ieVsqtU0S+0f+O0IXrnfHJOGgiBL6UXhtQliTa+eeTK7uE8DaCBbESu5IhJY3FYtLZ7ql18OWlDLtRtjPqPJxdEHUP0ANxoitHaAS0U5wRYnLWELNkKhrIDWHBvlwYo42p7YNwcJEpF1UOb1pAIYlEGsHkcSWyyYVpBfX67G2VFLdgKClHuc+cTKU9Nqrti4eajrLKLeMHnEAXdA+chq987Q33YA1AV0wysgCGjU1BMyRNsV9v6mxKpUBYQoHVAi04yFajGT3QP+wsIIJUeoF/cMww6A1imfdxWzgMBMhowvOQubIz/1hVg4Old0h6h+kUZC4CtlMw1BCPFJCF7giKiqzQ9Y0vEAAy48GdWWLEQNUIoZYJ5ORhfkxpgrKaJBPCUuqip4EYctkBsB1FejC8AgONbmIiKo8aUVRNQchdlkkvxjRIET5l7CkborOlTupogsNQpSPkCneCwLvlmgaY4O8p5Lr4r7fFiFtFMuNW2L0iAPogvaR0+idp73pBqwJ6IJxhxjQurEQKOp9wrv8xZbTNxOPnKUWVS6aiC4wszFq6YJ42kASPqUhczzDaKvEyOhCsOS3/khIFtOCdvxINB2J8bKNCKkMCOGIQ/tI/zBoiCQXqvvhEK6wdwGe8EBhpVV8cHa2kFvpQ/n5fxh5qamSXlAkB4olEkoB22aLHTUJi0HY5sITJ3IKZfZLu1jmoHRSYXQxYpDJpaJsMU6UkpgGuaUcGR0Ze1Hc95s5oAsKYQLQBQVINC4AdEETqABdkI5lst9h4GLmIMB9/8+b66/HH3w7svDwGtbOlRszXNdQlnj6W9jYz5k7zxLt5OCLd/DFmyOtJ1yMgH9Ay8V4+GvT+5B1tJkF7ySQxT8xdNKQycrBoXO6R79gTSVodXShm+SDIzWNgs/KwUlmF1g5OKecDkHn4Ojf2NcflNGFbpIPgdQgV6VzUAD/fFduqsRIRXIwvqS3g+hMIJ8Tz6DQ6vPkTZK8ECH1Hd6HUcGEaI2j2zi6GnGqZhckbKB3KK+pnrAaPbKUM5YijMLYPwwWI5SO7YAuKIVFo0JAFzSBCdAF+WEIXM8wBBz9nluGI2DJNDydQ9peElNSTT/RIjkxU3h3KDB1e/zBM3auXolHzmqwe+4hjYJ2Sm/mSt6fvPswNVu8IQCebFcRg8+VO6GoVMnuyLsDNBoGUkcXhtl8AoJYyZbMyV+qxzlDI3sXzpU7uXPokh2Od/vIwdK9EdKAOoYuJI3k1GbzCXaMZskOR2FLOUZuV+boO59y0V3p0oM8XRBe76BGYe3S22EG0NWIs5W61jtIT8LYSdZHqjlQoHTipKsRh8LiT0j3PHJJkCq6IKFi4mULNp+ESJ/g5Q5xZ2Wa2nfV6BEH0AVNQp5yGaN3nnKzTKwU0AVTG3SAPQZAYNP+N5EOywOSstZk5vtG00X9w5q8SCnqfUhnUu1skSgs1gKFcWNUsW5JJgNU0IX+4bwKjhMsj0M5kkilJWoXI+DpCjqTZIHCoLHwK4sx3NG3IvNO5GJs0XY+ODtHjBu3Q7YfQoKVjC6I2up9sUgIEq9NSLTBSwZYlCOVpPSdTw3oAnyEOfwPicJSCeWSFyBhrwVnKn2xaHi9wxHjRKsfeV2iq4MUiIagkX0egjPlWEekBQZn54jzLauUrrbI4JJdDDK5JAtbLOy4PydBugtE6TcBvEipKoYAuqAKmYnLAV2YGKNnzwBdUDokgcIZjADzrU60F45R1cp+7/7c+Qu4lz6TOKvRMU3SH/STwkfYNf4FRXXVe4eE4gkGhbX/4cnpGTF1SNg1usChrl2tXBN1DY0uN6jQoLHZE5sKjmlSM6oDuqAGnAluAbowAUDi24Au6H4AVTFogoZMDQFsxMbwvFfkrTLuIdDcQhKCVj9yQELvADUY6Vs+wTsC8sbP+GtwCLT6IR3QBfX4qLsL6II6dKT3AF2Y8YMscFDUP8x8qyOmtFoeik3731rqs1q+RHJtzBRTvQO0GJyF5CUIRzQ6vX3cooOitbOnBKSYko7ZKv8P6IJKaCa8AejChBA9A4sRYCZgpiNQ3Pdb8JYd5kjr9S+ekAXX4vu/WS9bwTh5QVYif2HkBNZd4tcZ9LqCMK06HSSw1mQkhwdzDeWAmCICgC4oYqJYAmYX5OMEuJ5hCLDP99q4uOM2beZ3PJJ3bU1mAY62Wb5k3LXg1nd4OsfCZkn0rmPjboGPhkQgetcxC5sleDpHcOs7Q7arRVtGjziALigGOE1LjN55mhpqVDlAF7QYF0CVaYRA0qvnxlnLaupeuGhx7rX/GVeu+DG99gP30Cg7V6+Y0tcU74ISvSIQU/qanauXe2hUeu0Hem1IV8qNHnEAXdA+lhq987Q33YA1AV3Q1WAB9JgOAtTiI2qMcQuhUnYeVCMw7hb9eIt7aLTV0mVhvNIdnX8fdxd81C0COzr/HsYrtVq6zD00mn68RbfK9arN6BEH0AXtI6eeOu+rr77S3ibTqwnogl5HEKDcwAhkNn68ghCOIYRvb/+L0qY37KlZhgtWekt9IfOtztWJrPlmCC9KXNKRd9ULg7taIJB05F0vStx8M8TqRBbzrU4tNBi3ip4ijuZBA9AFzbEaL6mnztu2bRsWiy0vLx8cHBzf5DT8DOiCcYcY0LoOESBmFS5ctJhaVKlGZwi7OO3UZTUC6m8Jbn4XvesYJigMYWW9Km4L/fjIEYrqa4G7ahCgH29eFbcFYWWNCQqL3nVMcNPU9yio8kVPEUfzqALoguZYjZfUX+d1dXVlZ2cvWLAgNTX16tWr4xueVp8BXVD18IPyaYdAZOHhnA++MozZW1sfkAXlLoGk+WbmWDJt/UsneZe/MEzTM6AV3uUv1r90EkumzTczdwkkkQXlW1sfTHe/9BdxNAwpgC5oCJQSMX133pMnT44dOxYQELBy5crDhw8PDQ0pMcLkiwBdmO6D1Cy3n9/5N+MikPPBV7F7avxiUiyXONq4eKxOyKTtq+NdAdRh/FGSvCtf0PbVrU7ItHHxsFzi6BeTErunxmD0zgBfEn1HnAmDCaALE0KkUsBgndfR0cFkMufMmfPCCy98+OGHKg0yyRuALhhgHAFN6AmB9S+eNEfZZr17V0/6J6s288zHlJ0HvSPjLdFOlmgnr3WbIvhlaacuF3T9OFlVM0C+oOvHtFOXI/hlXus2SQDxjoyn7DyYeebjGeCdogsGiziqIgmgC6qQmbjcwJ33888/Hzx40NfX97nnnjtx4sTvv/8+sYkmIAHoguJjD0pMH4Gsc/fcQqjOAcTNb3aYprWclv6Ne98ISs9Zjg81W2yFcnTxDNtAzC6MO9CQfb6nuO830zRba6uK+37LPt8Td6CBmF3oGbYB5ehitthqOT40KD1n4943OC39WmueLhUNHHEUowegC4qYaFpirM67cuUKg8FAIBAcDuf27duammskOUAXpstgBOyURyB2T826/P3yJSZ+zX7vflzF6VCOyJsSv8Tdd978BSgnjOvzZHwye13+/sQjZ7PO3sn/6HsT90JiXv5H32edvZN45Oy6/P34ZLbr82SUE2be/AVL3H29KfGhHFFcxWn2e/enhS86NNJYEUcWOgBdkEEx6Qvjdt633367d+9eDw8PIpFYU1Pz3//+d9IOGKQCoAs6HC+AKoCAhggU9T7hNPclHztPER4KSuN5hseivXDmSJsFiEU2Lh4ugSS/9YzgzXyyoHxjWS2jqjXznS7e5c93dv+kof6piO3s/ol3+fPMd7oYVa0by2rJgvLgzXy/9QyXQJKNi8cCxCJzpA3aC+cZHhuUxqMIDyUfO89p7ivqfTKVRmdAXeNGHHAItPYB8+nTp46Ojk+fPtVehY5qtra2xsXFWVlZ5ebm9vX16UirztQAujADxqnZ4EL+xz/gk7Mz6q/PbGcFN7/NPteTUtUWu6cmIq+MkJHrvyHFjRjp4ItHLVuBsERBEGRmibRycLZ393FaGbSCEO4ZtsEnKmklLSMgKSswdXswk78msyAkuyiUI1q7dffabbvXbt0dyhGFZBetySwIZvIDU7cHJGWtpGX4RCV5hm1YQQh3Whlk7+5j5eBsZomEIAhhhUItW+Hgi3cjRvpvSCFk5EbklcXuqUmpass+1yO4+e3M7gKtvQN0QWdhycCKsrOzvb29s7OzDdyuquYePnz40ksvLV++PDw8/K233lIlZvhyQBe0Hh1ARYMhELunZrHd0sBUrvDOkMEaNc2GCu/9wu/467a2T1lNtzPqrjFOtiYcfoe2ry6mpIpafJRSUBHB3xvGK13LfTF0664QTnEIuziEUxy6ddda7othvNII/l5KQQW1+GhMSRVtX13C4XcYJ1sz6q6xmm5va/uU3/HXwnu/mKbjpm8VoAuGj186aPG1117D4/HPnj3D4/GvvfaaDjTqTsW5c+diYmLs7e0LCgr+/Oc/606xlpoAXTD9YWiWW5hw+B0n/8CpnK00ywEE7hsGAUAXtAxCRqzW09MzZ86c3t7eZ8+e9fb2zpkzp6enx4j2KG36L3/5S1FR0dKlS6OiopqampTKGKYQ0AXDDCWgFYAAQGBmIwDogmFils5aefr0aUBAwOuvvy7T+PrrrwcEBJjCJgaZSfIXb7/99rp165ycnHbt2mWUbBSALszsIWyaepd26go4X3ma9t2sNRvQBfnQNg2us7Oz2Wz2OEPZbLbpbGIYZ5vk44MHD3bs2GFtbb1x48bm5malMnoqBHRh1o5upum48M5QYOr2xXZLY/fUmKaFwCqAgFIEAF3QU5DSi1rZlgVF7Sa4iUHRyKdPn9bV1a1du9bV1fXll19+9OiRoozOSwBdUPrkg0KjIJD6+iWkw/KApOzpcgKBUVACjZomAoAu6Dw86UthT08PBEGSLQuKbfT29kIQZIKbGBRNffbs2b1797hcroWFRVJS0qVLl5TK6KoQ0AXTHHpmrVWMqrZZ6ztwfFojAOiCrqKSfvU8ffoUj8fLb1lQbO/111/H4/Emu4lB0eB///vf1dXVBALBy8tr//79P/zwg6LM1EsAXZjWI9TMMH7T/rdmhiPAi9mMAKALU49HhtDAFv+bsCUNxSbUY2CBjz/+OCsra/78+WlpadeuXdNt64AuzOYBzui+M9/sWB4Q4hZCFd59bHRjgAEAgakgAOiCbmOTXrRJpg00VD3hJISGegwv9uTJk1dffXX16tU4HO7IkSOPHz/WiQ2ALkxlgAB11SMgvDUouDs+kbGkSvH934KZO8yR1tEvnoBLeocEnYPCfuXC6lsBdwECpoAAoAs6CUl6VKJ+y4Jiw9NrE4Oi/c+ePbtx40ZGRsbcuXMzMzNv3bqlVEbzQkAXTGGgmR42dLaT89sFk4noqQwIX62SARCzhPyORyO+t1ViIE7qZJRPD9CAR7MGAUAXNI87RpDUZMuCollT3MTQ1tb2448/Kqo1cMlPP/1UUVHh4+MTGBh48uTJ4eFh7QwAdAFEHTkEBpmFQmrdoPKStkpMcCVXbvQXdg4Ke8eygd4hwa3Rc5oV6ULOB1/JKYfrCm+JJxXG0YWuMdMSwrZGUnY9W26iQlBXSSxsF4xrXc62ca2AjwABfSMA6IJ2MchAtbTei6B1xf/vWElJSUhIyL///W8DOTlRM5cvX6bT6ebm5tu2bbtz585E4uPvA7qg70Fk2ujvHaQzcG453aPzB+NKZHShmgPFcAircWgfHMoWR6iW0ItBJpdkh4EL7fyTaW0wFRihC9KK1KIjCCtkOH4NVXxX1Fbvi8XY+eDQWIJvNmdkduFWBykQKy7EOsXUc6WEQHCCgyaWsG7J2MkQu5CKjm/MkwpMG5wBp5mhCAC6MD66mM7nSW1ZUDR7KpsYduzYsX79ekWdRiz5+9///sorr7i7u4eEhNTW1v7xxx8aGgPoAggzMAK9DxPiCW6FfaO7BxRLpFFfVM2BnHNTJb/12yoxzkJm/7DwMNOC1jhCNZpKnPzL2XJ0wcFf4EyIwBDCXzjzLjWYJKYLfWR/LH6Eagyx+SQIXowYSojH4k+MTG9wC0l23G5ZBwnqhBj/3NRRxjDMLUt2IlXKKIVMElwABAyPAKALGgYdQ4tJtiCoOmVBE2umqIHFYjEYDE0aMrDMhQsXNm3ahEQi8/Ly+vv7J2wd0AXDDyum2OK4iQSYQChMNsjTBUa71IsBaiCN1imeSDgh++k/ciGbXbBevmFtUaW4ysAIXWirxATKLW2MLEa04yEa6WgzXfL3Igctt/whmWBgdspakUww1HPlFimkVslkwAVAwEAIALowYbgxgoB2WxYUDZ3iJobk5GSTPVv6f/7nf1588UVnZ2cymdzQ0KDou6wE0AUQYKQIDKamEzDZHaOLEf1jS1TRBfFsAcwMVNMFuU0PcnTBp4Qlm5cepQtU4mEpXTjaTK8ZkEx45FUw0cRKue0Lg6wcKprRDLYvSLvPQEERNKcKAUAXZGHFhC6msvNgnBtTVBUVFZWfnz9Op0l9fPfdd9evX79kyRKhUDgwMKBoG6ALqh7+WVk+yCzMJZ14KOe7XIlauiBejKiXBG/hmRIHn93YTcyNG8RvRnQ14myZCZJFBJgWyC1GjKw7DDIzCaOLEUdHFiNY+VS3wj54O2RTPTG7UX7RIa+6nFgoz2xAsAQIGBkBQBcU44uRS6a4ZUHR+qlsYvjXv/5FJBJLS0sV1ZpUyWeffSYUCtFodHR09NmzZ+VtA3RBLjQaebgxdUvU0gVR/yCTSxVvdcQudlqz0NImmMmXvRnBLUtG22LQPjg0JRcfKKELw6K2epw/BoWFtzric3KlWx27yRSsHVw4ZqujqYMjmyYBF7MVAUAX5COL8a+nuOFAqQNT1PnDDz/4+/tXVlYqVW5qhadPnyaTyc7Ozrt37/7666+fPXsG6AKIQ7pFIEr0qnMAcfObN3SrFmgDCJg4AoAumFa8m8pMgBpPpjhj8eWXX7q4uJw6dUpNEyZ165NPPuHz+SgUatOmTYAumPgYBMwDCAAEpgUCgC6YUJib4j4D9Z5MUfn9+/dtbGzGzfOrb9Hod//v//7vjTfegCDIepkrifsS78qX0+KZBEaaIAIpVW2Z73SZoGEzz6TCe7/wO/66re1TVtPtjLprjJOtCYffoe2riympohYfpRRURPD3hvFK13JfDN26K4RTHMIuDuEUh27dtZb7YhivNIK/l1JQQS0+GlNSRdtXl3D4HcbJ1oy6a6ym29vaPuV3/LXw3i8zDzTDeATogtGD2ogBU5wA0MSNKU5ddHZ2zp8/v729XZO2TEcGgqAtp28GJGUvQJh7RybQT7QY5tECrcwMBPI/+j4gORvp4Lyp/M2Z4ZFxvRDc/Db7XE9KVVvsnpqIvDJCRq7/hhQ3YqSDLx61bAXCCgVBkJkl0srB2d7dx2ll0ApCuGfYBp+opJW0jICkrMDU7cFM/prMgpDsolCOaO3W3Wu37V67dXcoRxSSXbQmsyCYyQ9M3R6QlLWSluETleQZtmEFIdxpZZC9u4+Vg7OZJRKCIIQVCrVshYMv3o0Y6b8hhZCRG5FXCz8rJgAAIABJREFUFrunJqWqLftcj+Dmt8aFyGRbB3TBJOLaFLcXaOjD1Ftpa2szNzf/+OOPNWzRFMRkixHCO/+IEh119HvOztUrIq8s78ZfTfaxBIaZCAK0fXWL7ZcGpnKFd0YPfjYR20zcjKLeJ5zmvuRj5ynCQ0FpPM/wWLQXzhxpswCxyMbFwyWQ5LeeEbyZTxaUbyyrZVS1Zr7Txbv8+c7unwzg187un3iXP898p4tR1bqxrJYsKA/ezPdbz3AJJNm4eCxALDJH2qC9cJ7hsUFpPIrwUPKx85zmvqLeJwawzZSbAHTBFCLasyn+7tfch6nPYbz99ttoNPpPf/qT5o0aV1JGF2TPYUbdNdwm5py58/xiUlJfvyQrBxcAAUUE0k5dViwEJYoIsN+7H1dxOpQj8qbEL/HwnbdgAcoJ4/o8GZ/MXpe/P/HI2ayzd/I/+l6xogmW5H/0fdbZO4lHzq7L349PZrs+T0Y5YebNX7DE3debEh/KEcVVnGa/d98ELderSYAuGDeWwa1PcVfBZB2YenPV1dUeHh7ffPPNZJs2irwiXZA8Ufm3BikFFWjsSjR2JWVnRf4t+bRD4IXDWY1A2qkreh12Z4ZyTkv/xr1vBKXnLMeHmi22Qjm6eIZtIGYXxh1oyD7fU9z328xwU+ZFcd9v2ed74g40ELMLPcM2oJxczBZbLceHBqXnbNz7BqelXyY5Uy8AXTBKCBttdOo/90d1aXw19cmMAwcOBAQEDA0Nadym0QRV0QXZI536+iW/mJS58+bh4pgZdddk5eBiFiKQXnvFaWWQZ3jsLPRdE5czz3xM2XnQOzLeEu1kiXbyWrcpgl+WdupyQdePmlSfYTIFXT+mnbocwS/zWrdJAoh3ZDxl58HMMx/PME8l7gC6YLQw9uzZs6lvJtDOep20u2vXrrCwsP/+97/a2WCwWhPSBcmTwL/x14i8MrsVWEe/wCjRUeGdf8zIBx44pQoB4d2hwLTtFnbo2D01qmRmZ3nOB1/F7qnxi0mxXOJo4+KxOiGTtq+Od+WL2YmGGq95V76g7atbnZBp4+JhucTRLyYldk+NYkJzNRpM/BagCwYLW0oamvqvfCVKNSvSyaxGbm5ubGysZg0aTUpDuiB7UOknWrwj4xcgFuGT2VveviUrBxczHoGApKzpsrhugL7Y2vqALNjvEkiab2aOJdPWv3SSdxlQBE0X6XiXv1j/0kksmTbfzNwlkEQWlG9tfWCAXtNrE4AuGC2MTX0PwRRN14kBW7ZsSUtLm6Ileq0+Wboged54V75cy33RetkK5wBiTEl18f2ZthCr12FlGinffumzaWStAUwV3PwuetcxTFAYwsp6VdwW+vFmAzQ6s5ugH29eFbcFYWWNCQqL3nVMcPO7aeovoAt6DVUqlevkx71K7Rrf0Mn0RkJCwtatWzVu09CC2tEF2fOcWNnkGbYBYYkKSuNlnb0jKwcXMwCBdQUH7Fy9ZoAjOnGB+Vbn6kTWfDOEFyUu6ci7OtEJlMgjkHTkXS9K3HwzxOpEFvOtTvlb0+Ia0AVDRy8jbllQdFUnmxiePXtGoVCEQqGiflMomSJdkDzG297/lJhdaIl2whDCN+59Y1o828BINQgw3+pYHkB0C6FmvXtXjdgsuUU/3uIeGm21dFkYr3RH599nidfGcnNH59/DeKVWS5e5h0bTj0+nU+MAXTBCRNPJb3pd2a2TeY5//vOfBALhlVde0ZVVOtSjE7ogG1niDjS4ESMtbJc8v0XAaYZTD4O/6YhAUBpv/YsnpqPlurU5vfYD99AoO1evmNLXdKsZaJsQgZjS1+xcvdxDo9JrP5hQ2BQEAF3QYWDSSJVOdgxo1JLGQjox6bvvvvPx8Xn11Vc1btZAgrqlC5KHlv3e/WDmjkXW9u4h1LiK06bwJAMbJoVA4d3Hk5KfecKCW9/h6RwLmyXRu47NPO+mkUfRu45Z2CzB0zmCW6a+pwHQBQMFLUkzOvkprw+LdTLh8Ze//GXZsmX19fX6sFBrnfqgC7LBaGNZLSaIZLXUOYRdxL34Z1k5uDA1BHKufu2/IaXAIGcMm5rvivbQjzdbL3fD0zngYGNFcAxfUtT7BE/nWC93M/GNpYAuaB2GJl1RVxsFJt2wBhV0Zdu9e/eQSOT58+c1aNNAInqlC5KRhdV0OzCVa7bYChuxMRHsETO9BRpq0ZGFixYTs4SGjwQm2GKk8JDZYqvEyiYTtG02m5RY2WS22CpSeMhkQQB0wUBB69kzwyWG0M4lXc18XL9+fc6cOVevXtXODJ3XMgBdkDzeRb3/XP9S1bJVz1s7u5G2l8yk41lMdvzSxLBQjghDCH/hzEeaCM94mQh+mS3GcwacATAje2pr6wNbjGcEv8w0vQN0QefhSblCnewPUK5ad6W6MrK5udnS0vL27du6M017TQajC7InXJwvO2u+GcKHmsg4eUFWDi4AAsZFgLavHungnHPly4nMGOLWNLOuj27jFba1p7ZNIicntywZnd2urpW7g4JOjRV2DaTWDAj7h0WTqqXhLFfvELehmX60md4wIOwdcVnYOSi4O+q+ckf0YUz/cM6VL5EOzrR99cob1dAp/YgBuqB9HNK8pq5+uGveotaSOtnE8OzZs7feesvR0XFgYEBrS3RV0fB0QfKc77z9D2rxEQdfvJ2bdwR/L7/jkQk+/zPVpORXz+de/XqmeqedX4Kb31nYotNrNcmeNUANhvDVo/GSW0jCFA5o3i63kAQx1NKFag4UXMnVMKq1VWIkwpOqpZHyASoRjY4oiamoxAeiEUSJSePdV+647o0ZATy99oqFLdoET3MCdEFXUUmdnpKSkt7eXnUSJnPv/9tZUlKiE3OOHz/u5eX1t7/9TSfatFZiLLogG2Iy3riKo22eM2eu/4bUtBq1Y6hGA9zoIC5rAlzIEOB3PsJtYtosd0841CgrBBei/uFV8S+sin9BMyjGx0sZXWCX5dLODXGPlhOYuYTsytRLozMEwkvNZGYugSmkVg+w5eiCfHledTmhrE/U2U6OIkDOVBwzl1wtzgTbO8gsFcI6meV0OZ0j1krogma1BNXl5OoBVqkQn8Qh8OvZt4ZFt/pofA6OxiGWdgik8wcjmptK0D4lLMlz19tNY5bQLw2zy5huzpBTVC6BWc8W3xI0VBHFttHODbLKxDaPM+ZcPSG/XSB9fgUSN/uHRTK/JJZIBSbshcl0luEGBEAXtA5DoOLECOzbty8wMPDXX3+dWFRvEkanC5KhQXDru3UFB5Z4+i/1wlGEB0FugglHTC0E1r94whxpE8zkg0O7FdGzdfFIr72qWK6sRCVdSGVAGCINy21mXepjluY62eJIDXC4Etbk2qEIhNIO9qVuWjoJ7Y6RzC4oL+8aSM2hQT6cmKPN4jUO+Ce+U3o969Igu7rc1x1LqBllIbB5ErqgWS1uIQmBwuFKu7mwJQQLYi4+Kplc3SdoaScSkXbZHWP8bavEoGgxV8ZE3LymKrwPhM1pph/tzusf5oqoCPdk8tFubks7OYpk5w7BEy3jjBk70yCbXGFmY+3i69mdA8wcKsK/XEI+xhiggkCk1161cfHQRNKQMoAu6C1MAcViBIqKishk8tOnT42Fh4nQBdlTnfraRb/1jLnzF6yKf2Fz/Q1ZObjQCQKb3wSQjgl+MlTNkTbFfRqmPlFHF1CZoxE3r5QGUeoF/YM0ChJXIZ4ngOPfUEI8UkwXVJUPi+Tja00uIqIqTxY4qzkIWKecF0oXI1TU4haS5CzsIDpDuAop+WirxDgLmfKa+4e5ZUwnW7QdiUku7eCO7FeQd7+D6EwgNcmM6SP7i+lC/1gX5N3pH5bShUEaBfItk8DykHVUpl+mTeVFcd9vi1C2sr4zkQtAF4wVxWZRu1wud9OmTcZy2NToguTJz7v+TXjuK7YYTyf/oOhdx4Sz/tSgqQyInJb+qVSfJXUXWVnrhC7I72mAf/fDAbgdD5GobaPBTxovVZWPibWwsC0W7YMb+cNiELa5qfJBXRldUFVLtm4i7lb5wD8sgu3kjNEsaaV3SNDSEZNOQLjnpnYNi/rlarVVYsZWgedXJNs45CmC/PUoXRgWtdXj/NEWGCq+sJndOYrPhF+54r7fzJE2E4oZWADQBWNFsdnVbkZGxubNm43is2nSBdlzTj/e7E2JW2BugadzwMt+Mlg0vEipalvqhfOOTNBQfjaLTWYxYpieBOFPjIY3ZjZGEiNTGRC29OEojHVCFLwJsZvkg5P7CT7MysGJZxdUlY+hC8IKJkSrz+scFIz+SecDJOFcGV1QVWtydGHM2w0D1EDJBk85utDViIOYCTCHkPwNJdAmQxfEtYS3+lL5yXbuQua4nRMjOmXKRy/Sa6/agsUIhYABKZSAgpmJAI1G4/F4hvfNxOmCZBjiXf5i7bbdKCfMcnzIhtLXivt+lw5PoyMIKJFHIP/jHwKSspEOyzeVvylfDq5VITCp3XN5ZTQLYiVbMjnf2Yx3JpDPwV/FVAaEwObSJT+U7/ZRiUgJjWDzCQipvPBSPc4ZkuxdUFUOL0YESt+M6GrE2VKpLWKK0DtIT8Io2WEgezNiolqTowvw3gXqyLzILZmbYrowwpbghRU7RrNkj6SgoQQDydEFmTGd9b4oElniwq12vLvE/QFqMAZ/QrwYcbcZB1GplzR9nCfVWap6XOflYHbB8PFrlrb4f//3fxEREcXFxQb2f1rQBdmDnXD4HQ9SjLmVdVB6DkiWKINF6UVgKld4Z+zPUNU/15RqmFWFk3mRcljUP8jkUlEotB0WY+FIJZwYmVFIZUD4snZSIAaFxVpAaAy3feRdg96HdCbJAoVBYzGowJIYrvRFyt6HCQyCkvKuDlIgGpKGXsGZSl8sGoXFoR0xTrR67rhf4bLZBQ1qTY4u9A/nVXDgvQs+OJQjAVc28rIotzwZjYIgyTLErW4yBYOwxaIxGHRMPTVJShfGGiPWg0RhsShsMjFJ6n5bvcQvO0cMNr8bPjpCgz/wIqWqGAFmF1QhMwPLf/nll+eee668vNyQvk0vuiAZTba1/YmYJbRc4rgiOIK2r06TIWaWyIBtCuM6Oufq15nvdI0rVPVR42OaVEY1mC5IzmPoGlIS/HqHhEpPN1JVPi52KtU5Tkbxo3a1FPWoL7k7JDvESRW8KssnYyE4pklNdAB0QQ04M/DWo0ePsFjsiRMnDObbdKQLsnFn0/63XNdQFtuhn8/MB5EyPHePSyBJBg64EPUPU4QHrZ3d0NiVpO0vafINmeIh0KN0QX1wBXe1QgAcAq0+LgC6oAyf7/sudTz89+id7/va+r4f/Ti9r/785z87ODg0NDQYxo1pTRckEZH9Xm8wk78IZeceGh1/8IxJhcmi3n8W9vxaeO+Xwp5fi3r/qSfb0k5dcfIP9AyP1SQi6skGU1ab/sbV51K2LbZ3WIYLXpe/n3f5czXWTiXFFKALaoCd4i2QYmrCiADogjKIrm6HKCcejt65sR3afmP047S/6u7utrCwaGlpMYAnM4AuyIah2FdOuQSS9PoCRd71b1hNtxknL8S+coosKF/D2hmQyPKhJrquoSzDBS/x8LN2dl1s72COtF5objFvwcI5c+dBc+ZAEATNmTNn7rx5CxYuNLcwR1ovtnewdnZd4uG3DBfsuobiQ00MSGStYe0kC8pjXznFOHmB1XQ77/o3MtfUX/hEJcXuqVEvA+6K+ocZJy+situCsESuIIRH7zq2o/NvSmHROoG18JYGyRS0+mGt1M5ZUggSWGsYCABdUAaUarrw728uHdqZn79z14mO0emGX27X7oIL8w+1Seckfr5xqPLGw57aXdtq+5S1YPSyDz74YO7cuTdu6J0FzSS6oMPRs/Du46x37yUcbozg7w1IynIlUuxcvRYuskBYIu1cvTGEcN/19KA0XhivNHr3sbiK0ynVbVsaPmS/d397++f8jkcFXT8W9vyq1J7Cnl8Lun7kdzza3v45+737Wxo+TKlui6s4Hb37WBivNCiN57uejiGE27l6IyyRCxdZ2Ll6uRIpAUlZEfy9CYcbs969V6hwCgU4BFMp1GoKEw41+kYnz1uwwIMUE/vKqZ23/zFO+P+x9+5hTV35/n/wwkUUAkSiIBIuEi5C1AhBAgaJEBQwck0IYJRLopFrhABbW6hFY2lF6gUsdWBKR0WxoIyirRa8FFqUkunpj572OMfpnLbMdGYYp9+enHnOmT/6e3IPkEAIt+zw6cPTZ2ftdfmsV9zr885aa6+P8PEPZBbf1tF519Gz427Bx/kksOvoWVtHZzKLL3z8w3y2a0Rb8GbEgvtNXQbokwt/upy0ZnfNkxcv//1yzkZsTodsveJFw+414UcuS168/PeP30r38yv5WJb6/HyUt9+2XYfPXzfdVYz29nYsFvvs2TNdCGYtDeSCYlzIv/cfaW/foOVX+TNSVnsHWCxZ6ujuvWH77pDMgtjKevaFWwdv/m7+T4sSDfz94M3fsS/ciq2sD8ks2LB9t6O7t8WSpau9A/wZKbT8qrS3b+RPHUFR79Y8I8ZEtBcR3Pkqo6k7rqoxtf666LPRPTWXHN03BOxi6exX5qUPvSNicZ6+cdUXdWaAxLkjEFd9Eefp6x0Rm3npw7lrZRZrBrkwa25pNivSJxc+Peqx9Wi/fFPDP59/fEfy8pdfPj6CS7qknmj418eHcUmX/yqXC7jDH/9rNo2ai7qam5vd3Ny+/vrruahcUedilgv7338YXVrrH5uKXedhY+fgERoVur+EebIl78azWRxE5qKqvBvPmCdbQveXeIRG2dg5YNd5+MemRpfW7n//4Vw0Nw91TmMaf3BU2Dui472DsZP8RQ/+wG3t3Sv+dcLr76rt35ycbb/Wbf3WiKA9WdFlb+5reeASQA6ITT1483fqPBMvWOc6vSN22a1ZF5lfXdL73cQMkDKLBEp6v4vMr7Zbs847YhfrXOcs1jzXVYFcmDs/NYOa9cmFX172H9/tscZjW2rNpU/l6w7Pz0dh1vht3bxZ9eeBW3OkRy4Xxux+mIExc1y0vr4+ICBgZGRkjtpZbHKB1zHEqKgj0pk29o6rvfy3pOTuqbl06LdfzvVQMqf1H/rtl3tqLm1JyV3t5W9j70ikMxkVdbyOoTltdLLKe7vpWhEIJ8up8vHT2CQ49uDhI5/8OffaZylnrkWL3lQ3FLq/ZIXDapeNW/1ikrcfPKZOr3j2k/o6go9YrbI3fNqA+17v5pScZVbWvtGJqWeuq+uBi9kikHrmum904jIr680pOdz3emer2nmrB+TCHDmpmVX7/HzUDq2tjn+9nKS91fFf//yT5PKR8DVJrX/65ecPcjA5l797+fKvmr9//gtNcuGXX345fvz4tm3bfv7555lR0116kciFfb/+OCy71NkncOXqtUHMrL3iXxf3/HHexpH5bKi45497xb8OYmatXL3W2ScwLLt0jsJKCWpFtNph7V/5mhT1wUEqNSDqHRn/Xv7gqPCx5hSpKeVCxbOf8q58ktbQtetwqjpOQWTBa8ttbHGe/htou0My8mWxH7uu0PJaDvT8Wc1ckaI8gVFuz/73H60jhfruTDRiHUf46IddR88SQiKt7Rw2Je5nnetQNwQXxhFgneuQ7T+1cyCERO46elb4yNT3KOjrJsgF3T5mgVP/1X90o9/h7pdyM/75VW0UNu8D2RLER4ex0edfyJcYZIklH//yyz8/yFuz++xX8gWKX152HfbYeLQfbXLhl19+KSsri4mJmQvs5i0XeDcGI/gIztPPyYMYllO2//1H+h51s0zf//6jsJwyJw8iztMvgo/wbgzOUjdHeeUMfNKVIs3xgmNT1HKhkY+J41M2y8IjYZ1IlEZF+MERroCGI8gScYFpTHnsJZVcGGaE0mgtz7Oa7ye8fkl9BGHswSwMBrPU0spyhb2Dr59KLoyk7d82rh5EIhWe5+OpVTmPNTs2tFNoh19dbrNi17FzM0Rx8NYXdKHYPZi2zMqGSGfufvVC/t1vZljn4imef/eb3a9eINKZy6xs3INpdKH44K0v0N59kAtz4aFmo87nl3NC12AJm/3WrNl24PyQQjnIFiOi1qzx27zJwyP08AeKLQsvh85nbV5D2CxPzLn8XN768/NRKFmMUMPi8/kpKSnqj7N1Ya5yIfGNVq9wxgqsU0hG/py+WomKMe7A5SchGfkrsE5e4YzEN1pnZvNITgHDNVMZJkBe1YQUbbngVshRHGWoio8sOs21ZV4RSqQlD7/LFuc5unN48mgL5EYp82TtkiVLrBzWrCOFBuxmqeTCUJivJ1kpNUZ5xTTF8cOi01xcaocylHNXHcG7Kkc1mSFsFhECCznaiqFZtNY73XlTuM+OBMFt5WHGM+OglCMFHz5PON60MS59lbOLo/uGzcnZzJPN+fdAOmjkmoJz/r1vmCebNydnO7pvWOXssjEuPeF4U8GHz2flWzCFSkAuzJZXms96/vnPidP2//rnPxUzDPNpyGy3xeFwDhw4MLu1mptcGPpvRkUdztN3PTmcebLFFAYRk7KBebJlPTkc5+nLqKhDjIzUNXYiQeahJ6RoywV2t+izUd4Hn7PONTKCmcxeWRymDYc6rO2w1qvs8b4kYhRTEZyJ3CjlfdC1MyRCHetZKRe66gjqYEUSqSwqtDxagSz8Y0EHq17x10D21wSJVkwncLViIkcwKRYWSynFZ+b068i+/El02Zt+MUmr8K6r8K6+O/dGFddkvHu3tO/HOW3XNCsv7fsx4927UcU1vjv3KoD4xSRFl72ZffkT0zR4hlaBXJhd3wS1zZRAfHx8UVHRTGvRKm9OcmHXsXMObp4+OxKymu/P8Mk37+JZzfd9diQ4uHkaPScvQBiusWNiHSlSsrq+ymi6K/Po8hiJ+8qYGBunpZZWTgQfL2oEI1Tm0TlsTMCxoZKHY14x0F6M0CEX/DUzB9pywSvvikoudLDquwXySMpFtVy8KvwjIpEe6vrSbcNaKwd/Vvu8TnfzOyV7TvwqJLNgPTnCaqUd1sXdJzKemlee+EZr3o1nlUM/m9m/scqhn/NuPEt8o5WaV+4TGY91cbdaabeeHBGSWbDnxK8Ww3mjIBe0HAtcmgCB//3f/92+ffuxY8dmyxbzkAsZTXfdNocRKDtAKBjuhLKa7xMoO9w2h8kcvGoa38CLogd/SM7PpFYrowjyPvjcwc1ryRILK3u8GzlcLRcKT2VhmOq1D9m+BEaXVL4Y0aII1Si6XOUaKFYvRiCS0eQkPKlWvsVhUBYoWR4AeogeSFRGOpaMcLMpYxYjFPsn2sRe1DqeRCpqa6HmXdGO2Shqa/EKz9ZOMbCPs5uN98HnibXvR/ARv+gkZ++ApcuWY10Jntvo5DTeziOnUs5cy732GVqO2zry5E+Kt1F2HjlFTuN5bqNjXQlLly139g7wi06K4COJte/zPvh8dgGafm0gF2bLK0E9s0bgb3/72+bNm2tra2elRjOQC9RckQ3WEU5BNm48TTjeZIN1pOaKdBYv/eTP2oHCCz76vfOGAMsVK1c44FwCyOoios/+dvDWFxXqgyxVswtIIx/D7lZlU8oFRfRn+RZFIi6QO3aroxRRBTXGE5mUVJpcLsgSSYEEWQRnIoVcUKje6phTzJy41VHV3Pi1c5NKrxj8id8xlHb2RrTorZCMfJ8dCXhfko2943LrFY7uG9yDaRt3s0P3FdOF4j01l9gNt7Kv9uXf/bqs/y/z0Iuy/r/k3/06+2ofu+HWnppLdKE4dF/xxt1s92Cao/uG5dYrbOwd8b4knx0JIRn50aK30s7e4HcMVQxqXlKdByNNsAmQC7PikqCSWSbw4sULLy+vixcvzrxeVMuFwo9+70WN8aXvFT763gSHD7SYJHz0vS99rxc1pvCj3ytsLvv0ry4bt65wWG1pY7vaO0C7Izno+RGsbTZaroWPvs9rf5be0JVwvCmqqIaSVRgYn+5FjVkbQMau87C2w2IwGKtV9nZr3VZ7+7sGhXhQdvhExvvHpgYxs7ak5gZzDodyi8OyS8PzKiL4yPaDx7YfOrb94LEIPhKeVxGWXRrKLQ7mHN6SmhvEzPKPTfWJjPeg7HANClnt7W+31s1qlT0Gg7G2w2LXeawNIHtRYwLj0ylZhVFFNQnHm9IbuvLan8Gzpu/fEsiFmfsjqGFOCHzxxRfOzs6XL1+eYe3olQv8Tslq74BwXqW+pxfSp0UgnFe52jtAvcbMfa+36MGLadUAmeeBQPnTl8U93x7q+jKn7dOs5vvsC7eST19lnmyOq2pgVNZHl9ZGFZ+IzK/eLngl4uDRcH5lOK8ynF8ZcfDodsErkfnVUcUnoktrGZX1cVUNzJPNyaevsi/cymq+n9P26aGuL4t7vi1/+nIeemGWTYBcmKEzguJzSODJkyfW1ta//e1vZ9IGSuVC4f0Xq70Ddh45ZZbjzkJ1aueRU6u9Awrvg0ow6YWMhfrnAe1OTgDkwkw8EZSdcwJ37tyxtLR8+PCh0S2hVC7INpnnlmue3gf9rCbtEwZf5NT3F01j+1431T+NeWdSJ9E3on0KoaZpXa0Utalf8OtgTc8SXTbcaQnwF3HGNKTpoKh3NoMmU3Nl29on7x3cBQJAYCIBkAtGuyEoOE8E2tranJychoaMDMSNRrmw69g59+DtYx7XRj5G/uaeKrGbLH81X/VRlw8e4327yRjNW/s6SwnKaVq79qaokMPGuMYWUriKvxbemLamKKujddVJA1q31B2UvT5Abpx+nfpNcg/ebvQLlloWzqZJUC0QMH0CIBfmyedBMzMh0NTU5OHh8fy54sTK6dWERrng5EHM/NXYmLZ65cIQk9vCGxhmFcs8N7W8W6A4YVAiRQZHuNUimUcvbuH1dmjLBWFrA1Xm6cXM9pGcmkJ64wjS3kKiEjCBaRRuIbNd7ghVdVLyGrSPA1IMaqpTBMa4TGFPV5tBAAAgAElEQVR7C10uIOjiIcVrhLLMgyM8sVguLGTNacZEVf0ymzuVBxNp7kqUcoFXw/VyU0gTpShRGV9Ir1dNt8gDPgkuN1BT+WSumNk5gkhkjZKZXLIu4zN/9aGTB1GrrTG9gHQgAAR0EgC5MD3fA7kXisDp06eDgoJ+/PHH6RqAOrmQ1Xx/jS9p/OOqVy7Ipg28opm0+n5BZ09cJsWWWMWVvak/zKDa42LFrLZhXqM4IJiIU80uCBCGtXcaXZa/mx5Lw3nLX/1/0B+XSsJEVbHqO3IeSJG+boo3MaC4m9c7nCMudHViqE8WUhg2US4UidNsvdPojUOCtg56LNGW1iCQ/b5/wYzF42LFnM7hnHpxgDfeq1p+PrGsfnvXzAZup6x+ApGIHT9ZopQLRW0NZH/F4YayxRcBwrDdXMhsGxbKjCfiMrtlIaC66ghYe3xSQ84dpbUUdprc+CFOHsPaWyQHMkYTrPElZf3qo/GQ9U9IQE4gAARALkzX+0D+BSNQVVUVHh4+3cOuUScXosve3Mrijx+bJpMLBGqz2he+iIvCEGtGkFYRNrAqRx0hqV3sqpQLPVQ3Cq1NnX+IHqg4KUiqvRghQBjY7B61DYJyGjZP81FxpLF6MUI+GzG22sF+WiCB2iodb0ZblaubiCuRCmuY1vKoCoomRKe51nrkgkz3aBYjuilYZtwDlfGD3WSs7NBlmVxw02gCbh4Bw7yiiiQ5zAiWWzJWCmxlH4wuq1V3EC6AABCYkgDIhQVzftCwEQSEQuGuXbumVRB1coHXIeF3SMY/upPJBb72JkGFa9f2/fKqVHsXJuwS4LB1yAUOG2PtIguoqPwj4DG0Bu2dlRw2hlQ7IuyV/w1owhyozVZUq88MdaPK/BOsQlSLEWPkgiwbHqe2yp+ExeIpTfLWtTZ2jGt04kQIIpHydUIeKynUfYELIAAEEIkU5MK0XA9kXngCubm5LBbLcDtQJxeiy2q3sg+OH57GRSHqbSEqf453kzFaP7glUm42gVA+LKrlav3CliJ9V0iK2QXZBTdZHnpA3sRoMlOHXMgpILkW9CjVgEITPB7VNmm8D9ZVLal2VJcZstZzCkj4gn5NhW1VeENmF+StMO+pZIrcMNGgMXKBzOJHl72pMQCEAhAAAlMRALlguN+BnKZCIC0tLS8vz0BrUCcXspo/0rF3YbCH6q0OKyCLcWydpJhv7yZj7PGqaMuizjovrPwNiL4rJKwq/+AIV0DDKBcjRpOT7HFsZXRmYWsVAaMlF1I7lB60XezqzWcpAh4ODNFD7Yk1Y84qGC8XZKEQ7AmCHsUOR+F5Ps6Nz+mTyxQsjdaqCJEwwmITsWz5boN2sSuWweiUS5CBYSaToIiSoOW/x74ZcV6xACELuOBVPqRYaBDW87GKfQnqI5nl450hswuyvQvNsHdBtawzlZ/Q+l6gyOIlAHLBQKcD2UyLwK5du4RCoSE2oU4uIBKpjjcjZBv6WkiBeGsXEs4J78qsy3msGLZkbpXZVEVwIeAJeIwTjdakfPtAeLkugGhvSyDhXEgBNXWaNyMe99OjCdZORDyBgI9rYaQq5YI8loHsiFzFW4tF5wsJTrKZf5wLwUvQIxzrUSbIBSkyMBQXR5JV62JvG8iNU0gBiVTU2aAwA4vFuzIbeKoXN+T122OJJKwLjVZdpYqSoB6L1XJBKhCn4WVHA8vXXB73M+JIti4kPJGAVYVjUAd8Uni1KeUCvBkB7h8IGEEA5IIhHgfymByB//mf/6FSqdXV1VNahka5oOPchbHeWutR17hVUd+Y9QJFHp2JslsDo7JpfL3VKm/pLa6v4OCoSCUIxlTeN6raezim0WnXr2hXXyv6rBqbDucujPlqxsKBW0BAHwGQC1O6G8hgogT+/Oc/BwUFnT59enL70CgXEIl0/KmOesd0jVzQ95BDujYBONVRmwZcAwHDCYBcmNzXwF2TJvD8+XMCgfDuu+9OYiVK5YLBMSNALoyZrph87IOYEZPzgbtAYBICIBcmcTRwCwUEPv/8c0dHx7a2Nn22olQuyF72Mygi5aiwd0TnPP8kj/3ivDUuIuXihAC9BgJGEwC5oM/LQDpqCDx8+HD58uXd3d06LUavXEAk0sKPfu9FjfGl7xU++t7ohxwKCh9970vf60WNKfzo90ADCAAB4wiAXNDpYiARZQS6urpsbGw++eSTiXajWi4onmpqrsgG65hwvMm4h3yRl0o43mSDdaTmihY5B+g+EJghAZALE/0LpKCSwOXLl52dnb/44otx1puBXEAk0oymu26bwwiUHVnN92f4zC+e4lnN9wmUHW6bwzKa7i6eXkNPgcAcEQC5MM65wEcUE2hsbPT29v7DH/6g3QfzkAuK53/XsXMObp4+OxJANEw+IGY13/fZkeDg5gmBqicHBXeBgOEEQC5oexa4Rj2BN954Y8uWLX/729/UPTEnuSB7sIf+m1FRh/P0XU8OZ55sMfxRXyQ5mSdb1pPDcZ6+jIo6ZOi/F0mvoZtAYB4IgFxQuxW4MBMCx44do9Fo//d//6foj7nJBdUBDIlvtHqFM1ZgnUIy8g9cfjIPg4UpN3Hg8pOQjPwVWCevcEbiG62mbCrYBgRQSgDkgpn4SOiGNoHCwsKEhATzlguKEYd3YzCCj+A8/Zw8iGE5Zfvff4TSkcg4s/e//ygsp8zJg4jz9IvgI7wbg8bVA6WAABCYkgDIBW0vA9fmQ+DAgQMcDueXX34x19mFcc/2vl9/HJZd6uwTuHL12iBm1l7xr4t7/jguj3l8LO75417xr4OYWStXr3X2CQzLLt3364+N6Fru9adGlIIiQGDREgC5YD4OEnoyjkBycvLBgwcXiVxQD2G8jiFGRR2RzrSxd1zt5b8lJXdPzaVDv/1SnQGNF4d+++WemktbUnJXe/nb2DsS6UxGRR2vY8jovhR9/K3Dei87vGtgPCf+tXdKev/L6Kqg4OwSKH/6srjn20NdX+a0fZrVfJ994Vby6avMk81xVQ2Myvro0tqo4hOR+dXbBa9EHDwazq8M51WG8ysjDh7dLnglMr86qvhEdGkto7I+rqqBebI5+fRV9oVbWc33c9o+PdT1ZXHPt+VPX86uwYunNpAL41wMfDQrAjExMYtNLmgPXvvffxhdWusfm4pd52Fj5+ARGhW6v4R5siXvxjPtbCZ4nXfjGfNkS+j+Eo/QKBs7B+w6D//Y1OjS2v3vP5xFaw/e+mLXsXP+jBR1nSW9/yV8/IP6I1zMOgHho+/z2p+lN3QlHG+KKqqhZBUGxqd7UWPWBpCx6zys7WSxR61W2dutdVvt7e8aFOJB2eETGe8fmxrEzNqSmhvMORzKLQ7LLg3Pq4jgI9sPHtt+6Nj2g8ci+Eh4XkVYdmkotziYc3hLam4QM8s/NtUnMt6DssM1KGS1t7/dWjerVbKYq9Z2WOw6j7UBZC9qTGB8OiWrMKqoJuF4U3pDV177MzgSTd+XDnLBrLwjdGYcgZ9//hmDwdAEr+p7ABZPev69/0h7+wYtv8qfkbLaO8BiyVJHd+8N23eHZBbEVtazL9w6ePN3ooG/zzMQ0cDfD978HfvCrdjK+pDMgg3bdzm6e1ssWbraO8CfkULLr0p7+0b+vf+YN6sSa3+zzMraNYgSllPGuXh73to1v4YqBn/idwylnb0RLXorJCPfZ0cC3pdkY++43HqFo/sG92Daxt3s0H3FdKF4T80ldsOt7Kt9+Xe/Luv/yzygKOv/S/7dr7Ov9rEbbu2puUQXikP3FW/czXYPpjm6b1huvcLG3hHvS/LZkRCSkR8teivt7A1+x1DF4E/zYJspNwFyYZx/gY/mRgCDweA8/aLL3jTl53D+bSsf+Hvu9afJp69EFZ/YkprrSY3GefparrC1XmWP8/QjUHYE7GaFZORH5lfvOnY2sfb99Mau/a0PeR98frj76+KeP5b2/Vj+7B86zS5/9o/Svh+Le/54uPtr3gef7299mN7YlVj7/q6jZyPzq0My8gN2swiUHThPP+tV9pYrbHGevp7U6C2puVHFJ5JPX8m9/rR83lXLmI4M/XdGUzc1rzyUW6xO3/+bx+pruNBJgPfB54m170fwEb/oJGfvgKXLlmNdCZ7b6OQ03s4jp1LOXMu99tmRJ3/SWdbUEo88+VPutc9SzlzbeeQUOY3nuY2OdSUsXbbc2TvALzopgo8k1r7P++BzUzN7ru0BuWBu3hH6M44ABoPhd0rs8Oviqy/O9eNkBvUXPfhDTtun7As3E15/ly4Uh+WUbUnJ8WekeIZFryOFOm/Y6ODmuXL1Wht7B0sb26XLLS2WLMVYWGAwGIyFhcWSpUuXW1ra2NrYO6xcvdbBzdN5w8Z1pFDPsGh/RsqWlJywnDK6UJzw+rvsCzdz2j4tevAHtBAjs/grsE5+0UmxyNv8TglazJ5TO/mdkj0nfhWSWbCeHGG10g7r4i6Lup5XnvhGa96NZ5VDP89p6/NfeeXQz3k3niW+0UrNK/eJjMe6uFuttFtPjgjJLNhz4leL4V8FyIVxzgU+mhsBxd6FA795bLXSPunNy/M/ykCL5kEg/943Ca+/G7QnM+3tG+oeFX70n+rrxXCRffmT6LI3/WKSVuFdV+FdfXfujSquyXj3bmnfj4uh++P6WNr3Y8a7d6OKa3x37lUA8YtJii57M/vyJ+NymsdHkAvm5h2hP+MIqLc6ct65Y2Fhkd7QZR6PLvTCFAg4ewfgiUEhmQVpb98o6//rJCaJHo8IB6STZNDcGjStoOQFHz5PON60MS59lbOLo/uGzcnZzJPN+fe+0RisOjpskafk3/uGebJ5c3K2o/uGVc4uG+PSE443FXz43GywgFwY51zgo7kRUMsFRCJNqWuzXLGS+16v2TzA0JGFIdDbTT/SLZS7Se57PZH51QTKjtJP/jyJMRw2htxomFzoqiNg+JyF9sEHb31BF4rdg2nLrGyIdObuVy/k3wWJYNg3KJHm3/1m96sXiHTmMisb92AaXSg+eOuLSf55oOIWyAVz847Qn3EEtOUCIpEmvP7uytVr4fg/VAxPC2rkCLdcxGge0bZBUCui1Q6LJFKkq44QWifQ8uii3hHRoNKXFH70e8sVthsiYiPzT+S0faqowRC5IHo8oqxcWy4Mjgofj6rNEHVdoeW18LQmKiamqDMbcSF89MOuo2cJIZHWdg6bEvezznUYUQkU0SbAOtexKXG/tZ0DISRy19GzwkdofVMX5MI45wIfzY3AOLmASKSMijongg/8VNIe0eB6DIHBERab5FXQr5g/kN8a5ZUz8ElXihSaQC0XGvmYOD5lMwnvT8I6kSiNCnkxwjpAXeXsvsLBafkKHLNLJiM4bAzpjT8gkmFGKI0hT0EkUkE5jVA+LKu/qyWASMD5k/BESkAeXzW7MMIV0HAEWeW4wDRFPYhEKjzPx1Orch5rfulOTBnTHS1ZM0k6973ezSk5y6ysfaMTU89cnyQn3DKOQOqZ677RicusrDen5KBxjhPkgrl5R+jPOAIT5QIikUYWvLY2gHzkyZjfjsYNAVDK3AgMvkhOoniVD8l+6Cv/RnIKGK6ZHULV/IFmdqGRj3Er5Ch+63fVEdxEXIlUdJpry7yilBptVa6BYp5cLnhm/9qJ4OGGdyGVv684R1IlF4bogUSyUmqM8oppGPnsgug0F5faoaynq47gXZWjMknYLCIEFnK0FcOEFJXx6l7ovWCd6/SO2GW3Zl1kfnVJ73eGF4ScRhAo6f0uMr/abs0674hdrHOdRtSwUEVALoxzLvDR3AjolAuIRBqWXUoIiTS/170Waigxn3annFrQXoxo5GPY3aq+DzOCmcxe2UQC+fx436xYjMhp+4Do7rU6eHdYdql6dqGi401CsNbShmrvAoeNIRZ0sOoVfw1kf820hGI6gduraaXgdDaeWqWdorJKk2diSualD70jYnGevnHwmrFKik2kNEcpcdUXcZ6+3hGxmZc+nKMmZrdakAvm5h2hP+MI6JMLiERKZvF9diTM7hMFtZkFgRFOJoWQ16O1GCEVIAzX2BbBxMUIbbkgX2iYRC7oXIzYEhtmY+u5taBaOUGtJRe88q6o5EIHq75b0Cfz/UW1XDy1Tnv7QlEt18rBL+p4s+HwhY9/ILP4to7Ou46eNbwU5Jx1AruOnrV1dCaz+KZ/+jjIhXHOBT6aG4FJ5AIikQbGcwLjObM+BECF6Ccwwi0vpJ1/od0RQa2IWt0/ZqvjuNkFuVyQL0a0KFYuRJc1ixHyNyNGk5PwpFr5KtjgMCMUQygfLu37hERwxUfl4YlBrPOXudmUMYsRCoHSJvai1vEkUlFbCzXvilK1yH8QK1ISL91f5eyy88gpbYP1XbPOdTis9yKz+HCwsT5E85leMfgTmcV3WO9l4htLQS6Ym3eE/owjMLlcQCRSnx0JZBZ/PkcHaAv1BLS3Ok6YXUAkI1wBQ75FkYgL5Kq3OipfpJTtasRjiSQ8kUlJ1Wx1JAUSZIk+weSCQsVWR5zHhg3+61euXr/ax197q6M+egdvfbHGd9O2A0J9GRTpMaK3rFbapdS1TZ4N7s4zgZS6NquVdjGit+a5XcObA7kwzrnAR3MjMKVcqPz8Z0JIpGIt2fAnB3ICgbkmwO+UxCL1ftFJNlinsk//ZkhzRz75sxc1JmhPpr7MUcU1TgSf+TwDQDSgeQtUn1WQriBw8NYXTgSfqOIa0wQCcsHcvCP0ZxyBKeUCIpEeeTyyNoAcWfCaaT6lYBUQUBPIv/v1uk3bwvMqMpruqhPHXQQlZHpRY45MODaKebLFfq1bwSQRPvuGOcqdlR3cTs1JEuPqN+BjN9VfJDtpqlNMwDAYdybbbqm7tr4R7dMmdOdRbU4salNvCO1g1fcXqdInL6X37p2WAIXxmnpe5KiqFfUafDqnpvg0ul9w7z/s17oxT7boNc+oamelNpAL45wLfDQ3AobIBUR+CpsTwYdRUTcrzxVUAgTmiEDF4P9Lb/xtWE6Za1CI2xaqvla27Reu8dt08Na/qTMIH/1g64TPvHRPnaLjQvYuKIPELaRwCylMBtaFRmsy7mXjbrLypKkRXuuQ9o5RHY3q8n+CcprWKydTuFsOG+MaK7dZZnkLT1eFBrYry6baaqpVRN0d2XYTQ0/nNNaMzEv3bJ3wJniaE8gFc/OO0J9xBAyUC4hEyrsxuHL1moTX39UaJqYYpyAnEFhAAsJH36tb31NzyT82ddexc4dUEmHnkVOrnF2yWh4o8mxKOrAp6YA6v+4L9Z4Mhau710JyU7y9OcI5UshsVz8OQ0yumCN7jXOIyW3hDQyzimXemlreLVAeN6n2r/IMitoGR7jVIpkQ4YpZdzQrFMLWBqo8kdk+klNTSG8cQdpbSFQCJjCNwlU1qmqCktcw8WVRnSdmiu50M/LGWSVFBkd4YrHCBma7lhJS1S/rQufEQ7iV3eHVcL3cFNJEKUpEdzrocnVFre5RHsshPyBccLmBmsonc8XMzhFEImuUzOSSdRmv84sw6MsyVo7obNGQRJAL45wLfDQ3AobLBUQi5b7Xa7nCFnaBGTJ2QB6TInC4+9/jX7sYGM9ZhXel5pUrbGOebF6ydFnSW1cQidTJfUPmpY+msHmcXJCfO4nN65G//6n9q7qbjFHICNmFVzSTVt8v6OyJy6TYEqu4slc51HJBfTHMoOJdM1ty7ozwGqu8nIiUJpliECAMa+80uqx4Nz2WhvOWvSqCPOiPSyVhoqpY9R05D6RIXzfFmxhQ3M3rHc4RF7o6MdTHYiq6o0MutFbhnSgUsdqqQo7sHdQXzFg8LlbM6RzOqRcHeOO9quVHasrqt3fNbOB2yuonEIlY7UO4ZV5Z2Yuitgayv+IwDNmSh6ipEOedRm8cEt7pZ2ZSbKnywzO66ghYe3xSQ84dpbUUdprc+CFOHsPaWyTnoxZeui8yL33k5L5hii8L5IK5OSvoz0ITmJZcQCTS9IYuC4slnHfumNqzCvYAAQMJ5F4fUOf0Cmcss7LZyj5oY+849aFkE+QC0sjHyKJjjJuE15YLBGqz2ue9iIvCEGtG1P5Vc9EqwspPt1QYVnReTHmlXyTpobpRaG3q4kP0QLlckMsU9WKEAGFgs3vUPRKU0+QKRl1Kdi6WejFCPgUywoy2V76tKvOpI8lMe5lVMhuqctRHc7ZVucpP4RTWMK3Vp3DKD+W01iMXxsqmYQZVu+/DjFACtVW+luGm0QTcPAKGeUV1QugwI1ieZypPXzn08wp7R3WXTeQCZhcW2ptB+3NMYLpyAZFIk968bLXS/sBvHpvIUwpmAIFpESjp/Y594RbtcJXPjoQVDjirVVhSIneFcXLhPB8T3SKcTC6MCZ6p8uXqSQXlhe69CBN2CXDYOuQCh42xdpEFzlD+EfAYWoP2fkZZPI7aEWGv/E+2GqJWM0pJoWh9gg3KbOpGlZAnWKURPWM4dJMx9rJ3X1WG4ZwwXtUvNAeEyzXBuEZ1TITokg6VQz/bgFyY4BowE1IgAQjMJgEj5AIikcZXX7TDr+N3SqY1TENmILAgBESfjWY1399Z+kbALpaj+wYr21WEENq2/SWJtb8R3P5KYZJxixHcbIJr8dDYX9VSZLBDazGCGfdA80Ofm02QB80aLxeENUytH9lSpG9E2DuK9F0hYbjJ8qMq5UaOJjN1yIWcApJrQY9SDSg0gVaITkX4rrHbD/tp/iStSQtpTgEJX9AvquWOtUHZuuKu5otrq8IbNLvQT/On0FpVMkUtVsbO0BgnF2AxQqcPALmgEwskzhoB4+QCIpFGl72J8/Qr/Oj3mnFE1+8AuAsEFpDApqQDeF/SkqVLXQKDySx+/Gvv5N14ptMeg3bPabu6gRfc8jSct2LVX5ojIGJTlUG2BOUMa83eBXu8KviWqLPOC6ve06CYdVDphsdXSE4MRqd8h+PgCJNpL1cVo8lJ9ji2slphaxUBoyUXUlWxs9vFrt58liJAxsAQPdSeWDPmtM2JP9l5xRQss0Wx71JjVd8VEpZGa1UcqTnCYhOx7G7ZMkG72BWrsm1gmMkkKE7V1MKo6oVidkEVEIRXTFEbL+oUE7BM5oPxwc2NkwsGfVnzPhzBYsSsuSWoyDQJGC0XEImUJnjVNTCktO9HrYFD80MKEoHAghNgVJ7Z//6jys9/ntISQ1+kxCj/s3YheXFbeOqgl4/76dEEayci3oVAEIgCNHKBz2yqIrgQ8AQ8xkn94qXav6ovpMLLYqKLLEg3zglP4HYoQ4GrqyUQ8HEtjFSlXJBH9LbHYJT7K4vOFxKc8LKyLgQvwZhYHrpmF2RvQHAENFuszCprF4b6dVBRZ0MA0d6WQMJi8a7MBnXcDXn9spUF2buj1VWqAOLqh13TC4E4DY/FKPXE4AsWl2brRMT7E7EuDFqzXIhoS66xmzB0mzrB68OLlPpcCcwu6CMD6bNDYCZyAZFIQ7klHtvoU47FkAEImD6BqY9pmuC6puqUxo+K+jTvRk5Wqm9Ute9P7YylyMCoSL0DUb8NhjahqWFUpFnp0GpOpw0S6fTrV9SppxWNGVpNT5UIxzRNMu6DXJgEDtyaBQIzlAuIRLolJdd3597JRsCphgAoCwRMhMBsHwKtkQsm0kFUmwGHQE8+4oNcmJwP3J0pgZnLBUQiDdjFCmJmoXokAuOBgILArIaYArkwjZmDyf8FQoipKcd6kAtTIoIMMyIwK3IBkUg3bN8dzBFM/sDDXSCACgKzF8B6VNg7omNxAebbpkMAAlgbOMSDXDAQFGQzksBsyYXyZ/9YT45Qn5eHCq8ARgIBfQSEj38gs/i2js67jp7VlwfS54HArqNnbR2dySy+8PEP89DcTJqANyOMdEJQDC0EZksuIBJpycPv1viSTDa87EwGAii7OAlkXvrQOyIW5+kbV31xcRJYwF7HVV/Eefp6R8RmXvpwAc0wvGmQC2jxemCnkQRmUS7Ijri/85WDm2fs0bcNf8YgJxAwcQKsc53eEbvs1qyLzK8u6f3OxK1Fu3klvd9F5lfbrVnnHbGLda4TRd0BuWCkE4JiaCEwu3IBkUhzrw/YOq5mnmxG0XMOpgKBKQlw3+vdnJKzzMraNzox9cz1KfNDhukSSD1z3Tc6cZmV9eaUHO57vdMtvuD5QS6gxeuBnUYSmHW5gEik+1oeLLOyTn27fcEfYDAACMwuAeGjH3YdPUsIibS2c9iUuJ91TnW04nT27s2uSWivjXWuY1Pifms7B0JI5K6jZ4WPTH2Pgj7gIBeMdEJQDC0E5kIuIBIp63znkmXLMy/d0/doQToQQDWBg7e+oAvF7sG0ZVY2RDpz96sX8u9+g+oezafx+Xe/2f3qBSKduczKxj2YRheKD976Yj4NmIu2QC6gxeuBnUYSmCO5gEikiW+02tg7Zl/tm4snE+oEAiZCoODD5wnHmzbGpa9ydnF037A5OZt5sjn/HkiH8Scu5N/7hnmyeXNytqP7hlXOLhvj0hOONxV8+NxEvseZmwFywUgnBMXQQmDu5AIike5+9YK9i/uhrn+b+aMINQAB0yeQffmT6LI3/WKSVuFdV+FdfXfujSquyXj37uKMq1La92PGu3ejimt8d+5VAPGLSYouezP78iem/1UaYSHIBbR4PbDTSAJzKhcQiXTnkVPOGzYWffytEY8fFAEC6CXA75TsOfGrkMyC9eQIq5V2WBd3n8h4al554huteTeeVQ5NHfUKXX2vHPo578azxDdaqXnlPpHxWBd3q5V268kRIZkFe078ajEEuwe5YKQTgmJoITDXcgGRSCMOHl23aZvoM8NC7MCWMSBgjgR4H3yeWPt+BB/xi05y9g5Yumw51pXguY1OTuPtPHIq5cy13GufHXnyJ1RIhCNP/pR77bOUM9d2HjlFTuN5bqNjXQlLly139g7wi06K4COJte/zPvgcFX2ZRSNBLqDF64GdRhKYB7mASD5DdEkAACAASURBVKSUrEIvaswsPplQFRBANYGKwZ/4HUNpZ29Ei94Kycj32ZGA9yXZ2Dsut17h6L7BPZi2cTc7dF8xXSjeU3OJ3XAr+2pf/t2vy/r/Mg+9Luv/S/7dr7Ov9rEbbu2puUQXikP3FW/czXYPpjm6b1huvcLG3hHvS/LZkRCSkR8teivt7A1+x1DF4E/zYJspNwFywUgnBMXQQmB+5AIikW5KOuAXk2zKTzvYBgQWnIDw0fd57c/SG7oSjjdFFdVQsgoD49O9qDFrA8jYdR7WdlgMBmO1yt5urdtqb3/XoBAPyg6fyHj/2NQgZtaW1NxgzuFQbnFYdml4XkUEH9l+8Nj2Q8e2HzwWwUfC8yrCsktDucXBnMNbUnODmFn+sak+kfEelB2uQSGrvf3t1rpZrbLHYDDWdljsOo+1AWQvakxgfDolqzCqqCbheFN6Q1de+zPho+8XnJJpGgByAS1eD+w0ksC8yQVEIvVnJG9K3G+ajzpYBQRQQaD86cvinm8PdX2Z0/ZpVvN99oVbyaevMk82x1U1MCrro0tro4pPROZXbxe8EnHwaDi/MpxXGc6vjDh4dLvglcj86qjiE9GltYzK+riqBubJ5uTTV9kXbmU1389p+/RQ15fFPd+WP32JCg4maCTIBSOdEBRDC4H5lAuIROoVHhOSWWCCjzqYBASAABCYCQGQC2jxemCnkQTmWS6IPht127Qtgo/M5LGEskAACAABUyMAcsFIJwTF0EJgnuUCIpEWffyt84aNdKHY1J52sAcIAAEgYDQBkAto8Xpgp5EE5l8uIBLpoa4vsS7uu185b/STCQWBABAAAiZFAOSCkU4IiqGFwILIBUQizb7ab2PvuPfUeyb1wIMxQAAIAAHjCIBcQIvXAzuNJLBQcgGRSDMvfbh02XKI6Wfc2ASlgAAQMCkCIBeMdEJQDC0EFlAuIBJp6ts3lllZZzU/MKnHHowBAkAACEyXAMgFtHg9sNNIAgsrFxCJlHmyZYXj6txrA9N9OCE/EAACQMB0CIBcMNIJQTG0EFhwuYBIpLFHzzq4eQpuf2U6Tz5YAgSAABCYFgGQC2jxemCnkQRMQS4gEmlUcQ3el1Ty8LtpPZ+QGQgAASBgIgRALhjphKAYWgiYiFxAJFJqXvl6cnj5s3+YyMMPZgABIAAEDCcAcgEtXg/sNJKA6cgFRCIN5gi8t+8y/PmEnEAACAABEyEAcsFIJwTF0ELApOQCIpEGMbMCdqWZyPMPZgABIAAEDCQAcgEtXg/sNJKAqckFRCL13bl3c0qOgY8oZAMCQAAImAIBkAtGOiEohhYCJigXEInUcxs9lFtsCkMA2AAEgAAQMIQAyAW0eD2w00gCpikXSvv+4hoUsl3wiiFPKeQBAkAACCw4AZALRjohKIYWAqYpFxCJtPCj/1zt5RddVrvgowAYAASAABCYkgDIBbR4PbDTSAImKxcQiZTf+Tu7NeviqhunfFAhAxAAAkBgYQmAXDDSCUExtBAwZbmASKQHfvPEapV90puXF3YggNaBABAAApMTALmAFq8HdhpJwMTlAiKRct65Y7FkCbuha/JnFe4CASAABBaQAMgFI50QFEMLAdOXC4hEmlLXZmljy32vdwHHAmgaCAABIDAJAZALaPF6YKeRBFAhFxCJNOH1d1fi1uTdGJzkcYVbQAAIAIGFIgBywUgnBMXQQgAtcgGRSBkVdU7uG/LvfrNQwwG0CwSAABDQRwDkAlq8HthpJAEUyQVEIo0seG2t/xbh4xF9TyykAwEgAAQWhADIBSOdEBRDCwF0yQVEIg3LLnUPplV+/vOCjAjQKBAAAkBAJwGQC2jxemCnkQRQJxcQiZTM4vtExut8YiERCAABILAgBEAuGOmEoBhaCKBRLiASaWA8JzA+fUEGBWgUCAABIDCRAMgFtHg9sNNIAiiVC4hE6rMjgcziTXxoIQUIAIHKz3+uGPyp/Ok/yp++LH/6j4rBn2D9bq7/VYBcMNIJQTG0EECvXKgc+pkQEhmWfWSuRwGoHwgsFIGSR9/zb/5uX8uD1Prr8a+9s/PIqXBeZTBHELQny5e+13PbznWbtq3xJTkRfOxd1q/E4a3tHCxXrFxmab1k2TKLJUswqv8slixZsmzZMktryxUrre0cVuLw9i7rnQg+a3xJ6zZt89y205e+N2hPVjBHEM6r3HnkVPxr76TWX9/X8oB/83clj75fqO6jq12QC2jxemCnkQTQKxcQifTIk5G1AeTIgtfQNayAtUBAm0Bxzx8PXH6S/NaV6NJaSlaRPyPFbQvVYb2X5YqVy21ssa4El41bvSNiA+M5wRmHtx86Fi16M+F4U/Lpq+kXb3Pf6829/vRQ15cFHz4vefhdad+P5U9fVg7p3ghcOfRz+dOXpX0/ljz8ruDD54e6vsy9/pT7Xm/6xdvJp68mHG+KFr25/dCx4IzDgfEc74hYl41bsa6E5Ta2litWOqz3cttC9WekULKKoktrk9+6cuDyk+KeP2p3ZJFfg1ww0glBMbQQQLVcQCTS/HvfOBF8GBV1i3yogu6jgoBo4O85bZ/uPfXe9kOvbIxLdw0KWeGAs7Rd6bxh4wZa3Nb0Q1ElJ/eeem9fywPB7a/KB/5uIp0qH/i74PZX+1oe7D31XlTJya3phzbQ4pw3bLS0XbnCAecaFLIxLn37oVf2nnovp+1TkcmYPc/0QC6gxeuBnUYSQLtcQCRS3geDK1evTXj93XkeHaA5IDAlgeKPv2U3dEUVn9gYx3b2CbRYutSJ4EOM2hOWU5bw+rv7Wx8KUT7VL3z0/f7WhwmvvxuWU0aM2uNE8LFYutTZJ3BjHDuq+AS7oav442+npGQeGUAuGOmEoBhaCJiBXEAkUm5rr+WKlSl1beYx7kAvUE0g+2pfLFIflJCJ8/Rdbr3CbQs1OONwwutNudc+Q3W/DDc+99pnCa83BWccdttCXW69AufpG5SQGYvUZ1/tM7wS1OUEuYAWrwd2GknAPOQCIpGmN3ZZWFhw3rmDulEGDDYDAnntz2Iq6nyjE22dnB3dvYOYWbtfvcCDECcSqWz+78bg7lcvBDGzHN29bZ2cfaMTYyrq8tqfmcH3rt0FkAtGOiEohhYCZiMXEIk06a3LVivtDvzmsfYzDNdAYO4IsC/cDOYcdvIg2q1ZR2LuY55sLrz/Yu6aM4OaC++/YJ5sJjH32a1Z5+RBDOYcZl+4aQb9QiRSkAto8Xpgp5EEzEkuIBJp/GsX7fCu/E6JeQxA0AvTJMA6f3Nzcrato7NrUEhkfnXu9QHTtNPErTrwqwfb86tdg0JsHZ03J2ezz6NbN4BcMNIJQTG0EDAzuYBIpNGiN3GevoUf/d7Ex0owD3UE+J2S8LwKBzfPtQFkulCcf08eHLVvRPh4dHxfBkaEvRMS5TPz43POLJGTR6I2ySb81X9FbR2cLq2mH/Sz2qYz4XGnJcBfxNGqUF2z+kLUOyIc0LSoTp/GRV83hYjHEpUN5d/7hi4Urw0gO7h5hvMqUCr3QS6gxeuBnUYSMD+5gEiktMOvugYGl/b9OI3xa9LxEepZ5ATSL972i0m2tF0VnHE499qYuQRBOQ3jJuIOjnGf3GwCJrROMPf/qDhsDLlxTNMcNoZQPqz5vhr5GHa35uOUJnXVETD8SeXCMCN0fKPTqF9hQCMfE9VQNMGY3GsDwRmHLW1X+cUkp1+8Pe1qJ1Q4nzWAXDDSCUExtBAwS7mASKSh+0s8QqPmc7CAtsySAPvCTc+waNnZHpVndHZQJhcw9qTTWj/o+66QsBiNXBgYZhUXUriF1PJuwb1uOreFJ5Eivd30Ix281gZqKpeUKoprVcZk59UU0hvV8dlHOEcKme1KNSBsbaByCylcMbN9JEeVzXC5IGwU0xtfaFei6Y62hZ1ackE7XWU5r4br5YZxjS2kKDoikarqLKTXD4smOuzBEZ5YTFFZLmu0t5seS8EEplG4Yk7vGK2jNolRecaJ4OMZFo2inQ0gF9Di9cBOIwmYq1xAJNItqbm+dKZ6AIILIDAtAnntz/xikh3Xe8W/9s4kBQXlNAKbTwgUy0SA/E9QTnNN4hIUswt93RRve9fMBm7ncI64kEAkYhW/3bvqCFh7fFJDzh1ZuiuWSG2VFR87N6D5HS9AGNbeafT6fkFnNz2WhvNWTiEYLhcE5TQ8leGVWiezpF4c4I0PEMsXKfRZqCe9qK2B7I8hFnSw6vuLJFIBwrDdXMhsGxbKDCPiMrvHKoYXzFg8LlbMUTXqVT2M9A1zCpiYqCpWfbegT7dcUJCMf+0dx/VefjHJqHiNAuSCkU4IiqGFgBnLBUQiDdjNCtqTNclYD7eAgE4CUSUnLCwsdhQe13lXO1EmF8r7k5OI1Ga55xvsoXpzk9vqFHJBWMO0Zl4RqpSE6DTXWi0XtJYwcgpI2Lwe/XKhh+pGobWpPesQPdAYuTBm/r9ZhHUTcSVSfRbqS0ckGhGDSLopWGbcA5Vhg91kLJOpPWHQKsIGVuWoV2raqlzljSLTWSLZUXjcwsIiquSENnYTvAa5gBavB3YaScC85QIikW6g7Q5OF5jg4AImmSaBkoff++5M9KDsONT1pSEWyuXCMNIswsllgeg0F5fdg3Qp5cLY2QKpLF0tF7Q2N8hWNOQ7DMbmVzlmdSmV7FBnm9bswpg9DZJuMkbm2tVVKTuraktf+hi5IMuMx/mT8Ko/LBZP0dp6qe6XimQ3GUNjdEmnJRcQifRQ15celB2+OxNLHppuvCuQC0Y6ISiGFgJmLxcqnv1j/dYIam65asBS/RJSjbyQDgTUBAS3h9cGkCn7itQpU14o5YLsNzeF3j5ED6TQ2+WyQK4GcgpI+IJ+TSVtVfhpyYVg+abCviskDDdZM28/mszUO7ugskf571xYw1QIEUE5DZstm8BQ/j1oIMot0WehvvQxckFuGPPeiLBX8ydSzyVIpKJaLoZ5RbM8oe7IdGYX1DZT9hWtDSALbmtt5FR3xwQuQC6gxeuBnUYSMHu5gEikJQ+/W+O7KaqoRj3uwAUQmEjgyJM/yQKc5ldPvDVJito9y+YVAim4JLl3VM0uIO1iVyyD0SnfCDkwzGQSMJPKBaE4zTpUzJO/pihs5OMwincQRpOT7HHsDqHcEwtbqwgYvXIBaRXhvPksxYrAwBA9VLkNU1BOs3ZSWTI4wmITsWz5PgN9FupLVyxGnFfIjtHkJLxX+ZBCEAjr+VjvsS+JyHZ90miKjZzajRolFxCJNDK/em0A+ciTP03yjSzULZALRjohKIYWAotBLiAS6eE7Xzm4ecUiby/UUALtmj6BwHhOSEb+dO1UywVksIfqRlDuYFDLBYm0qJbv6mSPJZKwLjRaddXkixHI4ItkNsUWS8ATCPg4EVkxuyCRIo/76dEEayeiPL2FkapfLkikghquvEWirROFVN6v2Dkhs7O4Iy6OhCWQsFh7fFyDQpQgEmnR+ULCRAv1WS6RCsRpeCxGqXse9zPiSLYuJDyRgA3kMrtUsxeqn/uizoYAor2trFG8K1PVqLFyAZFIQzLyA+M50/2a5iE/yAW0eD2w00gCi0QuIBJp7vUBW0dn5onmeRg4oAkTIXDotwbtP0AkUtb5Tpyn79yZLerTetNS5Uqn3dzAqPZU/7SKa2SNnkr0WagvfUzrg6OiyQ9u6hvVLEkY3X1VQZynL+t85xgDVLcWMBHkgpFOCIqhhcDikQuIRLqv5cEyK5vU+vYFHFOg6fkk4LJxq7Ud1n1rRDDncHz1xewrfZWf/z+dBvjFJG9KOqDzlnkkauSCCXjWGSLdlHTALyZ5hpXMenGQC2jxemCnkQQWlVxQ/IhcsmxZ5rv3Zn2wgApNk0Bxzx/TL96ml5zcGJfuvGGjxZIleF9S0J7MnaVvZDTdVey0L3n43XpyuPDxD6bZhVmxypzkgvDRyHpyeMnD72aFzGxVAnLBSCcExdBCYLHJBUQiTXyj1cbeIftK32wNE1APigiUP325/zePd79ynsziu20Os7Rdabdm3aa9XC9qDIp6YYypfSNCzbsV43cYGFPhgs5SeJre9wVyAS1eD+w0ksAilAuIRLr71Qv2LusP3fo31I2SYPDMCZT1/zX59NUtKbmIRHrg8pNVq9du3M1evyVc+Eh9+jLqvenMKZlyDcLHP8DswsQRHzMxCVKAwCwSWJxyAZFIdx455bwhoOjjP5jysAi2zS6Bwvv/6REahbGw8AzbSReKE2vft1ppF1fdiEikZr93YXZJLmxtsHdBpwsAuaATCyTOGoFFKxcQiTTi4NF1m7aJPvvbwo590PrcEVBMJBx5opk2SDlzTfSZ7CWFpDcvYywskk9fVbQ+129GzEIfB0cFrR2s+g5W67D6/QiDYknPVzTtWeijYQsc8GaETgcAckEnFkicNQKLWS4gEiklq9D8F60NG4Lnbayfn4boJSc9QukYDMZz287EN94f1+juVy9Y22E5TWMiOxt37sK4mufs4zCDisdHVcXV1pGD8dZURXRs1SnRk3/FjXxNeMzJc6LhLpy7oG/0B7mgjwykzw6BRS4XEInUNCc258zrmO2qfNmnf9V+RTZ0X7F6ImEcTHrJSayL+8S9rsad6jiu8rn62FaF96/KUbjzwX4mt4p1RzoxlrToTgddFipaxGgcLmoUU2qGlNGi3Rgkrjw0dq8qgraiqvYWypFuxTlOqjjUYmanZjJmrrpjrC6BUx0nGfdBLkwCB27NAgGQC4hE6s9I2ZS439RGxsVrz+CosNfQQ40OtHxMyz+p2JFAZvGnhEbNK8cTgwS//f905jQiZoTOemY/URbwmhl3b4zaGxdLWtRUiMNSKNU9vDv9zEwa3psgixahiBbtz4+r7+B0jWpiXCkctnriQXZ0NJfZOSJorvLCysNeGOvRZ7/vKksgZsTkIz7Ihcn5wN2ZEgC5oBjdvMIZIZkFczfSLeaaeTWFzPYxfm4KGlonKOvMWfbpX9XptO2YVZvT5RMJU+9B2co+6L51++Tv6083IqXakrm+kB/tjMfRuPTqHoHyCEXtxYgRZrQ9qVY9MSALM6EILiUL/6iOfqkKOKm0VnVLFokqrkURk6KorYN7x1C5Nte9VtQPESkNGehBLhhCCfIYTwDkgmI8En026rY5LIKPzM/wZ26tdF2hFlxR+TC5Mnjcw8iu48oDHY0PsjwwInw83huJHo+ot++poz+Po5R7fUCxI8HZJxAZHFWcIjAuzvKYeiQj3HIRo0npQTfGpfvsiN1XVqZOGVe/9seokhMWFhY7Co9rJy789eCosLMnLpNi7V3IkR2ioC0XVLGhVb/FNcGjVZpAZr8euYAMDjOZFFsnohe7jtWu1hzTEXmqdmed0o7C4xYWFlElJ2a95tmtEM5dMN4PQUlUEAC5oB4yij/+1tknkC4Uq1PgwhACos46LyI3WXuevLeDTGTQLiu9jkouDDNCaeRMJp5IwhPwtrQ6gSLScVdLQCAR70/CE4gEQY9sHV09u6AViOjI4+tWGDufNF7KmebMvAisC0lWhFpFjVMGW0Im1iORIgNDDCqJVPtiw/ZdQXsyZd1RpUzZtbz2Z34xyY7rveJfe2fKzHOeYczbDcMMZegpbbnQT/Mn0do0Dj6ngDT17MJ5rYkHGZwRXqM4wJtIbdXUM+dd068z4l97x3G9l19Mcl77swU0w8CmQS6gwuWBkcYTALmgPRYc6voS60rY/cp57US4noSA8HKVV2ChMlyyYty/d4UUqAqULE/RkgsY4isv5LWNsFIJxJoRRDJED6SonNxIMhNPOi1bX3cJKgsrOenhtw6z9zeq1rvJ8tDPotNcW6pKavR2kN0UcmGIHkhjKMMhjrBSiQFi1U/kwWFmLMWzdFBVj1T2SzqW4oUMa1L0eyz2hZueYdFOBB9G5RlD8s9VHtneBYayg487yG6K7QVyuaCMJS3lFVOsqXWKOJOiOy0kN4xGLgQr3qSQIpJ+mjeBXC+HMzjMoNor1ikE5TRsaod8z+MoKwljIJy56qxEyqg840Tw8QyLZl+4OXetzG7NIBeM90NQEhUEQC6MGzJyrvbbYJ32nnpvXDp81ElgyqkFRCLVkgtqjy5FzvOxeT2yiQSNJ1P+onUlui+zxm1MzUs5GINJVQceVMoFWW0qB6monFA+LKtHvptPdixBfQergKn0lOrpBPGwJiKiYoJBO0W/XFD0Ov3ibb+YZEvbVcEZh3OvDehEMdeJ8kDYeJw/CetCIdUotc6YWNLq4NdEAja4Kk5AU0Lo66EF4zEY5TSM8LKY6CKPKO1Co2WnKbc1DA4zFXGoCQRstDhngY6Lzr02EJxx2NJ2lV9McvrF23ONdHbrB7mACpcHRhpPAOTCxCEj89KHS5dbss51TLwFKToIdNV5BaYxlb/s5S7/cTclkEZt1rEYoZoAkMr237G7ZRMJAWVhwpPa+izvnIig2JqntRiBSDRygVSr2fqg3LvQVUfw5jIUWkHx/zb5NMbjfhqVRD6vmmmQSJGJKVNpBXWX+Z2ScF6Fg5vn2gAyXSjOv/eN+pYJXUwZS3qS/s6k7CTVTnUr/943dKF4bQDZwc0zPK+C3ykxIZ5TGa82FeSC8X4ISqKCAMgF9dOufZH29o1lllZZzfe1E+FaL4GuK9Tshhzldn2FYuhhcKtY8g0NumcXGvkYvxSHdW42ltYuO7NTzlxDBkeYqsUIpVxoF7sGVuXItzgIz/OxWosRiil35F4DEatZjKB3KmTESDKbIp9vf8EpFjFUqkVu/MQUYxbp2edvbk7OtnV0dg0Kicyvzr2+MPMNer8Ogz3cwtaQe30gMr/aNSjE1tF5c3I26zxq1h10cgO5gAqXB0YaTwDkgs4nH5FImSdbVjiszr32mb4MkG4gAbVcCAvaSsw+qSzVyMfsOJnX/hTpaiEFEnHyrY5e47Y6Ska4Apqtk2wjpGsmP0AuFxBZIgPrIt8dGS2mqbc63rtCVtWj3DI5916TfeFmMOewkwfRbs06EnMf82Rz4X3F5gxjVIiBPFGdrfD+C+bJZhJzn92adU4exGDOYRTtTpicPMgF4/0QlEQFAZALkwwBu46edVjnKbht0J64SepZ5LfSzt7YkpqHXefh4OZJTsszSxp57c9iKup8oxNtnZwd3b2DmFm7X73Au6G1v3LutYvJguXdGNz96oUgZpaju7etk7NvdGJMRR0qXnaYFlKQC6hweWCk8QRALkw+IkQVn8ATSSW9/zV5Nrg7joBs2kDlIMuf/YMuFGunqG+Z5UX21b5YpD4oIRPn6bvceoXbFmpwxuGE15sWz0xV7rXPEl5vCs447LaFutx6Bc7TNyghMxapz77aZ5bfuKJTIBeM90NQEhUEQC5MOX6F51Ws3xJe/vTllDkXeYayT/+aUte2JTXPYZ2ng5vnIT0HLS8qSsUff8tu6IoqPrExju3sE2ixdKkTwYcYtScspyzh9Xf3tz4UPvoe1UCEj77f3/ow4fV3w3LKiFF7nAg+FkuXOvsEboxjRxWfYDd0FX/8Lao7aLjxIBdQ4fLASOMJgFwwZDgI5hz2jthlSM5FmKfgo9+re+25jb6oJhLUHTfwQjTw95y2T/eeem/7oVc2xqW7BoWscMBZ2q503rBxAy1ua/qhqBLZSyL7Wh4Ibn9VPvB3A6ud62zlA38X3P5qX8uDvafeiyo5uTX90AZanPOGjZa2K1c44FyDQjbGpW8/9MreU+/ltH0qMhmz5xrLuPpBLhjvh6AkKgiAXBj3zOv7SGLuC9iVpu+uzvTKz3+uGPyp/Ok/yp++LH/6j4rBnyo//1lnTtQlln36N+VEgptnfPVF1NlvUgYX9/zxwOUnyW9diS6tpWQV+TNS3LZQHdZ7Wa5YudzGFutKcNm41TsiNjCeE5xxePuhY9GiNxOONyWfvpp+8Tb3vd7c608PdX1Z8OHzkofflfb9WP70ZeWQ7n9mlUM/lz99Wdr3Y8nD7wo+fH6o68vc60+57/WmX7ydfPpqwvGmaNGb2w8dC844HBjP8Y6Iddm4FetKWG5ja7lipcN6L7ctVH9GCiWrKLq0NvmtKwcuPynu+aNJkVxYY0AuoMLlgZHGEwC5MOUQI3z0Pf/m7/a1fLyOFBpVcnLnkVPhvMpgjiBoT5Yvfa/ntp3rNm1b40tyIvjYu6xficNb2zlYrli5zNJ6ybJlFkuWYDAWGPl/FkuWLFm2bJmlteWKldZ2DitxeHuX9U4EnzW+pHWbtnlu2+lL3xu0JyuYIwjnVe48cir+tXdS66/va/mYf/N3pjZlHXHwqIdsIuFk7nXNHoUpSUKG6RJQ/dt7kFp/Pf61d6b/b0/xTw9j7L+9Byb4b2+6DOctP8gF4/0QlEQFAZALitEEfuFNa1Qt+3Tq8I/TqhAyAwG0EwC5gAqXB0YaT2ARygVYP0b7uAz2AwETJABywXg/BCVRQWAxyIXij79Nh93pqtcaTXCcBZOAgBkQALmACpcHRhpPwFzlgu53348vsnffjy+6d9/NwOtAF1BKAOSC8X4ISqKCgDnJBThZb5JxdpGcrDcJAbgFBOaUAMgFVLg8MNJ4AmYgF+Dc/ukOgmZ8bv90UUB+IDBbBEAuGO+HoCQqCKBXLkBUwFkZ5swsKuCsMIFKgIARBEAuoMLlgZHGE0CdXOB3SsJ5FQ5unmsDyHShOP/eN0Y82FBkIoH8e9/QheK1AWQHN8/wvAp+p2RiHkgBAkBAHwGQC8b7ISiJCgIokgvpF2/7xSRb2q4Kzjice21A30ML6TMkkHttIDjjsKXtKr+Y5PSLt2dYGxQHAouEAMgFVLg8MNJ4AqiQC+wLNz3Dop0IPozKM4tk6DGFbjIqzzgRfDzDotkXbpqCPWADEDBlAiAXjPdDUBIVBExcLuS1P/OLSXZc7xX/2jumPFKYsW3xr73juN7LLyY5r/2ZGXcTugYEZkgA5AIqXB4Y0qlGxgAAIABJREFUaTwBU5YLUSUnLCwsdhQen+FjDMVnTmBH4XELC4uokhMzrwpqAAJmSQDkgvF+CEqigoBpyoWSh9/77kz0oOw41PWlWY4saOzUoa4vPSg7fHcmljz8Ho32g81AYE4JgFxAhcsDI40nYIJyQXB7eG0AmbKvaE6fbajcOAKUfUVrA8iC28PGFYdSQMBcCYBcMN4PQUlUEDA1uXDkyZ/WBpAj86unGlNGBU0dOQ+k6myirm5O16j645QXgpo0fF73ZNkGRoS9BlfYN8xpGhZJpMi0ShkYx2FwVNDawarvYLUOiwaVXRb1jggHNN3X3ZG5MEYijcyvXhtAPvJkRHejBnYKsgEB8yIAcgEVLg+MNJ6AqcmFwHhOSEa+AX5omBGKITdq/KWgnEYon8ZPXkE5DcOeVC408jGhdQIDR7SuOoIi87RKGVT5MIOKx0dVxdXWkYPx1lSFSeO7r5vY7BujBB6SkR8Yz9HdqEGd0nxxUAkQMA8CIBeM90NQEhUETEousM534jx9DRs7xvtLtVzg1RQy20cF9WIKt5CSV8e5o5khEN3poHMLKVwRo3GYpyUXtNOLGsWUmiGkt5seS8G4MUjcQnqj/Gf04Ai3WiSrkytmadWptFYhFwwrJWwU0xuHc6pF5FQ+pbiF91iKPB5iFvNJTD61ukeomj9Q1txWhfevylH44MF+JreKdUfKq+F6uWFcYwsp3Bae/JawtYEqt43ZPpJTI7d5nDHtLZQj3UKVLxcquimRIup+KSxRZZjyW8B5+rLOdU6ZDTIAgUVCAOQCKlweGGk8AZOSC34xyZuSDhg2uOiVCxw2hkBlEgUdOXeGuNWFrk4kWqvst6yoqRCHpVCqe3h3+pmZNLw3QTG7oDu9b5hTwMT48+PqO+RrHLKf+K6ZLTl3RniN4gBvIqVJo0JkBivkgmGlBOU0ayyJVN0vkFlCsaUWkmPT6I1Dws5uKtUel9czhkBXHQHLjLs35ud4UVsD2R9DLOhg1fcXSaQChGHtnUav7xd0dtNjaThvjGyiZZwxY2ca1JMr3DwiLqmF1zvMLWBYB4oV4mOMAXoExKakA34xyYbkhDxAYDEQALlgvB+CkqggYDpyoeThd+vJ4cLHPxg2skwmF7DZGo9bVM3ERLcIJSPMaHtSrXq5fTQ5yV4uF/SlSxFt/9pUaB3VUKR2nI18a1mdWi5c52KEnlKCcpqWhT1UNwypViU+uuoIbiKuds0SqaCG6+qEx9G49OoegXK/gnb3e6huFFqb2pgheqBcLkjGdkG7OxKpSi6MMKMxATUKLC9y6tX1q2vTeyF89MN6cnhJ73eGfV9664HiQMA8CIBcQIXLAyONJ2A6cgGRSL2oMQYPHNr+UuaK1IsRHPaYPQ2y3/0yB9xNxtAYXRqnpfKX+tLH+FpZZici3p+k/CMSrJ0KOdpOXZdc0FdKbaq8s+M60k3G8MfUrGhlcFTY2ROXSbH2LuT0SRGJVqmuOsLYIrL5FcU2Dm2JoH2tkQtSpKuFFIi3JTDI5R28Xg0fQ74Ir3DDv6/p1WxI65AHCJgUAZALxvshKIkKAqYjF5SzC4/UEwBTOBhWKoZ8XpOHm0dQ+EgOG0OsfqEZR5pFWNkmxH6aP0nrJ7g0p4Akn13Qlz5GLohquRhmS1HviFDzp5oPULhzXXJBX6npyYUxbzcMM4IVYkhLLvRdIWG4yTINofgbTWZORy7IS4keD3GK03DeIu64nRPKOtWVay6Ej+WzCw9hdkHDRPUVQMpiJAByARUuD4w0noDpyAVEIp3O3gVpUQ3TllrHU0zO93aQ3Sj0dtkgxWFjrImFLMUP5YEhBtVeISN4xRRrVX7RnRaSG0axd0FfumwxIlj1ZkTfFZITg9EplwiDI6xUgo4dBuo3I6YqNT25INu7wFDOizxWd1MuF5RqSbawgmN3KPZIClurCBgtuaA2prclAEujK7rwuJvsrej+MCOUQD4vl2gDHSQMg3HH0IEe9i6AOAAC2gRALhjvh6AkKgiYlFyYzpsRUkQywhUwsFg8jkiwdWFQzitnFGSLETXdtGAClki0xeAJgm7luwaDL1hcmi2WgCcSsMFVcQLVi5SDL5LZFB3pfT20YDxG5XqFl+sCiHgskYR3IbgyWwTjfoWrZxcMKDU9uSCRFtXyZXsX/ElYFwqpRvmyqECchsdiMIpliMf99GiCtRMRTyDg41oYqSq5MNYYeT32WCIRS0yjpqq639Wi6BfOhUA80i87OsKwP3gzwkBQkG2REAC5gAqXB0YaT8Ck5AIikRp87oJer6bZu9A3qsP5DY6KdJ5upC99nO/UWee4PBM/GldqYj2TpwyMqg9xmvYAPU0L4dyFaROe/LuDu+gnAHLBeD8EJVFBwNTkgsGnOhogF9A/AJmmT4JTHU3zewGrFpYAyAVUuDww0ngCpiYXZO843P5qJjEjNLMLIBfmgADEjFhYnwStmywBkAvG+yEoiQoCJigXEIl0JhEpRY8NCKYwB37UZEex2TIMIlLOFkmoxywJgFxAhcsDI40nYJpyQTGaRJWcsLCw2FF43CwHF3R1akfhcQsLi6iSE+gyG6wFAvNGAOSC8X4ISqKCgCnLBUQizWt/5heT7LjeK/61d+btsYeGtAnEv/aO43ovv5jkvPZn2ulwDQSAgDYBkAuocHlgpPEETFwuKJ5G9oWbnmHRTgQfRuUZ7ecTrueUAKPyjBPBxzMsmn3h5pw2BJUDATMgAHLBeD8EJVFBABVyQTGUpF+87ReTbGm7KjjjcO61ATMYX0yzC7nXBoIzDlvarvKLSU6/eNs0jQSrgICpEQC5gAqXB0YaTwBFckExOvA7JeG8Cgc3z7UBZLpQnH/vG1MbNVBqT/69/6ALxWsDyA5unuF5FfxOCUo7AmYDgQUhAHLBeD8EJVFBAHVyQT0QsM/f3Jycbevo7BoUEplfnXsd5hv0nkWhhjbxIvf6QGR+tWtQiK3j6s3J2az/v73zj2rySvN48AdFghJMligRTAEJ8itqDKnGGgtCaBGjpkoIalqBsAQJEGyQTFusUuPYljK7Ci2zKyO7ImoXPBxl7dYBqwstSmXO6WH2zJk9PTNbl9mePXRmtof/97xJ3uQNJBjyBuGNXw9/vLnce9/nfl58nm/uve99LmDdwR+MM8Gi5HkjALnAiJAHI/0nwFy54HRGmos3pdpK7ouiVWvWiVVHVWcvGb+gpJjCO5MzCBi/+E519pJYdXTVmnXcF0VSbSV2Jzj/nHABAv4RgFzwPw6hJSMIBIFccP7fLrvxKPdkc3LOfjY3evX6xAzVkdfevaj/bNRZ4Xm+0H82+tq7FzNUR1avT2Rzo5Nz9ueebMbLDs/znwTGHlgCkAuMCHkw0n8CwSQXqP/5j10dyrO0ZBQc5sUnLw8Lj90ilxZXFpxpL732NbVaEF+XXvu64Ey7tLgybot8eVg4Lz45o+BwnqXl2NWhIB41hgYCC0UAcsH/OISWjCAQrHKB6jJqfv0HTWtfVs37afma6KT0kKVLucIkUdbe7SVvFZz55Rud90xfPqHWZ9y16csnb3TeKzjzy+0lb4my9nKFSSFLlkYnpafla7JqmjStfTW//gPjBgWDQYBZBCAXGBHyYKT/BJ4HuTDN6ZhHfizp/mrfucs7K95Jyy8SZGSGR/FC2RHRG9I2KPK3FlVk1Z7dd+7y0Y67htu/rR/5cVrzhfpYP/Kj4fZvj3bc3Xfucnbt2a1FFRsU+dEb0kLZK8OjeIKMzLT8op0V7+w7d7mk+yvzojF7oXDhviDwjAlALvgfh9CSEQSeQ7ng0YnUDPzxzSsP1B925Zw4LztSnaJ8PXaLPCouITQ8YvkKNkcgjEnbmvhyXvoerbS4cmfF2znmDwpOt6s/ulr0yS3d5cHS6w8r+r6t+vz3tfe+PzH0Q/3DPzc8/snjjRoe/1T/8M8nhn6ovfd91ef/WdH3ben1h7rLg0Wf3FJ/dLXgdHuO+YOdFW9nFlem79EmvpwXk7aVIxAuX8EODY+IikuI3SJPUb4uO1Kdc+K8+sOuN688qBn4o8cbBbawZvC/AtshegOBICMAucCIkAcj/ScAufBUn1X75ZPym7852nH3YMv1Pe99urvu3A59g1RryNh7JDl7X/y23es2bVuTLOYKkyJj4iJ4/LBVUaHhEctCw5YsWxayZAmL/BeyZMmSZcuWhYaFhkeErYqK4PEjY+K4wqQ1yeJ1m7bFb9udnL0vY+9hqdawQ9+wu+7cnvc+Pdhy/WjH3fKbv6ld6OWS/MY2YeaubJMV5zE89Q8GFZ5PApAL/schtGQEAciF59O1zXXUDd/8dLDlxmZ1yUq+4OW//dlcm6M+CAQ9AcgFRoQ8GOk/AciFoPdiAR/gm1ceOPvcrD52sOV6wzf/5yzBxWIg0PDNTydH/1r/8C/1D/9c//AvJ0f/2vCN59WxxWBtcNgAueB/HEJLRhCAXAgOV7VQo9hdd06YuWvZC2HJu/dpkWBixolYNJ/L/CyEcfxeCDOPTNIcURA3h1xgRMiDkf4TgFwIYv/1zIZWO/hfBWfaqbfT/8s31I/P4/X9x9qW4erRpx8pfbz32+Jfzec225EJ0yAR5oltttfPxLF2Z3V/X/X5771ts5UWV6bn7RWkSlav38Dm8peFhi17YcXKmPjYFCGbtUa4/1lvs2XKHw/kgv9xCC0ZQQBygSnOiEF2llwdXrUm9m8SU7e9WXfk0hcMsjyApuprZCyWUH7JTS54eok3aulS1grBjJd4bwXuJd62ctZLzQbHzMeEvvOx6amzIIP92TqjTKdLiGUJ8oyZhyu3N40c7biZbbDudHuJNwIv8Tr/ZiAXGBHyYKT/BCAXnP/bcRFYArrOQXlZfdKuPc5uT47+1Xkd7BfDihSZRKN6YX+X84iw1Wt4IUucR4QZt72au/PsvTd+VmQPyTJdh94Wxc23+5VlRpnOKK/vN4w41Ia+yajq/q6wxig5WC6v7ycmLe70K8t0YpUxu2XcTIZ/8+0eW5g3K9vGq9ussqbHlsH+7DwZK1Yp1hmz2yYsY49V5I0soxO6U2YZIQushbc9rjKMK19iSdqciodsO9ifXddvuNIqP1i+qeidnT+/VXDmF5t37eKsjQvj8KlHhB14qyqzsEymczMyWB895IL/cQgtGUEAciFYndciHFeu+UNR1t78xtbqu15ygI1MmO57jFvOiOW8mDQNTph9mOp/9hyIA8h1OaFRkqj1MUtClvE2OQ4gfy2PJawfJ+1xROLq7lZJCktU1VPYMlw9NmXpbORzZTLrsKF3IP+wjC0yaoeIIWs1rDCuUt722NTbn50n4h0wihVGVfe4obtVnBgpaiJ4mtuNPI5MdmpAf3tYdVjBTxSyNP2WoXFtlYqVUp7f0qPtm7SM9UtY5VpCXowr5XzB4Y6S2xP6tsYErkjWPpP8NLlAtu1rFnIi+QdaS26Pl1iNAq5SpjmUWtOvH3ysLVOGJZr3dhEHkGdkrl8aIVgauoIbG7dWEBmRWakL6gPIIRcYEfJgpP8EIBdI9+2MQ7gIFIEJbZ1VO+jqrfbek71N/5CifD00PCK79qwH8m3lRIQjvyvPetEvYSmUfa7OZ60879WmpTdL3BDBzTut/2xYrWKJzzvCsFbjQS4QYdv1DX5ClRMpPj9BjmVCrYoUNREftRqW6BSpsQY7RCyxopsc1IVyVk6HaWxa20n1gUgHTLfFCDLkd5o56Vb7fIZlbKr6glX2zrBzloI0gGrblEtq9DULY806UqvpyoQsVRfZdlwpFco7icoyjir/LmEkkd7sbSM3NC4iNpjTm0Eu+B+H0JIRBCAXSM9IOl+fYhUqkwT6uuRVXc45cwKmq2Rc+ZJbRDffnzA5Z9cdeyEnTYOT294wHf7HfyPa+iIXhuyTCtPkAtGP61GOjKurzKreWUsC8aA9J08f7ZeQkdL8kS6MiOUELh/kwrRBTRnqFfaQr9VQFwXcq/U1C4mtCe6FY662BFXX3gWHXHD27ILmAYh3ueDqkHIjcpjE+kVfs5DF56WI+eQPh8OXtU8FcfJ0yAVGhDwY6T8ByIVZ3SUZFD14UvxqytzbnCDSqe+4ULiXkHKhr1koLZflEJGDx+UnWBwT8oamQwIhURjOWR+xPiOCxxdvT2blNNsjq2vJ3Kkh7g8opEKOSMwXiRMM5lRydsHZD0+oUFwiv5oP9khESsUV8uPYlGVmib+PVXPh5mb1MfbqaEFG5q7jp0qvj1D/igiJ4IyUImEYy/Ele7pckNoVADUkDytSKNMGY1MlVWJ+1fB0INOUgUMueGg7y+yCqUlFmRKYsgw53p6gDsR95sN9duGpcmGoS8zSqe5MmAZdP9MWj0qvj+w6fkqQkcleHb1Zfazwwk33u7v+rhhRDrngfxxCS0YQgFxghCdahEaarjQmpBsLKWsNM0oocoGlyrerivs9kliVanDKcsMqSG8ssU9o3+8Sc3XK69/mHNpO/TJt/Lf/JAbukAuT6gP8BHLt39RSzrHLhRtWwUvNBkc/PZLEQ0Tndh1wf0AulcmI/X3eS5y/8uGivHdsh/5kVGz82lRJtsl6/M7vXD27mhOrACLLY2eYVB+MtK8jmKyHwl6y6m3zK6a2ch6LIhcuOCzU18g4qg77bA2hvTiO6RkfZhem9DWyMHmzvX/z7Q5xLMslF6TONyPIxQiCuVJpn4AZnVCpIin7Kkhcbgslc5QLY/bn9di+SEE8r0TX+sU0bsfv/C7bZF2bKomKjd9RdpKhB41DLjAi5MFI/wlALkzzXPjoIwH3iQQiwMwoocgFypfRwoPE2rahXuEhPpETCcRS/Ym7L0Ssit28/ZV9MtarrfaF80Jyvdz2kQilhnoF/2BrYUuP/UeRRZm0t08ndFLkwswSV5h3xkgPF0Wf3NqYqw5lr5QWV5Zec5tLmI7rbquIo1Pb9ic6fnXJzLEPf/Q7tUbG5gj5QiE/3yxxzC5MGayH+BwWy74DcXRCa1DY6vDDYpSKdofxvsgFi7N/kZAjbcw3OBYyLEMDCimfxbLvnCDlwtiU6YpVFCPk2aZ8hLoeT0dEUGc+5ioXpiz3h5X5YnaMmC8SctJ1Kh82mpReG5EWV4ayV27MVRcx7dQvyAX/4xBaMoIA5MJ0d+9b/EArgkBfc0L6Ibcw4FbiWS7YI99T5YJ9MUJz8ebWXWms9bts+oAahh1L9YZ6Be9As1MuFLb0lNi211nudIlF5Lfnsam6B3/St39ALfHxCWou3ozfnsMVJikbPvaxSSCqTZqpgmNOf5Ojk2Zyg4hPlgxNkrsUPegkn3qY3by52mPrTdnwMVeYFL89R3ORMSsUkAuMCHkw0n8CkAsBcIizu8vg/m1fl/xYawk1PrlKZpMLjsUIe8PBDjHXJgXI2QV9jUxgW7O3jE0UHrS9EEhObiuMpzNUR147JH2B9TLxZgSxGOGY4bfc75Kklxfen7KMDKvKzGrK11nlibow9sqsj//d98ddduPRxlz16riEPe996nsr1AwggT3vfbo6LmFjrrrsxqMAdjtPXUEu+B+H0JIRBCAX5sl3oFvbRjnb0rtjL57jy6tzXt3QpBMIRcT+R6HSsUWRlAsWYlcjny0U80UymeaQYw3+/oBCLly1buPKaAF7fSKLFbLxb4lv/NXny8l+KFsdZ6i0/MbWFRzu0Y67vjyarNr3Q0JCXjGe9qUy6swrgVeMp0NCQrJq35/Xu9DvHHKBESEPRvpPAHKBvptADwtCoO7Bnyr7/8N5a+INhWtfOz96vFCdvbR8BXv2VFi1954k797/ouyVir5vPXaCwmdPoKLv2xdlryTv3l9778mzv7uPd4Rc8D8OoSUjCEAu+OgLUG0xE3hr+H+lWkNUbDxXmCQ7Ypz2ZiPVcvVHXSFLlh76xWfUQue14db42lSJ7Gi1swQXC0jAPDhB3VchO1q9NlViuOU8GXN+NlvMmJfykQDkAiNCHoz0nwDkgo++ANUYQeBY17/vrHibaupbX/0v9aNlbKrwQu/S5aEHzv/ztPK6B39amyrZdfwUtdzc10/uoxzQU0+C8jeoUDv38drQdIhf5uNhl9QI6vmc7Opu+2nQZM27w4Xd5HmRvgzqdkdqitl2jDTZw/RWnu/r42Ad1Yb6ZSI+RzT9RruOn1qbKql78Ke59TbdQm+W0yqHXPA/DqElIwhALixCvwOTAkVA09oXEhKyYeereT/7BfWYhOL2f30hYlXBmX+g3ih9jzaz+Di1xGI7G5Ej19nyMBnFcuIFReqx1tMqz9NH305gnBnqpp/zaDfP/bQo57EWM5t7KSGOa7RnnfBSYdopUv6F6rZyVlYrkURjxk9m8fH0PdqZ5QteArnAiJAHI/0nALmw4F4GBswrgRNDP+w7dzktv2jT/jeoN9JdHmRzo199++/thYUXennxydQK9utpL3xWW3XEIQr24x88ZXQ0tVmz274zdbbKbZkeVTdcpz6Q6SKN8lMDJscBEkSOxxIijeRsuSX15FHQhEkj44U1RL5KWVmrjjyQishXeYUoF6t0spoe2ylPE9q6QwKWMOGAUVbXT81Y7U0uzGK586ZEksxeilwgjSHK7/RnE7kuPdyXpOElL+XohN5qtSfGdOCyZ9FMPyTTueUccT4dXnxy4YVe58dFcgG54H8cQktGEIBcWCS+BmY8SwI7yk5mFh9/9e2/i1wbl2P+wDI2tTH3wKYDb860YZpcsL3uYU+hRM3oaE1NdGR0JI6NkisTDjbresdLWqypifxUK5kuMvFQdttjE5EuUsaW249Z7JewItkKs7Z3Qt9mTZ09t+TYlGWoX5YosuV+dKSCtCfZmpavMiyno3ps0tDeKGKJJe/0FLa7MlzPSF3hml3wZrntppGCw63EiKxGoUjEsc8uEMbMLJ9+X4NFyd5MJM905NI83E/djmAZ+06Vx+flWbUkroRT444smlmNhS39Bk/nT2w68ObGXPXMh7WwJZALjAh5MNJ/ApALC+ticPcFIXDs6rCi8l1BRmbYylXhUbyNOQfituyou++aCXBaNUMukJmi2o1h1NnytnJ7Kili4YBafsnMiTXriGzRQvkl59T6uPIlR9pGCZlRgjgW87xu9tySBouSc2yAahunjPjolq+SSNZgO2bby6KAt9kFL5ZPmZpUYaou5/yELSMGsRjhrdx54KbNTldeSuKjLfmW65RuImG3meM8C3xsytLdKCBwuUSMc7DUi7r7/x0n2VE7+D21cMGvIRf8j0NoyQgCkAsL7mVgwDMjcPLRX0qvfa2y/kpeVi/KVnFfFIWEhESte3Gz+liCPNejGTPlQuFBlqhpggiuXOLQCMePSBjGNWptex3cD7fulxDBm5hFIJJjkfV5XFYCkZDadSQzcXdH6sjpew6cexeIWYQYVyd8IZ+lIBb4nUdZ2IbgbO68cMoU4mIWueDJ8hn1yb0L0/shy93kgpe8lE7UzqGRJaTNzhM4ZuxdsNeM9/K8yH7chvxsCiEXGBHyYKT/BCAXno0rwV0WhEDp9ZF91l/tKDvpFAd/k5CyMefAy+WW/ef/qeyzRw2Pf7KMTdXe+z5OssP0pQ+zC6MD8lhZ9g3bTICqo5qSbtGeQdtQr6BOAFjutoqIqfthRYpM0enKzUgkoCJOtPQoF7zmliypEguqBpzJq4iL+0SS7jnJhWkCiEhNqSFeu/BiuSsrpuMJdjfybYsRzmyZ08rd5MLT8lISEyqqLtfyhK0+kXFjVrlgss8u3MPsgpvnZ7l9wgcQCDQByIUFCWO46bMhIMiQOcTBzzvLbjxq+IYQBx5/Nuaqn7p3wXx3QJkn4tlX34fcMjoWHhTybOsChnpFGCXTY6FGxNEQq/X6GhlP02Pf4WjutQo5KhWR28KjXPCeW/KGVZBY7sgCOvI4+6VIUROxMWJOcsHSaea5dyL+iNAc3iwnjtnmkNk3RsZVKqEjG5a3crdFkKflpRzqEnMUCnsasNEJJ67Z5QL2LniMA5ALHrGgMGAEIBc8Bg8UPm8EZnkzguX4F8kRKWXWx85VfNOV5lTibAAxP0YoUHXYX5cgvrvX9OTnizlCMYcTyc9vtWeUtox+V6hTsIn1CxEnhjz02otccFTmCIlcjtTckmNT1ReMQi6fSCMZI0wwDNiN8SIXJnVVCjaLxaKkA7U/VuL4bW4kRyRic2Xi+mF7J14td9yUWEzhxCgUpxqdL1ISx28T/Uwrd7/v0/JSmntbU0WRbAIXX6Aicc06u4A3IzwGAMgFj1hQGDACkAvPW1zEeL0R8HjugrfKrnL3jI6uqf6RSbMr3bZzSmMuqSa953I0DxHzAYH9eZrlU95u6q3czTzvY3FUc8fo1tZ9pDh3wZv3h1zwRgblgSEAuTCLY8KvnisCHk91nCsBV9B1D3Jz7efZ12eE5TjVcRa/D7kwCxz8KgAEIBeevV/GHRctAfo5IxgRdD3yX/yWI2fE7B4fcmF2PvgtXQKQCx5dJwqfWwJ0M1IOTZg8nSzEAJ6L2HJkpPTF0UMu+EIJdfwnALnAAD/OtGntIECaVft+SEjIK8bTQTAWpg/hFePpkJCQrNr3F/lAcO6C/3EILRlBAHJhkfsgmLdQBMpuPNqYq14dl7DnvU8Xyobn/L573vt0dVzCxlx12Y1Hix8F5AIjQh6M9J8A5MLid0OwcAEJaC7ejN+ewxUmKRs+XkAziFuPTho6e4hs2p3jzncuzI7jnmZ9S2Jkwn6E1ALbP5dJMmXDx1xhUvz2HM3Fm0wxG3LB/ziElowgALnAFGcEOxeQQNEntzbmqkPZK6XFlaXXRhbCEiKjFT+rMf98s0TKD3NkqBpXvsSStM2qFVxnSz+t2lzC+TwRKL02Ii2uDGWv3JirLvrk1jzdZZ66hVxgRMiDkf4TgFyYJ9+BboOPQHnv2A79yajY+LWpkmyT9fid3z27MXY38lMaS+wRfXT6XZwSAAAJIElEQVRYpWssvD2lb9IlxLIEeUYZkTmaUANkjmyzsm28us0qa3pssSeDjlWKdcbstgniI1mZMP5GhzO9NZlm2qrq9XAY9ryO9Pid32WbrGtTJVGx8Tv0J8t7x+b1dvPUOeSC/3EILRlBAHJhnnwHug1iApoLNzerj7FXRwsyMncdP1V6ff7nG/qahRxV/h23GYLq7lZJCktU1VPYMlw9NmVuN/I4MtmpAT2RI1vBTxQSySCGxrVVKlZKeX5Lj7Zv0uJKBGXrypHUisgMyUvUqXonDJcaEzhEUoxn8PhKr4/sOn5KkJHJXh29WX1Mc4Ex6w4e4UAuMCLkwUj/CUAuePyfj0IQ8IWA5uJNqbaS+6Jo1Zp1YtVR1dlLxi+IJA7z8WM7uZnPU+iyTw0YiPRUU5Yx6mLEhConUnzeOTEwqT4Qac8dRSa6tDXxIheIRFP5HfaUFtXdPbrbgT810s7E+MV3qrOXxKqjq9as474okmorGbQ7YfbHCrngfxxCS0YQgFyY3QXgtyDgC4GyG49yTzYn5+xnc6NXr0/MUB157d2L+s9GfWk7hzqjk6begfzDsrBEo5Y43YEqF8jUz6RYceWGdk4hjE15nV0YHVepZGyuKEHTXHjDqTkCo3v0n42+9u7FDNWR1esT2dzo5Jz9uSebGfGywxwezdgU5AIjQh6M9J8A5MKcPAIqg8BTCRy7OpRnackoOMyLT14eFh67RS4triw401567euntvVawe3thnGl1L7DkSoXvKa9nm124UK5WwKqkQl9mzU1USTvpCUUSq99XXCmXVpcGbtFvjwsnBefnFFwOM/ScuzqkNcBkiqHuRUgF/yPQ2jJCAKQC8x1T7B88ROo+fUfNK19WTXvp+VropPSQ5Yu5QqTRFl7t5e8VXDml2903jN9+cSnURB7F5TKPlsUv98jibVvL7DJhQuO0K6vkYXJm+0JMM23O8SxLNdihLTZ4IjHw4pEoaTFNn8wOq6UR9rlgqFewTnYY0tNOVl4gJVgGffJqrEp05dP3ui8V3Dml9tL3hJl7eUKk0KWLo1OSk/L12TVvK9p7av59R987Irp1SAXGBHyYKT/BCAXmO6kYD+DCJhHfizp/mrfucs7K95Jyy8SZGSGR/FC2RHRG9I2KPK3FlVk1Z7dd+7y0Y67hlu/rR/5kTo0W7ZoInU1J0YmbnKEc4P1EJ/DYrHKtcTBDN+pNTL2zLTXQwMKKZ/FYgnriVamK1ZRjC1hdIxCceyQY3ZhdFyVL2bHiPlCISfHWuJ+jnX9yI+G27892nF337nLWbVntxZVbFDkR29IC2VHhEfxBBmZaflFOyve2Xfuckn3V2Z3s6lDCO5ryAX/4xBaMoIA5EJwuzCMbvETqBn445tXHqg/7Mo5cV52pDpF+XrsFnlUXEJoeMTyFWyOQBiTtjXx5bz0PVppceXOirdzzB8UnG5Xf3S16JNbusuDpdcfVvR9W/X572vvfX9i6If6r/7nra9/8jjqhsc/1T/884mhH2rvfV/1+e8r+r4tvf5Qd3mw6JNb6o+uFpxuzzlh3aF/W1pcmb5Hm/hyXkzaVo5AuHwFOzQ8IiouIXaLPEX5uuxIdc6J8+oPu9688qBm4I8eb/R8FkIuMCLkwUj/CUAuPJ+uDaNmBIHaL5+U3/zN0Y67B1uu73nv091153boG6RaQ8bew8nZ++K37V63aduaZDFXmBQZExfB44etigoNj1gWGrZk2bKQJUtY5L+QJUuWLFu2LDQsNDwibFVUBI8fGRPHFSatSRav27Qtftvu5Ox9GXsPS7WGHfqG3XXn9rz36cGW60c77pbf/E2tj8slzN98QPNPAnLB/ziElowgALlA00egOQiAAAhY8GYEIwIejKRDAHIBng4EQAAE6BPA7AKdSIS2DCAAuUDfTaAHEAABEIBcYEDAg4l0CEAuwM2BAAiAAH0CkAt0IhHaMoAA5AJ9N4EeQAAEQABygQEBDybSIQC5ADcHAiAAAvQJQC7QiURoywACkAv03QR6AAEQAAHIBQYEPJhIhwDkAtwcCIAACNAnALlAJxKhLQMIQC7QdxPoAQRAAAQgFxgQ8GAiHQKQC3BzIAACIECfAOQCnUiEtgwgALlA302gBxAAARCAXGBAwIOJdAhALsDNgQAIgAB9ApALdCIR2jKAAOQCfTeBHkAABEAAcoEBAQ8m0iEAuQA3BwIgAAL0CUAu0IlEaMsAApAL9N0EegABEAAByAUGBDyYSIcA5ALcHAiAAAjQJwC5QCcSoS0DCEAu0HcT6AEEQAAEIBcYEPBgIh0CkAtwcyAAAiBAnwDkAp1IhLYMIAC5QN9NoAcQAAEQgFxgQMCDiXQIQC7AzYEACIAAfQKQC3QiEdoygADkAn03gR5AAARAAHKBAQEPJtIhALkANwcCIAAC9AlALtCJRGjLAAKQC/TdBHoAARAAAcgFBgQ8mEiHAOQC3BwIgAAI0CcAuUAnEqEtAwhALtB3E+gBBEAABCAXGBDwYCIdApALcHMgAAIgQJ8A5AKdSIS2DCAAuUDfTaAHEAABEIBcYEDAg4l0CLDwDwRAAARAIBAE6Lhi+m1Z9LtADyAAAiAAAiAAAsFNAHIhuJ8vRgcCIAACIAACASAAuRAAiOgCBEAABEAABIKbAORCcD9fjA4EQAAEQAAEAkAAciEAENEFCIAACIAACAQ3AciF4H6+GB0IgAAIgAAIBIAA5EIAIKILEAABEAABEAhuApALwf18MToQAAEQAAEQCAAByIUAQEQXIAACIAACIBDcBCAXgvv5YnQgAAIgAAIgEAACkAsBgIguQAAEQAAEQCC4CUAuBPfzxehAAARAAARAIAAEIBcCABFdgAAIgAAIgEBwE4BcCO7ni9GBAAiAAAiAQAAIQC4EACK6AAEQAAEQAIHgJgC5ENzPF6MDARAAARAAgQAQgFwIAER0AQIgAAIgAALBTQByIbifL0YHAiAAAiAAAgEgALkQAIjoAgRAAARAAASCmwDkQnA/X4wOBEAABEAABAJAAHIhABDRBQiAAAiAAAgENwHIheB+vhgdCIAACIAACASAAORCACCiCxAAARAAARAIbgKQC8H9fDE6EAABEAABEAgAgf8H7H1b8larvzoAAAAASUVORK5CYII=;" vertex="1" parent="1">
          <mxGeometry x="444.5" y="760" width="698" height="648" as="geometry" />
        </mxCell>
      </root>
    </mxGraphModel>
  </diagram>
</mxfile>
